<svg width="24" height="24" viewBox="0 0 24 24" fill="none" xmlns="http://www.w3.org/2000/svg">
<g id="vuesax/bold/add-circle">
<g id="add-circle">
<path id="Vector" d="M2.75 12C2.75 6.90421 6.90421 2.75 12 2.75C17.0958 2.75 21.25 6.90421 21.25 12C21.25 17.0958 17.0958 21.25 12 21.25C6.90421 21.25 2.75 17.0958 2.75 12ZM13.5 16V13.5H16C16.8242 13.5 17.5 12.8242 17.5 12C17.5 11.1758 16.8242 10.5 16 10.5H13.5V8C13.5 7.17579 12.8242 6.5 12 6.5C11.1758 6.5 10.5 7.17579 10.5 8V10.5H8C7.17579 10.5 6.5 11.1758 6.5 12C6.5 12.8242 7.17579 13.5 8 13.5H10.5V16C10.5 16.8242 11.1758 17.5 12 17.5C12.8242 17.5 13.5 16.8242 13.5 16Z" fill="#2CA900" stroke="#2CA900" stroke-width="1.5"/>
</g>
</g>
</svg>
