<svg width="24" height="24" viewBox="0 0 24 24" fill="none" xmlns="http://www.w3.org/2000/svg">
<g id="vuesax/bulk/building-3">
<g id="building-3">
<path id="Vector" opacity="0.4" d="M14.26 21.2412L3.76001 21.2587V14.75H3.76003L3.75999 14.745L3.75 13.2475V7.06998C3.75 6.65614 3.96027 6.26708 4.30765 6.03291C4.30798 6.03269 4.30831 6.03246 4.30865 6.03224L8.3064 3.36377L8.30818 3.36257C8.72528 3.08243 9.27472 3.08243 9.69182 3.36257L9.6936 3.36376L13.6936 6.03375L13.6936 6.03375L13.6965 6.0357C14.0444 6.26552 14.25 6.64941 14.25 7.06998V13.25H14.25L14.25 13.255L14.26 14.7524V21.2412Z" fill="#E88532" stroke="#E88532" stroke-width="1.5"/>
<path id="Vector_2" d="M19.98 21.25V22H20.03C20.013 22 19.9964 22.0005 19.98 22.0015C19.9637 22.0005 19.947 22 19.93 22H19.97V21.25V18.24V17.7049L19.464 17.5308C18.8209 17.3095 18.36 16.7035 18.36 16V14C18.36 13.1042 19.0942 12.37 19.99 12.37C20.8858 12.37 21.62 13.1042 21.62 14V16C21.62 16.7123 21.1514 17.3236 20.4973 17.537L19.98 17.7058V18.25V21.25Z" fill="#E88532" stroke="#E88532" stroke-width="1.5"/>
<g id="Vector_3">
<mask id="path-3-inside-1_5136_288" fill="white">
<path d="M15.01 14.75H3.01001L3 13.25H15L15.01 14.75Z"/>
</mask>
<path d="M15.01 14.75H3.01001L3 13.25H15L15.01 14.75Z" fill="#E88532"/>
<path d="M15.01 14.75V16.25H16.5201L16.51 14.74L15.01 14.75ZM3.01001 14.75L1.51004 14.76L1.51999 16.25H3.01001V14.75ZM3 13.25V11.75H1.48996L1.50003 13.26L3 13.25ZM15 13.25L16.5 13.24L16.49 11.75H15V13.25ZM15.01 13.25H3.01001V16.25H15.01V13.25ZM4.50998 14.74L4.49997 13.24L1.50003 13.26L1.51004 14.76L4.50998 14.74ZM3 14.75H15V11.75H3V14.75ZM13.5 13.26L13.51 14.76L16.51 14.74L16.5 13.24L13.5 13.26Z" fill="#E88532" mask="url(#path-3-inside-1_5136_288)"/>
</g>
<g id="Group">
<g id="Vector_4">
<mask id="path-5-inside-2_5136_288" fill="white">
<path d="M9 22.75C8.59 22.75 8.25 22.41 8.25 22V18.25C8.25 17.84 8.59 17.5 9 17.5C9.41 17.5 9.75 17.84 9.75 18.25V22C9.75 22.41 9.41 22.75 9 22.75Z"/>
</mask>
<path d="M9 22.75C8.59 22.75 8.25 22.41 8.25 22V18.25C8.25 17.84 8.59 17.5 9 17.5C9.41 17.5 9.75 17.84 9.75 18.25V22C9.75 22.41 9.41 22.75 9 22.75Z" fill="#E88532"/>
<path d="M9 21.25C9.41843 21.25 9.75 21.5816 9.75 22H6.75C6.75 23.2384 7.76157 24.25 9 24.25V21.25ZM9.75 22V18.25H6.75V22H9.75ZM9.75 18.25C9.75 18.6684 9.41843 19 9 19V16C7.76157 16 6.75 17.0116 6.75 18.25H9.75ZM9 19C8.58157 19 8.25 18.6684 8.25 18.25H11.25C11.25 17.0116 10.2384 16 9 16V19ZM8.25 18.25V22H11.25V18.25H8.25ZM8.25 22C8.25 21.5816 8.58157 21.25 9 21.25V24.25C10.2384 24.25 11.25 23.2384 11.25 22H8.25Z" fill="#E88532" mask="url(#path-5-inside-2_5136_288)"/>
</g>
</g>
<path id="Vector_5" d="M10 9C10 9.55228 9.55228 10 9 10C8.44772 10 8 9.55228 8 9C8 8.44772 8.44772 8 9 8C9.55228 8 10 8.44772 10 9Z" fill="#E88532" stroke="#E88532" stroke-width="1.5"/>
</g>
</g>
</svg>
