<svg width="347" height="184" viewBox="0 0 347 184" fill="none" xmlns="http://www.w3.org/2000/svg">
<rect width="347" height="184" rx="6.28571" fill="#F2F4FC"/>
<path d="M229.103 59.5856C235.037 72.8649 236.119 88.4083 230.957 103.249C229.836 106.473 228.472 109.528 226.875 112.408C227.107 114.228 227.23 116.068 227.246 117.922C227.251 118.543 227.242 119.166 227.222 119.789C227.221 119.84 227.219 119.891 227.218 119.942C227.196 120.576 227.162 121.21 227.114 121.846C227.113 121.852 227.112 121.859 227.112 121.866C227.066 122.464 227.006 123.065 226.936 123.665C226.926 123.756 226.916 123.848 226.905 123.939C226.83 124.553 226.745 125.167 226.646 125.78C226.642 125.805 226.637 125.829 226.633 125.854C226.539 126.423 226.432 126.992 226.317 127.56C226.291 127.688 226.265 127.816 226.238 127.944C226.113 128.537 225.978 129.131 225.829 129.723C225.822 129.752 225.813 129.781 225.806 129.81C225.664 130.366 225.509 130.921 225.345 131.476C225.302 131.623 225.259 131.77 225.214 131.916C225.036 132.499 224.851 133.081 224.649 133.661C223.207 137.81 221.238 141.605 218.852 145.023L218.849 145.031C211.112 156.065 198.961 162.971 185.891 164.062C185.889 164.064 185.886 164.067 185.884 164.069C208.451 162.897 235.171 139.029 240.789 114.204L240.788 114.203C246.081 95.4967 241.227 75.5649 229.103 59.5856Z" fill="url(#paint0_linear_1611_306168)"/>
<path d="M240.304 115.826C250.589 83.2426 229.594 46.4853 192.707 33.1423C186.708 30.972 180.652 29.5512 174.66 28.8409C143.836 25.1401 114.826 40.0351 104.652 66.7586C118.49 29.5495 159.044 10.2764 196.01 23.6478C198.319 24.4832 200.564 25.4311 202.732 26.4688C235.298 42.1316 251.78 80.4062 240.304 115.826Z" fill="url(#paint1_linear_1611_306168)"/>
<path d="M213.894 124.521C207.362 143.302 191.125 155.739 172.973 158.043C173.551 157.809 174.135 157.559 174.704 157.303L174.714 157.298C182.468 153.784 189.24 148.07 194.054 140.606L194.057 140.598C196.005 137.574 197.636 134.263 198.878 130.694C204.174 115.466 201.106 99.2777 192.113 87.3441C192.105 87.3412 192.108 87.3333 192.1 87.3304C187.536 81.2894 181.453 76.347 174.168 73.1776C173.297 72.7991 172.409 72.4417 171.511 72.1166C152.882 65.3783 132.79 71.9046 121.184 86.8769C130.857 64.5526 154.751 52.4508 177.895 57.8445C177.926 57.8558 177.957 57.8672 177.992 57.8706C179.94 58.394 181.892 59.0095 183.839 59.7141C185.187 60.2017 186.513 60.7268 187.807 61.294C210.979 72.1916 222.593 99.509 213.894 124.521Z" fill="url(#paint2_linear_1611_306168)"/>
<path d="M121.183 86.8763C118.193 90.7276 115.764 95.1347 114.066 100.015C111.516 107.347 110.907 114.892 111.957 122.079C111.828 121.887 111.695 121.685 111.571 121.477C106.848 110.537 105.926 98.5905 109.824 87.3832C116.062 69.4467 133.069 57.9848 153.121 55.8338C161.058 54.9847 169.481 55.5968 177.894 57.8433C154.75 52.4502 130.856 64.552 121.183 86.8763Z" fill="url(#paint3_linear_1611_306168)"/>
<path d="M193.931 140.806C190.534 146.619 181.49 156.037 169.034 159.415C167.045 159.954 164.984 160.113 162.947 159.766C162.937 159.771 162.929 159.768 162.921 159.765C159.245 157.983 155.903 155.752 152.93 153.146C144.468 145.732 139.025 135.354 137.61 124.162C137.555 123.862 137.502 123.553 137.46 123.239C137.327 122.295 137.274 121.353 137.285 120.425C137.286 120.398 137.286 120.371 137.284 120.352C137.386 114.623 140.096 109.385 144.394 106.034C149.539 120.331 160.653 132.271 175.821 137.758C181.812 139.925 187.931 140.908 193.931 140.806Z" fill="url(#paint4_linear_1611_306168)"/>
<path d="M194.055 140.607C194.014 140.673 193.98 140.743 193.932 140.807C187.933 140.908 181.813 139.926 175.821 137.758C160.653 132.272 149.541 120.332 144.395 106.035C146.792 104.169 149.671 102.884 152.873 102.431C162.237 101.102 170.915 107.336 172.98 116.556C172.985 116.567 173.378 119.162 173.38 119.181C175.534 130.087 183.851 138.327 194.055 140.607Z" fill="url(#paint5_linear_1611_306168)"/>
<path d="M226.773 111.656C226.771 111.637 226.761 111.615 226.767 111.599C226.729 111.35 226.202 107.838 226.166 107.608C225.984 106.32 225.749 105.031 225.458 103.749C225.448 103.728 225.433 103.695 225.438 103.679C224.587 99.9498 223.288 96.2849 221.585 92.7359C221.582 92.7171 221.577 92.7063 221.58 92.6978C215.261 79.5054 203.386 67.969 187.807 61.2927C210.98 72.1909 222.593 99.5088 213.894 124.52C207.404 143.182 191.33 155.576 173.317 157.993C173.303 157.986 173.295 157.983 173.295 157.983C161.487 159.408 151.111 151.457 151.111 151.457C160.358 159.695 168.047 163.69 179.99 164.161C180.045 164.164 180.099 164.164 180.153 164.166C180.457 164.178 180.763 164.188 181.072 164.194C181.621 164.209 182.167 164.213 182.713 164.207C182.932 164.207 183.149 164.208 183.372 164.205C183.37 164.203 183.368 164.202 183.367 164.2C197.385 163.841 210.615 156.771 218.849 145.03L218.851 145.022C221.238 141.604 223.206 137.808 224.649 133.66C227.191 126.353 227.811 118.829 226.773 111.656Z" fill="url(#paint6_linear_1611_306168)"/>
<path d="M230.957 103.249C229.836 106.473 228.472 109.528 226.875 112.408C226.84 112.151 226.811 111.905 226.773 111.656C226.771 111.637 226.761 111.615 226.766 111.599C226.728 111.35 226.202 107.838 226.166 107.608C225.984 106.32 225.749 105.032 225.458 103.749C225.448 103.728 225.432 103.695 225.438 103.679C224.587 99.9499 223.288 96.2849 221.584 92.7359C221.582 92.7172 221.577 92.7064 221.58 92.6979C217.605 84.3996 211.438 76.7652 203.535 70.5759C197.817 66.0909 191.202 62.3765 183.838 59.7129C173.471 55.9627 162.929 54.7835 153.121 55.8337C140.913 57.1471 129.834 61.9014 121.625 69.4768C116.356 74.3414 112.265 80.3647 109.824 87.3832C105.926 98.5905 106.847 110.537 111.571 121.477C111.379 121.19 111.188 120.895 111.008 120.595C110.7 120.103 110.395 119.604 110.1 119.099C109.82 118.626 109.549 118.157 109.283 117.672C109.246 117.622 109.221 117.568 109.188 117.511C108.947 117.08 108.709 116.641 108.482 116.196C108.436 116.125 108.393 116.046 108.36 115.962C108.102 115.479 107.854 114.991 107.617 114.498C107.4 114.076 107.194 113.648 106.996 113.224C106.461 112.08 105.965 110.932 105.507 109.771C105.292 109.24 105.088 108.704 104.884 108.169C104.458 107.019 104.062 105.862 103.711 104.704C103.581 104.285 103.454 103.86 103.335 103.436C103.3 103.333 103.265 103.23 103.24 103.122C103.107 102.638 102.976 102.147 102.853 101.66C102.727 101.153 102.602 100.646 102.492 100.145C102.394 99.7379 102.304 99.3344 102.224 98.9252C102.158 98.6297 102.1 98.337 102.05 98.0478C101.958 97.5983 101.877 97.1431 101.803 96.6913C101.713 96.1338 101.623 95.5763 101.549 95.0245C101.478 94.5374 101.416 94.0532 101.364 93.5639C101.338 93.4099 101.322 93.2502 101.307 93.0906C101.194 92.0631 101.11 91.0282 101.055 89.9854C101.026 89.4319 101.002 88.8619 100.992 88.3061C100.966 87.3099 100.966 86.3142 100.992 85.3191C100.996 85.0037 101.007 84.6906 101.029 84.3729C101.034 84.0763 101.058 83.7773 101.072 83.4835C101.083 83.2704 101.096 83.0579 101.115 82.8476C101.136 82.4299 101.176 82.0099 101.218 81.5815C101.213 81.5707 101.211 81.5513 101.219 81.5275C101.263 81.0456 101.317 80.558 101.371 80.0709C101.387 79.9226 101.406 79.7669 101.432 79.6135C101.485 79.1798 101.546 78.7496 101.615 78.3217C101.622 78.2518 101.628 78.1819 101.646 78.1063C101.706 77.7028 101.771 77.3102 101.848 76.9123C101.887 76.6731 101.929 76.4253 101.978 76.181C102.007 76.0196 102.037 75.8582 102.077 75.6917C102.15 75.3018 102.235 74.9068 102.326 74.5147C102.425 74.0527 102.532 73.5935 102.657 73.1315C102.752 72.7047 102.866 72.2751 102.988 71.8483C103.167 71.18 103.365 70.5094 103.579 69.8445C103.742 69.3245 103.913 68.8068 104.092 68.2925C104.271 67.7782 104.457 67.2661 104.652 66.7575C109.508 53.9959 118.66 43.9376 130.258 37.3079C138.634 32.5172 148.299 29.5058 158.539 28.5937C169.556 27.5912 181.237 28.9926 192.707 33.1418C207.891 38.6337 220.376 48.0828 229.103 59.5851C235.038 72.865 236.119 88.4084 230.957 103.249Z" fill="url(#paint7_linear_1611_306168)"/>
<path d="M203.535 70.5772C197.817 66.0922 191.202 62.3778 183.838 59.7142C173.471 55.964 162.929 54.7848 153.121 55.835C133.068 57.986 116.062 69.448 109.824 87.3845C105.926 98.5918 106.847 110.538 111.571 121.479C111.379 121.192 111.188 120.897 111.008 120.596C110.7 120.105 110.395 119.605 110.1 119.1C109.82 118.628 109.549 118.158 109.283 117.673C109.246 117.623 109.221 117.569 109.188 117.512C108.947 117.081 108.709 116.642 108.482 116.198C108.436 116.127 108.393 116.048 108.36 115.963C108.102 115.48 107.854 114.992 107.617 114.499C107.4 114.077 107.194 113.649 106.996 113.225C106.461 112.081 105.965 110.933 105.507 109.772C105.292 109.242 105.088 108.706 104.884 108.17C104.458 107.021 104.062 105.864 103.711 104.705C103.581 104.287 103.454 103.861 103.335 103.438C103.3 103.334 103.265 103.231 103.24 103.123C103.107 102.64 102.976 102.149 102.853 101.661C102.727 101.154 102.602 100.647 102.492 100.146C102.394 99.7392 102.304 99.3357 102.224 98.9265C102.158 98.631 102.1 98.3383 102.05 98.0491C101.958 97.5995 101.877 97.1443 101.803 96.6926C101.713 96.1351 101.623 95.5776 101.549 95.0257C101.478 94.5387 101.416 94.0545 101.364 93.5652C101.338 93.4112 101.322 93.2515 101.307 93.0918C101.194 92.0644 101.11 91.0295 101.055 89.9867C101.026 89.4332 101.002 88.8632 100.992 88.3074C100.966 87.3112 100.966 86.3155 100.992 85.3204C100.996 85.005 101.007 84.6919 101.029 84.3742C101.034 84.0776 101.058 83.7786 101.072 83.4848C101.083 83.2717 101.096 83.0592 101.115 82.8489C101.136 82.4312 101.176 82.0112 101.218 81.5827C101.213 81.5719 101.211 81.5526 101.219 81.5288C101.263 81.0468 101.317 80.5592 101.371 80.0722C101.387 79.9239 101.406 79.7682 101.432 79.6147C101.485 79.1811 101.546 78.7509 101.615 78.323C101.622 78.2531 101.628 78.1832 101.646 78.1076C101.706 77.7041 101.771 77.3114 101.848 76.9136C101.887 76.6744 101.929 76.4266 101.978 76.1822C102.007 76.0209 102.037 75.8595 102.077 75.6929C102.15 75.3031 102.235 74.9081 102.326 74.516C102.425 74.054 102.532 73.5948 102.657 73.1328C102.752 72.706 102.866 72.2764 102.988 71.8496C103.167 71.1813 103.365 70.5107 103.579 69.8458C103.742 69.3258 103.913 68.8081 104.092 68.2938C104.271 67.7794 104.457 67.2674 104.652 66.7588C109.508 53.9972 118.66 43.9389 130.258 37.3092C142.434 32.6441 156.221 32.1735 169.434 36.9523C185.673 42.8274 197.686 55.4185 203.535 70.5772Z" fill="url(#paint8_linear_1611_306168)"/>
<path d="M239.144 114.891C249.429 82.3078 228.434 45.5505 191.547 32.2075C185.547 30.0372 179.492 28.6164 173.5 27.9061C182.561 25.6357 192.033 24.789 201.572 25.5334C234.137 41.1968 250.62 79.4714 239.144 114.891Z" fill="url(#paint9_linear_1611_306168)"/>
<defs>
<linearGradient id="paint0_linear_1611_306168" x1="214.141" y1="135.453" x2="226.642" y2="70.757" gradientUnits="userSpaceOnUse">
<stop stop-color="#0059CF"/>
<stop offset="0.3091" stop-color="#0041B4"/>
<stop offset="0.7558" stop-color="#002393"/>
<stop offset="0.9996" stop-color="#001886"/>
</linearGradient>
<linearGradient id="paint1_linear_1611_306168" x1="202.387" y1="67.715" x2="125.112" y2="70.0359" gradientUnits="userSpaceOnUse">
<stop stop-color="#8137C2"/>
<stop offset="1" stop-color="#300054"/>
</linearGradient>
<linearGradient id="paint2_linear_1611_306168" x1="156.788" y1="45.4457" x2="182.927" y2="145.512" gradientUnits="userSpaceOnUse">
<stop offset="0.00030185" stop-color="#C66FD7"/>
<stop offset="1" stop-color="#8137C2"/>
</linearGradient>
<linearGradient id="paint3_linear_1611_306168" x1="120.972" y1="117.709" x2="147.193" y2="67.5733" gradientUnits="userSpaceOnUse">
<stop offset="0.00030185" stop-color="#C66FD7"/>
<stop offset="1" stop-color="#8137C2"/>
</linearGradient>
<linearGradient id="paint4_linear_1611_306168" x1="134.361" y1="125.92" x2="192.121" y2="146.009" gradientUnits="userSpaceOnUse">
<stop offset="0.00030185" stop-color="#FFC9E1"/>
<stop offset="1" stop-color="#8137C2"/>
</linearGradient>
<linearGradient id="paint5_linear_1611_306168" x1="150.916" y1="101.763" x2="176.423" y2="133.494" gradientUnits="userSpaceOnUse">
<stop offset="0.00030185" stop-color="#FFC9E1"/>
<stop offset="1" stop-color="#8137C2"/>
</linearGradient>
<linearGradient id="paint6_linear_1611_306168" x1="159.842" y1="147.844" x2="230.577" y2="78.6499" gradientUnits="userSpaceOnUse">
<stop stop-color="#FFC9E1"/>
<stop offset="1" stop-color="#8137C2"/>
</linearGradient>
<linearGradient id="paint7_linear_1611_306168" x1="212.78" y1="120.839" x2="139.384" y2="67.487" gradientUnits="userSpaceOnUse">
<stop stop-color="#0059CF"/>
<stop offset="0.9996" stop-color="#001886"/>
</linearGradient>
<linearGradient id="paint8_linear_1611_306168" x1="114.36" y1="81.2744" x2="183.446" y2="61.3774" gradientUnits="userSpaceOnUse">
<stop offset="0.00028409" stop-color="#44FFFF"/>
<stop offset="0.9996" stop-color="#0059CF"/>
</linearGradient>
<linearGradient id="paint9_linear_1611_306168" x1="245.439" y1="96.2426" x2="189.32" y2="27.3841" gradientUnits="userSpaceOnUse">
<stop stop-color="#8137C2"/>
<stop offset="1" stop-color="#300054"/>
</linearGradient>
</defs>
</svg>
