<svg width="24" height="24" viewBox="0 0 24 24" fill="none" xmlns="http://www.w3.org/2000/svg">
<mask id="mask0_8018_26326" style="mask-type:alpha" maskUnits="userSpaceOnUse" x="0" y="0" width="24" height="24">
<rect width="24" height="24" fill="#D9D9D9"/>
</mask>
<g mask="url(#mask0_8018_26326)">
<path d="M12.0001 13.7035L6.03813 19.6654C5.81507 19.8885 5.53116 20 5.18643 20C4.84169 20 4.55779 19.8885 4.33472 19.6654C4.11165 19.4424 4.00012 19.1585 4.00012 18.8137C4.00012 18.469 4.11165 18.1851 4.33472 17.962L10.2967 12.0001L4.33472 6.03813C4.11165 5.81507 4.00012 5.53116 4.00012 5.18643C4.00012 4.84169 4.11165 4.55779 4.33472 4.33472C4.55779 4.11165 4.84169 4.00012 5.18643 4.00012C5.53116 4.00012 5.81507 4.11165 6.03813 4.33472L12.0001 10.2967L17.962 4.33472C18.1851 4.11165 18.469 4.00012 18.8137 4.00012C19.1585 4.00012 19.4424 4.11165 19.6654 4.33472C19.8885 4.55779 20 4.84169 20 5.18643C20 5.53116 19.8885 5.81507 19.6654 6.03813L13.7035 12.0001L19.6654 17.962C19.8885 18.1851 20 18.469 20 18.8137C20 19.1585 19.8885 19.4424 19.6654 19.6654C19.4424 19.8885 19.1585 20 18.8137 20C18.469 20 18.1851 19.8885 17.962 19.6654L12.0001 13.7035Z" fill="#000833"/>
</g>
</svg>
