<svg width="25" height="24" viewBox="0 0 25 24" fill="none" xmlns="http://www.w3.org/2000/svg">
<g id="vuesax/bulk/device-message">
<g id="device-message">
<path id="Vector" d="M10.0262 12.0403C10.593 12.6072 11.3336 12.9615 12.1665 13.0926V13.79C12.1665 14.9075 13.4171 15.5567 14.3358 14.9585L14.3358 14.9586L14.343 14.9537L17.0439 13.15H19.4165C19.586 13.15 19.7528 13.1416 19.9165 13.1248V13.9C19.9165 15.3321 19.5111 16.2315 18.9187 16.7817C18.3161 17.3412 17.4015 17.65 16.1665 17.65H7.1665C5.93147 17.65 5.01686 17.3412 4.41434 16.7817C3.82189 16.2315 3.4165 15.3321 3.4165 13.9V8.5C3.4165 7.06795 3.82189 6.16848 4.41434 5.61835C5.01686 5.05887 5.93147 4.75 7.1665 4.75H8.9417C8.92497 4.91372 8.9165 5.08054 8.9165 5.25V9.15002C8.9165 10.2863 9.29403 11.3082 10.0262 12.0403Z" fill="#FB5581" stroke="#FB5581" stroke-width="1.5"/>
<path id="Vector_2" opacity="0.4" d="M16.8165 11.65H16.5891L16.4 11.7763L13.6665 13.6018V12.4V11.65H12.9165C12.1128 11.65 11.4947 11.3875 11.0868 10.9797C10.679 10.5718 10.4165 9.95372 10.4165 9.15002V5.25C10.4165 4.87963 10.4738 4.5434 10.5747 4.24681C10.8974 3.34244 11.708 2.75 12.9165 2.75H19.4165C20.2211 2.75 20.8333 3.01491 21.2424 3.42408C21.6516 3.83325 21.9165 4.44544 21.9165 5.25V9.15002C21.9165 10.3585 21.3241 11.1691 20.4197 11.4918C20.1231 11.5927 19.7869 11.65 19.4165 11.65H16.8165Z" fill="#FB5581" stroke="#FB5581" stroke-width="1.5"/>
<g id="Vector_3" opacity="0.4">
<mask id="path-3-inside-1_5136_834" fill="white">
<path d="M15.2664 21.25H12.4164V18.4C12.4164 17.99 12.0764 17.65 11.6664 17.65C11.2564 17.65 10.9164 17.99 10.9164 18.4V21.25H8.06641C7.65641 21.25 7.31641 21.59 7.31641 22C7.31641 22.41 7.65641 22.75 8.06641 22.75H15.2664C15.6764 22.75 16.0164 22.41 16.0164 22C16.0164 21.59 15.6764 21.25 15.2664 21.25Z"/>
</mask>
<path d="M15.2664 21.25H12.4164V18.4C12.4164 17.99 12.0764 17.65 11.6664 17.65C11.2564 17.65 10.9164 17.99 10.9164 18.4V21.25H8.06641C7.65641 21.25 7.31641 21.59 7.31641 22C7.31641 22.41 7.65641 22.75 8.06641 22.75H15.2664C15.6764 22.75 16.0164 22.41 16.0164 22C16.0164 21.59 15.6764 21.25 15.2664 21.25Z" fill="#FB5581"/>
<path d="M12.4164 21.25H10.9164V22.75H12.4164V21.25ZM10.9164 21.25V22.75H12.4164V21.25H10.9164ZM15.2664 19.75H12.4164V22.75H15.2664V19.75ZM13.9164 21.25V18.4H10.9164V21.25H13.9164ZM13.9164 18.4C13.9164 17.1616 12.9048 16.15 11.6664 16.15V19.15C11.248 19.15 10.9164 18.8185 10.9164 18.4H13.9164ZM11.6664 16.15C10.428 16.15 9.41641 17.1616 9.41641 18.4H12.4164C12.4164 18.8185 12.0848 19.15 11.6664 19.15V16.15ZM9.41641 18.4V21.25H12.4164V18.4H9.41641ZM10.9164 19.75H8.06641V22.75H10.9164V19.75ZM8.06641 19.75C6.82798 19.75 5.81641 20.7616 5.81641 22H8.81641C8.81641 22.4184 8.48483 22.75 8.06641 22.75V19.75ZM5.81641 22C5.81641 23.2384 6.82798 24.25 8.06641 24.25V21.25C8.48483 21.25 8.81641 21.5816 8.81641 22H5.81641ZM8.06641 24.25H15.2664V21.25H8.06641V24.25ZM15.2664 24.25C16.5048 24.25 17.5164 23.2384 17.5164 22H14.5164C14.5164 21.5816 14.848 21.25 15.2664 21.25V24.25ZM17.5164 22C17.5164 20.7616 16.5048 19.75 15.2664 19.75V22.75C14.848 22.75 14.5164 22.4184 14.5164 22H17.5164Z" fill="#FB5581" mask="url(#path-3-inside-1_5136_834)"/>
</g>
<g id="Group">
<g id="Vector_4">
<mask id="path-5-inside-2_5136_834" fill="white">
<path d="M16.1064 8C15.6864 8 15.3564 7.66 15.3564 7.25C15.3564 6.84 15.6964 6.5 16.1064 6.5C16.5164 6.5 16.8564 6.84 16.8564 7.25C16.8564 7.66 16.5164 8 16.1064 8Z"/>
</mask>
<path d="M16.1064 8C15.6864 8 15.3564 7.66 15.3564 7.25C15.3564 6.84 15.6964 6.5 16.1064 6.5C16.5164 6.5 16.8564 6.84 16.8564 7.25C16.8564 7.66 16.5164 8 16.1064 8Z" fill="#FB5581"/>
<path d="M16.1064 6.5C16.5279 6.5 16.8564 6.84464 16.8564 7.25H13.8564C13.8564 8.47536 14.845 9.5 16.1064 9.5V6.5ZM16.8564 7.25C16.8564 7.66843 16.5249 8 16.1064 8V5C14.868 5 13.8564 6.01157 13.8564 7.25H16.8564ZM16.1064 8C15.688 8 15.3564 7.66843 15.3564 7.25H18.3564C18.3564 6.01157 17.3449 5 16.1064 5V8ZM15.3564 7.25C15.3564 6.83157 15.688 6.5 16.1064 6.5V9.5C17.3449 9.5 18.3564 8.48843 18.3564 7.25H15.3564Z" fill="#FB5581" mask="url(#path-5-inside-2_5136_834)"/>
</g>
</g>
<g id="Group_2">
<g id="Vector_5">
<mask id="path-7-inside-3_5136_834" fill="white">
<path d="M18.9165 8C18.4965 8 18.1665 7.66 18.1665 7.25C18.1665 6.84 18.5065 6.5 18.9165 6.5C19.3265 6.5 19.6665 6.84 19.6665 7.25C19.6665 7.66 19.3265 8 18.9165 8Z"/>
</mask>
<path d="M18.9165 8C18.4965 8 18.1665 7.66 18.1665 7.25C18.1665 6.84 18.5065 6.5 18.9165 6.5C19.3265 6.5 19.6665 6.84 19.6665 7.25C19.6665 7.66 19.3265 8 18.9165 8Z" fill="#FB5581"/>
<path d="M18.9165 6.5C19.3379 6.5 19.6665 6.84464 19.6665 7.25H16.6665C16.6665 8.47536 17.6551 9.5 18.9165 9.5V6.5ZM19.6665 7.25C19.6665 7.66843 19.3349 8 18.9165 8V5C17.6781 5 16.6665 6.01157 16.6665 7.25H19.6665ZM18.9165 8C18.4981 8 18.1665 7.66843 18.1665 7.25H21.1665C21.1665 6.01157 20.1549 5 18.9165 5V8ZM18.1665 7.25C18.1665 6.83157 18.4981 6.5 18.9165 6.5V9.5C20.1549 9.5 21.1665 8.48843 21.1665 7.25H18.1665Z" fill="#FB5581" mask="url(#path-7-inside-3_5136_834)"/>
</g>
</g>
<g id="Group_3">
<g id="Vector_6">
<mask id="path-9-inside-4_5136_834" fill="white">
<path d="M13.2866 8C12.8666 8 12.5366 7.66 12.5366 7.25C12.5366 6.84 12.8766 6.5 13.2866 6.5C13.6966 6.5 14.0366 6.84 14.0366 7.25C14.0366 7.66 13.7066 8 13.2866 8Z"/>
</mask>
<path d="M13.2866 8C12.8666 8 12.5366 7.66 12.5366 7.25C12.5366 6.84 12.8766 6.5 13.2866 6.5C13.6966 6.5 14.0366 6.84 14.0366 7.25C14.0366 7.66 13.7066 8 13.2866 8Z" fill="#FB5581"/>
<path d="M13.2866 6.5C13.7081 6.5 14.0366 6.84464 14.0366 7.25H11.0366C11.0366 8.47536 12.0252 9.5 13.2866 9.5V6.5ZM14.0366 7.25C14.0366 7.66843 13.705 8 13.2866 8V5C12.0482 5 11.0366 6.01157 11.0366 7.25H14.0366ZM13.2866 8C12.8682 8 12.5366 7.66843 12.5366 7.25H15.5366C15.5366 6.01157 14.525 5 13.2866 5V8ZM12.5366 7.25C12.5366 6.84464 12.8652 6.5 13.2866 6.5V9.5C14.5481 9.5 15.5366 8.47536 15.5366 7.25H12.5366Z" fill="#FB5581" mask="url(#path-9-inside-4_5136_834)"/>
</g>
</g>
</g>
</g>
</svg>
