<svg width="25" height="24" viewBox="0 0 25 24" fill="none" xmlns="http://www.w3.org/2000/svg">
<g id="vuesax/bulk/document-text">
<g id="document-text">
<path id="Vector" opacity="0.4" d="M17.9401 10.94H20.8301C20.9659 10.94 21.0801 11.0542 21.0801 11.19V16.43C21.0801 18.031 20.5271 19.2176 19.6866 20.0071C18.8387 20.8035 17.6394 21.25 16.2601 21.25H8.40008C7.02075 21.25 5.82147 20.8035 4.97353 20.0071C4.13301 19.2176 3.58008 18.031 3.58008 16.43V7.57C3.58008 5.96898 4.13301 4.78236 4.97353 3.99294C5.82147 3.19655 7.02075 2.75 8.40008 2.75H12.6401C12.7759 2.75 12.8901 2.86421 12.8901 3V5.89C12.8901 8.67421 15.1559 10.94 17.9401 10.94Z" fill="#04AF55" stroke="#04AF55" stroke-width="1.5"/>
<path id="Vector_2" d="M17.7681 8.06003L17.7681 8.05999H17.7603C16.6446 8.05999 15.7603 7.16615 15.7603 6.13999V2.90076C16.7539 3.89574 18.1645 5.31919 19.408 6.57402C19.9503 7.12125 20.4608 7.63642 20.8911 8.06999C19.8249 8.06993 18.6392 8.0692 17.7681 8.06003ZM21.1603 8.81999C21.7303 8.81999 22.0303 8.14999 21.6303 7.74999C21.1625 7.27896 20.5744 6.68552 19.9428 6.04817C18.6301 4.72353 17.1295 3.20922 16.1303 2.20999C15.7203 1.79999 15.0103 2.07999 15.0103 2.64999V6.13999C15.0103 7.59999 16.2503 8.80999 17.7603 8.80999C18.7102 8.81999 20.03 8.81999 21.1599 8.81999H21.1603Z" fill="#04AF55" stroke="#04AF55" stroke-width="1.5"/>
<g id="Vector_3">
<mask id="path-3-inside-1_5136_5801" fill="white">
<path d="M13.8301 13.75H7.83008C7.42008 13.75 7.08008 13.41 7.08008 13C7.08008 12.59 7.42008 12.25 7.83008 12.25H13.8301C14.2401 12.25 14.5801 12.59 14.5801 13C14.5801 13.41 14.2401 13.75 13.8301 13.75Z"/>
</mask>
<path d="M13.8301 13.75H7.83008C7.42008 13.75 7.08008 13.41 7.08008 13C7.08008 12.59 7.42008 12.25 7.83008 12.25H13.8301C14.2401 12.25 14.5801 12.59 14.5801 13C14.5801 13.41 14.2401 13.75 13.8301 13.75Z" fill="#04AF55"/>
<path d="M13.8301 12.25H7.83008V15.25H13.8301V12.25ZM7.83008 12.25C8.24851 12.25 8.58008 12.5816 8.58008 13H5.58008C5.58008 14.2384 6.59165 15.25 7.83008 15.25V12.25ZM8.58008 13C8.58008 13.4184 8.24851 13.75 7.83008 13.75V10.75C6.59165 10.75 5.58008 11.7616 5.58008 13H8.58008ZM7.83008 13.75H13.8301V10.75H7.83008V13.75ZM13.8301 13.75C13.4117 13.75 13.0801 13.4184 13.0801 13H16.0801C16.0801 11.7616 15.0685 10.75 13.8301 10.75V13.75ZM13.0801 13C13.0801 12.5816 13.4117 12.25 13.8301 12.25V15.25C15.0685 15.25 16.0801 14.2384 16.0801 13H13.0801Z" fill="#04AF55" mask="url(#path-3-inside-1_5136_5801)"/>
</g>
<g id="Vector_4">
<mask id="path-5-inside-2_5136_5801" fill="white">
<path d="M11.8301 17.75H7.83008C7.42008 17.75 7.08008 17.41 7.08008 17C7.08008 16.59 7.42008 16.25 7.83008 16.25H11.8301C12.2401 16.25 12.5801 16.59 12.5801 17C12.5801 17.41 12.2401 17.75 11.8301 17.75Z"/>
</mask>
<path d="M11.8301 17.75H7.83008C7.42008 17.75 7.08008 17.41 7.08008 17C7.08008 16.59 7.42008 16.25 7.83008 16.25H11.8301C12.2401 16.25 12.5801 16.59 12.5801 17C12.5801 17.41 12.2401 17.75 11.8301 17.75Z" fill="#04AF55"/>
<path d="M11.8301 16.25H7.83008V19.25H11.8301V16.25ZM7.83008 16.25C8.24851 16.25 8.58008 16.5816 8.58008 17H5.58008C5.58008 18.2384 6.59165 19.25 7.83008 19.25V16.25ZM8.58008 17C8.58008 17.4184 8.24851 17.75 7.83008 17.75V14.75C6.59165 14.75 5.58008 15.7616 5.58008 17H8.58008ZM7.83008 17.75H11.8301V14.75H7.83008V17.75ZM11.8301 17.75C11.4117 17.75 11.0801 17.4184 11.0801 17H14.0801C14.0801 15.7616 13.0685 14.75 11.8301 14.75V17.75ZM11.0801 17C11.0801 16.5816 11.4117 16.25 11.8301 16.25V19.25C13.0685 19.25 14.0801 18.2384 14.0801 17H11.0801Z" fill="#04AF55" mask="url(#path-5-inside-2_5136_5801)"/>
</g>
</g>
</g>
</svg>
