<svg width="20" height="20" viewBox="0 0 20 20" fill="none" xmlns="http://www.w3.org/2000/svg">
<path d="M9.16669 1.66699H7.50002C3.33335 1.66699 1.66669 3.33366 1.66669 7.50033V12.5003C1.66669 16.667 3.33335 18.3337 7.50002 18.3337H12.5C16.6667 18.3337 18.3334 16.667 18.3334 12.5003V10.8337" stroke="#000833" stroke-width="1.5" stroke-linecap="round" stroke-linejoin="round"/>
<path d="M13.3667 2.51639L6.80002 9.08306C6.55002 9.33306 6.30002 9.82472 6.25002 10.1831L5.89169 12.6914C5.75835 13.5997 6.40002 14.2331 7.30835 14.1081L9.81669 13.7497C10.1667 13.6997 10.6584 13.4497 10.9167 13.1997L17.4834 6.63306C18.6167 5.49972 19.15 4.18306 17.4834 2.51639C15.8167 0.849722 14.5 1.38306 13.3667 2.51639Z" stroke="#000833" stroke-width="1.5" stroke-miterlimit="10" stroke-linecap="round" stroke-linejoin="round"/>
<path d="M12.425 3.45801C12.9833 5.44967 14.5417 7.00801 16.5417 7.57467" stroke="#292D32" stroke-width="1.5" stroke-miterlimit="10" stroke-linecap="round" stroke-linejoin="round"/>
</svg>
