<svg width="21" height="21" viewBox="0 0 21 21" fill="none" xmlns="http://www.w3.org/2000/svg">
<path d="M9.66663 2.16666H7.99996C3.83329 2.16666 2.16663 3.83332 2.16663 7.99999V13C2.16663 17.1667 3.83329 18.8333 7.99996 18.8333H13C17.1666 18.8333 18.8333 17.1667 18.8333 13V11.3333" stroke="#000833" stroke-width="1.5" stroke-linecap="round" stroke-linejoin="round"/>
<path d="M13.8667 3.01666L7.30002 9.58333C7.05002 9.83333 6.80002 10.325 6.75002 10.6833L6.39169 13.1917C6.25835 14.1 6.90002 14.7333 7.80835 14.6083L10.3167 14.25C10.6667 14.2 11.1584 13.95 11.4167 13.7L17.9834 7.13333C19.1167 6 19.65 4.68333 17.9834 3.01666C16.3167 1.35 15 1.88333 13.8667 3.01666Z" stroke="#000833" stroke-width="1.5" stroke-miterlimit="10" stroke-linecap="round" stroke-linejoin="round"/>
<path d="M12.925 3.95834C13.4834 5.95001 15.0417 7.50834 17.0417 8.07501" stroke="#292D32" stroke-width="1.5" stroke-miterlimit="10" stroke-linecap="round" stroke-linejoin="round"/>
</svg>
