<svg width="48" height="49" viewBox="0 0 48 49" fill="none" xmlns="http://www.w3.org/2000/svg">
<g id="fi_4151012" clip-path="url(#clip0_8018_26425)">
<g id="Group">
<path id="Vector" d="M12.9378 48.4998H0.000366211V43.1561C0.000366211 42.7936 0.294179 42.4998 0.656616 42.4998H12.9378V48.4998Z" fill="#FFF292"/>
<path id="Vector_2" d="M1.93175 42.4995V48.5H0.00012207V43.1558C0.00012207 42.7934 0.293935 42.4995 0.656372 42.4995H1.93175Z" fill="#F9E77D"/>
<path id="Vector_3" d="M24.9377 48.4998H12.0002V37.1562C12.0002 36.7937 12.2941 36.4999 12.6565 36.4999H24.9377V48.4998Z" fill="#AEE69C"/>
<path id="Vector_4" d="M13.9317 36.5V48.5H12.0001V37.1562C12.0001 36.7938 12.2939 36.5 12.6564 36.5H13.9317Z" fill="#89DAA4"/>
<path id="Vector_5" d="M36.9375 48.4998H24.0001V31.1562C24.0001 30.7937 24.2939 30.4999 24.6564 30.4999H36.9375V48.4998Z" fill="#9BD8F9"/>
<path id="Vector_6" d="M25.9317 30.4995V48.5H24.0001V31.1558C24.0001 30.7934 24.2939 30.4995 24.6564 30.4995H25.9317Z" fill="#73C3F9"/>
<path id="Vector_7" d="M22.2263 15.5001H32.3105C32.673 15.5001 32.9668 15.2063 32.9668 14.8438V6.50018H22.2263C21.7022 6.50018 21.3895 7.08434 21.6803 7.52046L24.0001 11.0002L21.6803 14.4799C21.3895 14.9159 21.7022 15.5001 22.2263 15.5001Z" fill="#F25A74"/>
<path id="Vector_8" d="M25.9318 11.0001L22.9321 15.4997H22.2267C21.7025 15.4997 21.3899 14.9156 21.6807 14.4794L24.0003 11.0001L21.6807 7.52074C21.39 7.08461 21.7025 6.50046 22.2267 6.50046H22.9321L25.9318 11.0001Z" fill="#E83D5A"/>
<path id="Vector_9" d="M30.6564 12.5001H41.4375V3.50018H30.6564C30.2939 3.50018 30.0001 3.794 30.0001 4.15643V11.8438C30.0001 12.2063 30.2939 12.5001 30.6564 12.5001Z" fill="#F25A74"/>
<path id="Vector_10" d="M31.9313 3.49973V12.5H30.6559C30.2934 12.5 29.9996 12.2062 29.9996 11.8438V4.15598C29.9996 3.79354 30.2934 3.49973 30.6559 3.49973H31.9313Z" fill="#E83D5A"/>
<path id="Vector_11" d="M43.4999 25.4452H40.4999V1.15643C40.4999 0.793996 40.7937 0.500183 41.1561 0.500183H42.8436C43.2061 0.500183 43.4999 0.793996 43.4999 1.15643V25.4452Z" fill="#46778C"/>
<path id="Vector_12" d="M41.9485 0.5V25.4452H40.4998V1.15625C40.4998 0.793813 40.7936 0.5 41.156 0.5H41.9485Z" fill="#3A6684"/>
<path id="Vector_13" d="M47.9999 48.4998H36V25.1562C36 24.7938 36.2938 24.5 36.6562 24.5H47.3437C47.7061 24.5 47.9999 24.7938 47.9999 25.1562V48.4998Z" fill="#F9D264"/>
<path id="Vector_14" d="M37.9317 24.5V48.5H36.0001V25.1562C36.0001 24.7938 36.2939 24.5 36.6564 24.5H37.9317Z" fill="#EFC356"/>
</g>
</g>
<defs>
<clipPath id="clip0_8018_26425">
<rect width="48" height="48" fill="white" transform="translate(0 0.5)"/>
</clipPath>
</defs>
</svg>
