<svg width="48" height="49" viewBox="0 0 48 49" fill="none" xmlns="http://www.w3.org/2000/svg">
<g id="fi_587874" clip-path="url(#clip0_8018_26403)">
<path id="Vector" d="M5.89367 35.0016L6.91772 36.0257L38.3232 4.62025L37.2991 3.59619L5.89367 35.0016Z" fill="#CD9847"/>
<path id="Vector_2" d="M22.1068 39.1216C32.7719 39.1216 41.4176 30.4759 41.4176 19.8108C41.4176 9.14574 32.7719 0.5 22.1068 0.5C11.4418 0.5 2.79602 9.14574 2.79602 19.8108C2.79602 30.4759 11.4418 39.1216 22.1068 39.1216Z" fill="#55BFD9"/>
<path id="Vector_3" d="M35.7611 6.15604C34.8979 5.29289 33.9727 4.52967 33.0008 3.86404C38.1501 11.3833 37.387 21.7352 30.7088 28.4134C24.0306 35.0916 13.6788 35.8546 6.15942 30.7053C6.82496 31.6772 7.58827 32.6024 8.45142 33.4656C15.9928 41.0069 28.2197 41.0069 35.7611 33.4656C43.3024 25.9243 43.3024 13.6974 35.7611 6.15604Z" fill="#1F9FC4"/>
<path id="Vector_4" opacity="0.2" d="M41.3114 17.7982C41.243 17.1407 41.1407 16.4864 41.0049 15.8374L39.7086 14.5411C39.4908 12.7331 38.9867 10.9317 38.33 9.33199C36.874 7.08255 34.9384 5.12037 32.6359 3.6198C31.1647 3.00949 29.3534 2.44699 27.376 2.20859L26.0796 0.912304C25.4307 0.776554 24.7763 0.674366 24.1191 0.605835C24.064 1.05705 24.3201 1.20105 25.1908 2.0718C22.9983 2.06037 20.8461 2.42702 18.769 3.16005L16.8391 1.23012C16.3449 1.36971 15.8552 1.5289 15.3713 1.70862C15.4446 1.91787 15.3714 1.8108 17.3042 3.74346C15.1168 4.71837 13.054 6.10943 11.1732 7.88768L8.9564 5.67096C8.78615 5.82949 8.6173 5.99027 8.45156 6.15602C8.27427 6.3333 8.10252 6.51405 7.93359 6.6963L10.1501 8.91284C8.38771 10.7843 7.0079 12.835 6.03909 15.0086C4.11487 13.0844 4.21743 13.1503 4.00424 13.0757C3.82452 13.5596 3.66534 14.0494 3.52574 14.5436L5.45568 16.4735C4.72321 18.5488 4.35599 20.7011 4.36734 22.8952C3.46105 21.9889 3.34349 21.7691 2.90137 21.8226C2.9698 22.4803 3.07209 23.135 3.20793 23.7841L4.50421 25.0804C4.7444 27.0733 5.31927 28.8992 5.93943 30.3774C6.65502 31.4696 7.49193 32.5058 8.45184 33.4656C9.43237 34.4461 10.4926 35.298 11.6109 36.0235C13.2839 36.728 15.0451 37.1974 16.8374 37.4134C17.3969 37.9729 17.8097 38.3921 18.1217 38.707C18.7747 38.844 19.4334 38.9471 20.0952 39.016C20.1527 38.5784 19.9238 38.4516 19.0227 37.5504C21.1973 37.5632 23.362 37.1964 25.444 36.4616C26.4472 37.4649 27.0152 38.0504 27.3676 38.3934C27.8646 38.2532 28.3569 38.0932 28.8436 37.9124C28.7707 37.7063 28.8397 37.8091 26.909 35.8783C29.0826 34.9094 31.1334 33.5295 33.0048 31.7672L35.2213 33.9836C35.4036 33.8148 35.5843 33.6432 35.7616 33.4658C35.9273 33.3 36.0882 33.1311 36.2467 32.9609L34.0299 30.7441C35.8082 28.8632 37.1992 26.8004 38.1741 24.6131C39.6186 26.0578 39.9506 26.4475 40.2073 26.5508C40.3878 26.0653 40.5474 25.574 40.6876 25.0782L38.7576 23.1483C39.4901 21.0729 39.8573 18.9207 39.846 16.7265C40.7809 17.6617 40.8722 17.8504 41.3114 17.7982ZM36.4807 8.79049C37.094 10.02 37.5801 11.3411 37.9114 12.744L36.2731 11.1056C36.362 10.4292 36.4393 9.65927 36.4807 8.79049ZM35.0591 6.85821C35.0793 7.84859 35.0453 8.8278 34.9612 9.7938L32.1237 6.95618C33.0895 6.87209 34.0688 6.83805 35.0591 6.85821ZM27.2269 13.6661L22.0894 18.8036L16.976 13.6902C18.7936 11.9707 20.8315 10.5587 23.0332 9.47224L27.2269 13.6661ZM24.4405 8.83165C26.3002 8.05409 28.262 7.49796 30.2965 7.17762L32.006 8.88705L28.2509 12.6421L24.4405 8.83165ZM21.0651 19.8279L15.9617 24.9312L11.768 20.7375C12.8474 18.5501 14.2487 16.5245 15.9531 14.7159L21.0651 19.8279ZM14.9376 25.9555L11.1825 29.7106L9.47287 28.001C9.7933 25.9665 10.3495 24.0047 11.127 22.1451L14.9376 25.9555ZM15.9617 26.9796L19.7719 30.7898C17.9121 31.5672 15.9503 32.1233 13.9158 32.4438L12.2066 30.7346L15.9617 26.9796ZM16.9858 25.9555L22.0893 20.852L27.2014 25.9641C25.3927 27.6685 23.3669 29.0696 21.1794 30.149L16.9858 25.9555ZM23.1134 19.8279L28.2509 14.6904L32.4446 18.8841C31.3581 21.0858 29.9461 23.1236 28.2266 24.9412L23.1134 19.8279ZM29.2751 13.6661L33.0302 9.91099L34.7398 11.6206C34.4194 13.6551 33.8631 15.6169 33.0857 17.4765L29.2751 13.6661ZM33.128 5.4364C32.4537 5.46818 31.6273 5.5368 30.8112 5.64387L29.1736 4.00615C30.5642 4.33437 31.8931 4.82027 33.128 5.4364ZM26.7218 3.60274L29.0522 5.93308C27.1105 6.31793 25.2093 6.91071 23.3452 7.73627L19.9128 4.3038C22.0953 3.63115 24.3884 3.38402 26.7218 3.60274ZM18.4048 4.84408L21.9599 8.39918C19.7664 9.5283 17.7544 10.9546 15.9513 12.6657L12.1977 8.91227C14.1807 7.04187 16.2788 5.71352 18.4048 4.84408ZM11.1743 9.93705L14.9282 13.6909C13.2319 15.4851 11.8165 17.485 10.6947 19.6643L7.13924 16.1088C8.00352 13.9956 9.32156 11.9097 11.1743 9.93705ZM7.73193 30.8323C7.11552 29.5969 6.62859 28.2678 6.30037 26.8766L7.93959 28.5159C7.83543 29.3092 7.76605 30.116 7.73193 30.8323ZM8.22871 26.7568L5.89837 24.4265C5.69174 22.2218 5.89012 19.9154 6.59868 17.6168L10.0317 21.0499C9.22274 22.8761 8.61834 24.7869 8.22871 26.7568ZM9.15355 32.7634C9.1334 31.773 9.16734 30.7938 9.25143 29.8278L12.0889 32.6652C11.123 32.7494 10.1438 32.7834 9.15355 32.7634ZM11.086 34.1851C11.8865 34.1469 12.7019 34.0702 13.4021 33.9784L15.0397 35.6159C13.7176 35.3037 12.3925 34.8366 11.086 34.1851ZM17.4906 36.0186L15.1607 33.6887C17.1359 33.295 19.0257 32.701 20.8674 31.8852L24.2997 35.3175C22.0967 35.9978 19.7911 36.235 17.4906 36.0186ZM25.8079 34.7775L22.2529 31.2225C24.4322 30.1007 26.4321 28.6854 28.2262 26.989L31.9798 30.7426C30.0085 32.5924 27.9356 33.908 25.8079 34.7775ZM33.005 29.7194L29.2514 25.9659C30.9625 24.1627 32.3887 22.1507 33.5179 19.9573L37.0729 23.5123C36.1147 25.8521 34.7168 27.9041 33.005 29.7194ZM37.6131 22.0042L34.1809 18.5718C34.9926 16.7395 35.5929 14.8417 35.9841 12.8649L38.3142 15.195C38.5242 17.4366 38.3135 19.7308 37.6131 22.0042Z" fill="#FFF9EB"/>
<g id="Group">
<path id="Vector_5" d="M31.6045 27.4558L15.4294 34C14.514 34.9369 14.065 36.1617 14.0855 37.3813C21.208 40.6317 29.8998 39.3269 35.7614 33.4654C36.0728 33.154 36.3702 32.8338 36.6559 32.507L31.6045 27.4558Z" fill="#89B434"/>
<path id="Vector_6" d="M38.1635 9.07907L37.2942 9.94841C36.8204 10.4221 36.4191 10.9543 36.0928 11.5262L36.1011 17.9406C36.1825 18.0382 36.268 18.133 36.3587 18.2236C37.0092 18.874 37.0092 19.9286 36.3587 20.5792C36.0666 20.8712 35.6929 21.0311 35.3109 21.0608L34.1318 23.7817C34.1424 23.7919 34.1535 23.8018 34.1639 23.8122L39.1851 28.8333C42.4688 22.622 42.1281 14.9971 38.1635 9.07907Z" fill="#89B434"/>
</g>
<g id="Group_2">
<path id="Vector_7" d="M24.1423 22.0696C22.8131 22.0696 21.5384 22.5976 20.5986 23.5375L19.2092 24.9269C18.0114 26.1247 17.3385 27.7492 17.3385 29.4432C17.3385 31.1372 16.6656 32.7617 15.4679 33.9595C15.4546 33.9728 15.4424 33.9866 15.4293 34.0001C20.8979 34.4595 26.5244 32.598 30.7089 28.4134C31.0202 28.1021 31.3187 27.7827 31.6044 27.4559L27.6859 23.5374C26.7461 22.5975 25.4714 22.0696 24.1423 22.0696Z" fill="#AFD15F"/>
<path id="Vector_8" d="M29.2523 1.86679C23.1449 -0.561988 16.0492 0.248575 10.6022 4.29895V10.9239C10.6022 12.0048 9.72598 12.881 8.64505 12.881H4.07773C2.7583 16.3194 2.45811 20.0586 3.17689 23.6342H5.12455C7.21105 23.6341 9.21214 22.8053 10.6875 21.33C12.1628 19.8546 12.9918 17.8535 12.9918 15.767V14.4294C12.9918 13.6567 13.2987 12.9155 13.8452 12.369C14.3916 11.8226 15.1327 11.5156 15.9055 11.5156H21.489C22.5778 11.5155 23.4605 12.3982 23.4605 13.4871C23.4605 14.0462 23.2384 14.5825 22.843 14.9779C22.2476 15.5733 22.2476 16.5389 22.843 17.1343C23.4384 17.7297 24.404 17.7297 24.9994 17.1343L27.5556 14.578C28.6421 13.4915 29.2525 12.018 29.2525 10.4815L29.2523 1.86679Z" fill="#AFD15F"/>
<path id="Vector_9" d="M34.0031 20.5789L32.3328 18.9086C31.9706 18.5464 31.4795 18.3431 30.9673 18.343H30.2845C29.218 18.343 28.3534 19.2076 28.3534 20.2741V20.466C28.3534 20.8552 28.5081 21.2284 28.7832 21.5037L29.4705 22.1911C29.848 22.5686 30.3602 22.7806 30.8941 22.7806H31.6742C32.5931 22.7806 33.4746 23.1405 34.1317 23.7813C34.5977 22.8998 34.9907 21.99 35.3108 21.0604C34.8424 21.097 34.3615 20.9372 34.0031 20.5789Z" fill="#AFD15F"/>
<path id="Vector_10" d="M36.0928 11.5261C35.4571 12.6407 35.1125 13.9098 35.1124 15.2154C35.1124 16.2155 35.4652 17.1788 36.1008 17.9405C36.4535 15.8179 36.4513 13.648 36.0928 11.5261Z" fill="#AFD15F"/>
</g>
<g id="Group_3">
<path id="Vector_11" d="M22.2675 42.9728C16.1456 42.9729 10.3868 40.5857 6.05217 36.2512L4.82114 35.0203C4.5383 34.7373 4.5383 34.2789 4.82114 33.9962C5.10399 33.7133 5.56252 33.7134 5.84517 33.9961L7.0762 35.2271C11.1374 39.2882 16.5323 41.5247 22.2675 41.5246C28.0024 41.5246 33.3974 39.2881 37.4582 35.2271C41.5193 31.1661 43.7558 25.7712 43.7557 20.0359C43.7556 14.301 41.5191 8.90611 37.4582 4.84533L36.2272 3.61411C35.9444 3.33126 35.9444 2.87273 36.2272 2.59008C36.5101 2.30723 36.9686 2.30733 37.2512 2.59017L38.4824 3.8212C42.8168 8.15564 45.2039 13.914 45.204 20.036C45.2041 26.158 42.817 31.9168 38.4824 36.2513C34.1479 40.5855 28.3893 42.9728 22.2675 42.9728Z" fill="#C37800"/>
<path id="Vector_12" d="M31.7616 45.7356C31.7616 45.0269 31.5602 44.3656 31.2122 43.8046C30.5652 42.7615 29.4103 42.0666 28.0926 42.0666H16.1199C14.8023 42.0666 13.6474 42.7615 13.0004 43.8046C12.6524 44.3656 12.4509 45.027 12.4509 45.7356V47.0518H31.7617V45.7356H31.7616Z" fill="#C37800"/>
</g>
<path id="Vector_13" d="M31.2123 43.8044C30.5653 42.7614 29.4104 42.0665 28.0928 42.0665H25.9203C27.2379 42.0665 28.3928 42.7614 29.0398 43.8044C29.3878 44.3654 29.5893 45.0268 29.5893 45.7355V47.0517H31.7618V45.7355C31.7618 45.0268 31.5603 44.3654 31.2123 43.8044Z" fill="#AC6A00"/>
<path id="Vector_14" d="M8.02759 47.0516C8.02759 46.2518 8.67606 45.6033 9.47593 45.6033H34.7369C35.5367 45.6033 36.1852 46.2518 36.1852 47.0516V48.5H8.02759V47.0516Z" fill="#965C00"/>
</g>
<defs>
<clipPath id="clip0_8018_26403">
<rect width="48" height="48" fill="white" transform="translate(0 0.5)"/>
</clipPath>
</defs>
</svg>
