<svg width="24" height="25" viewBox="0 0 24 25" fill="none" xmlns="http://www.w3.org/2000/svg">
<path d="M14 5.25C14 4.15 13.1 3.25 12 3.25C10.9 3.25 10 4.15 10 5.25C10 6.35 10.9 7.25 12 7.25C13.1 7.25 14 6.35 14 5.25Z" fill="#000833"/>
<path d="M14 19.25C14 18.15 13.1 17.25 12 17.25C10.9 17.25 10 18.15 10 19.25C10 20.35 10.9 21.25 12 21.25C13.1 21.25 14 20.35 14 19.25Z" fill="#000833"/>
<path d="M14 12.25C14 11.15 13.1 10.25 12 10.25C10.9 10.25 10 11.15 10 12.25C10 13.35 10.9 14.25 12 14.25C13.1 14.25 14 13.35 14 12.25Z" fill="#000833"/>
</svg>
