<svg width="20" height="20" viewBox="0 0 20 20" fill="none" xmlns="http://www.w3.org/2000/svg">
<path d="M15.4166 16.25H12.0833" stroke="#616C82" stroke-width="1.5" stroke-linecap="round" stroke-linejoin="round"/>
<path d="M13.75 17.9167V14.5834" stroke="#616C82" stroke-width="1.5" stroke-linecap="round" stroke-linejoin="round"/>
<path d="M10.1334 9.05829C10.05 9.04996 9.95002 9.04996 9.85835 9.05829C7.87502 8.99163 6.30002 7.36663 6.30002 5.36663C6.29169 3.32496 7.95002 1.66663 9.99169 1.66663C12.0334 1.66663 13.6917 3.32496 13.6917 5.36663C13.6917 7.36663 12.1084 8.99163 10.1334 9.05829Z" stroke="#616C82" stroke-width="1.5" stroke-linecap="round" stroke-linejoin="round"/>
<path d="M9.99164 18.1749C8.47497 18.1749 6.96664 17.7916 5.81664 17.0249C3.79997 15.6749 3.79997 13.4749 5.81664 12.1333C8.1083 10.5999 11.8666 10.5999 14.1583 12.1333" stroke="#616C82" stroke-width="1.5" stroke-linecap="round" stroke-linejoin="round"/>
</svg>
