<svg width="25" height="24" viewBox="0 0 25 24" fill="none" xmlns="http://www.w3.org/2000/svg">
<g id="vuesax/bulk/key">
<g id="key">
<path id="Vector" opacity="0.4" d="M9.9514 4.75292L9.95139 4.75291C8.08983 6.59648 7.52829 9.25233 8.25048 11.5994L8.38327 12.031L8.06397 12.3503L3.36897 17.0453C3.3033 17.1144 3.21432 17.2572 3.15015 17.4497C3.08488 17.6455 3.07255 17.811 3.08579 17.9018L3.08666 17.9078L3.08664 17.9078L3.38574 20.0812C3.41383 20.2571 3.51906 20.4652 3.69644 20.6434C3.87519 20.823 4.07846 20.9235 4.24589 20.947L9.9514 4.75292ZM9.9514 4.75292L9.95487 4.74944C12.6006 2.09471 16.9253 2.09194 19.5937 4.75068C22.2502 7.40765 22.2503 11.7421 19.5938 14.3992L9.9514 4.75292ZM11.5836 9.50001C11.5836 11.2942 13.0394 12.75 14.8336 12.75C16.6279 12.75 18.0836 11.2942 18.0836 9.50001C18.0836 7.70579 16.6279 6.25001 14.8336 6.25001C13.0394 6.25001 11.5836 7.70579 11.5836 9.50001Z" fill="#D93400" stroke="#D93400" stroke-width="1.5"/>
<path id="Vector_2" d="M16.5835 9.5C16.5835 10.4665 15.8 11.25 14.8335 11.25C13.867 11.25 13.0835 10.4665 13.0835 9.5C13.0835 8.5335 13.867 7.75 14.8335 7.75C15.8 7.75 16.5835 8.5335 16.5835 9.5Z" fill="#D93400" stroke="#D93400" stroke-width="1.5"/>
</g>
</g>
</svg>
