<svg width="166" height="55" viewBox="0 0 166 55" fill="none" xmlns="http://www.w3.org/2000/svg">
<path d="M76.5012 41.7926C77.5302 41.7926 78.4896 41.6278 79.3758 41.3001C80.262 40.9724 81.0694 40.5219 81.8 39.9488C82.5287 39.3776 83.1586 38.6983 83.6877 37.911C84.2169 37.1255 84.6105 36.2741 84.8669 35.3586H87.0109C86.7528 36.589 86.295 37.7261 85.6377 38.7697C84.9786 39.8134 84.1931 40.7215 83.2776 41.4942C82.3621 42.2669 81.3258 42.8674 80.1686 43.2959C79.0114 43.7243 77.7883 43.9385 76.5012 43.9385C74.9851 43.9385 73.5771 43.6602 72.2753 43.1018C70.9735 42.5433 69.8438 41.7871 68.8862 40.8277C67.9286 39.8701 67.1706 38.7404 66.6121 37.4386C66.0555 36.1368 65.7754 34.7288 65.7754 33.2127C65.7754 31.6967 66.0537 30.3253 66.6121 29.0088C67.1706 27.6942 67.9268 26.5572 68.8862 25.5977C69.8438 24.6402 70.9735 23.8821 72.2753 23.3237C73.5753 22.7652 74.9833 22.4869 76.5012 22.4869C77.7883 22.4869 79.0114 22.7012 80.1686 23.1296C81.3258 23.5581 82.3621 24.1586 83.2776 24.9313C84.1931 25.7039 84.9786 26.6121 85.6377 27.6558C86.295 28.6994 86.7528 29.8364 87.0109 31.0668H84.8669C84.6087 30.1514 84.2169 29.3018 83.6877 28.5145C83.1586 27.729 82.5305 27.0497 81.8 26.4766C81.0713 25.9053 80.262 25.4549 79.3758 25.1254C78.4896 24.7976 77.5302 24.6328 76.5012 24.6328C75.3275 24.6328 74.2198 24.8617 73.1762 25.3194C72.1325 25.7772 71.2243 26.3924 70.4517 27.1632C69.679 27.9359 69.0656 28.844 68.6079 29.8877C68.1502 30.9313 67.9213 32.0409 67.9213 33.2127C67.9213 34.3845 68.1502 35.4941 68.6079 36.5378C69.0656 37.5814 69.679 38.4896 70.4517 39.2622C71.2243 40.0349 72.1325 40.6501 73.1762 41.106C74.2198 41.5638 75.3275 41.7926 76.5012 41.7926Z" fill="#000833"/>
<path d="M119.613 22.4887C121.1 22.4887 122.5 22.767 123.817 23.3255C125.132 23.8839 126.269 24.6419 127.226 25.5995C128.184 26.5571 128.942 27.6941 129.5 29.0106C130.057 30.3271 130.337 31.7278 130.337 33.2145V43.9385H128.193V33.2145C128.193 32.0427 127.964 30.9349 127.506 29.8895C127.049 28.8458 126.433 27.9377 125.661 27.165C124.888 26.3923 123.98 25.779 122.936 25.3212C121.893 24.8635 120.785 24.6346 119.611 24.6346C118.438 24.6346 117.33 24.8635 116.286 25.3212C115.243 25.779 114.334 26.3942 113.562 27.165C112.789 27.9377 112.176 28.8458 111.718 29.8895C111.26 30.9331 111.031 32.0427 111.031 33.2145V43.9385H108.887V33.2145C108.887 32.0427 108.658 30.9349 108.201 29.8895C107.743 28.8458 107.13 27.9377 106.357 27.165C105.584 26.3923 104.676 25.779 103.632 25.3212C102.589 24.8635 101.481 24.6346 100.307 24.6346C99.1337 24.6346 98.026 24.8635 96.9823 25.3212C95.9387 25.779 95.0305 26.3942 94.2578 27.165C93.4852 27.9377 92.8718 28.8458 92.414 29.8895C91.9563 30.9331 91.7274 32.0427 91.7274 33.2145V43.9385H89.5834V33.2145C89.5834 31.7278 89.869 30.3271 90.4421 29.0106C91.0134 27.696 91.7933 26.5589 92.7802 25.5995C93.7671 24.6419 94.9042 23.8839 96.1913 23.3255C97.4785 22.767 98.8499 22.4887 100.309 22.4887C101.367 22.4887 102.389 22.6388 103.376 22.9391C104.363 23.2394 105.269 23.6624 106.101 24.2043C106.93 24.7481 107.673 25.3835 108.331 26.114C108.988 26.8427 109.532 27.6374 109.96 28.4943C110.39 27.6356 110.94 26.8427 111.612 26.114C112.284 25.3853 113.042 24.7481 113.886 24.2043C114.73 23.6605 115.638 23.2394 116.61 22.9391C117.582 22.6388 118.584 22.4887 119.613 22.4887Z" fill="#000833"/>
<path d="M135.66 16.9621C135.66 15.9873 134.869 15.197 133.895 15.197C132.92 15.197 132.13 15.9873 132.13 16.9621C132.13 17.9369 132.92 18.7271 133.895 18.7271C134.869 18.7271 135.66 17.9369 135.66 16.9621Z" fill="#000833"/>
<path d="M135.085 22.3734H132.974V43.9024H135.085V22.3734Z" fill="#000833"/>
<path d="M148.354 22.4887C149.841 22.4887 151.241 22.767 152.558 23.3255C153.872 23.8839 155.009 24.6419 155.969 25.5995C156.926 26.5571 157.684 27.6941 158.243 29.0106C158.799 30.3271 159.08 31.7278 159.08 33.2145C159.08 34.7013 158.801 36.1386 158.243 37.4404C157.684 38.7422 156.926 39.8719 155.969 40.8295C155.009 41.7871 153.874 42.5451 152.558 43.1036C151.241 43.662 149.841 43.9403 148.354 43.9403C146.867 43.9403 145.43 43.662 144.128 43.1036C142.826 42.5451 141.696 41.7889 140.739 40.8295C139.781 39.8719 139.023 38.7422 138.465 37.4404C137.908 36.1386 137.628 34.7305 137.628 33.2145V15.197H139.772V26.7805C140.744 25.4933 141.988 24.457 143.504 23.6697C145.02 22.8842 146.635 22.4906 148.352 22.4906L148.354 22.4887ZM148.354 41.7926C149.526 41.7926 150.633 41.5637 151.679 41.106C152.723 40.6482 153.631 40.033 154.403 39.2622C155.176 38.4895 155.789 37.5832 156.247 36.5377C156.705 35.4941 156.934 34.3863 156.934 33.2127C156.934 32.039 156.705 30.9331 156.247 29.8876C155.789 28.844 155.176 27.9358 154.403 27.1632C153.631 26.3905 152.723 25.7771 151.679 25.3194C150.635 24.8616 149.527 24.6328 148.354 24.6328C147.18 24.6328 146.072 24.8616 145.029 25.3194C143.985 25.7771 143.077 26.3923 142.304 27.1632C141.532 27.9358 140.918 28.844 140.461 29.8876C140.003 30.9313 139.774 32.0409 139.774 33.2127C139.774 34.3845 140.003 35.4941 140.461 36.5377C140.918 37.5814 141.532 38.4895 142.304 39.2622C143.077 40.0349 143.985 40.6501 145.029 41.106C146.072 41.5637 147.18 41.7926 148.354 41.7926Z" fill="#000833"/>
<path d="M42.3209 42.7367C41.9364 42.7514 41.5501 42.7624 41.1638 42.766C20.9481 42.9912 3.94573 28.7445 0 9.66217C2.41321 12.7235 5.98176 14.8255 10.0392 15.3144C11.3923 19.7068 16.5446 33.2651 29.9326 38.7763C29.7184 38.6482 16.7973 30.7824 12.738 15.4022C16.2773 15.199 19.4815 13.7818 21.9533 11.5645C21.9258 12.1797 21.9093 12.7968 21.9167 13.4175C22.065 26.8348 30.5112 38.2069 42.3209 42.7367Z" fill="#2ADCB2"/>
<path d="M11.9358 9.53216C9.30473 9.63652 7.08743 7.58767 6.98306 4.95658C6.8787 2.32548 8.92755 0.108182 11.5605 0.00381652C14.1916 -0.100548 16.4089 1.9483 16.5114 4.58123C16.6158 7.21233 14.5669 9.42962 11.9358 9.53216Z" fill="#2ADCB2"/>
<path d="M50.6569 42.8773C50.3914 42.8243 50.1262 42.7677 49.8614 42.7074C36.0148 39.5571 26.7288 27.0474 27.1512 13.3666C28.3496 15.9564 30.5742 18.0417 33.4329 18.9904C33.5901 21.9822 34.7388 32.1904 42.9829 38.1942C42.7397 37.9521 35.3528 30.4711 35.2402 19.421C37.5788 19.7684 39.8782 19.3145 41.8381 18.2533C41.7185 18.6691 41.606 19.0874 41.5094 19.5126C39.4177 28.7034 43.3295 37.8519 50.6569 42.8773Z" fill="#F3A01B"/>
<path d="M35.5481 15.6748C33.3101 15.6029 31.5535 13.7319 31.6236 11.4937C31.6936 9.25553 33.5664 7.49909 35.8046 7.56914C38.0426 7.64102 39.7992 9.512 39.7273 11.75C39.6573 13.9882 37.7863 15.7448 35.5481 15.6748Z" fill="#F3A01B"/>
<path d="M57.1042 43.005C56.9459 42.9371 56.7878 42.8673 56.6318 42.796C48.4403 39.036 44.3008 30.0544 46.3452 21.6119C46.7763 23.4825 47.9965 25.1502 49.8155 26.0886C49.4499 27.852 48.6016 33.7382 52.3273 38.3398C52.3273 38.3398 49.1306 32.8931 50.7961 26.5026C52.1386 26.9482 53.546 26.9444 54.8319 26.5616C54.7035 26.8035 54.5801 27.048 54.463 27.3009C51.9674 32.7369 53.206 38.9294 57.1042 43.005Z" fill="#FC2E5D"/>
<path d="M52.6059 24.2356C50.76 24.2631 49.2425 22.7901 49.215 20.9442C49.1889 19.1004 50.6619 17.5829 52.506 17.5551C54.3501 17.5273 55.8694 19.0005 55.8952 20.8462C55.923 22.6902 54.45 24.2077 52.6059 24.2356Z" fill="#FC2E5D"/>
<path d="M2.3167 54.4355C1.12289 54.4355 0.189118 53.4662 0.189118 52.2192C0.189118 50.9781 1.12289 50.0148 2.3167 50.0148C3.43368 50.0148 4.30835 50.7595 4.4561 51.8469H3.5046C3.40413 51.2382 2.93133 50.8186 2.32852 50.8186C1.6016 50.8186 1.11107 51.3918 1.11107 52.2192C1.11107 53.0525 1.6016 53.6317 2.32852 53.6317C2.93133 53.6317 3.39822 53.2062 3.5046 52.5975H4.4561C4.30835 53.6967 3.43368 54.4355 2.3167 54.4355ZM7.00407 54.4355C5.78071 54.4355 4.83512 53.4899 4.83512 52.2192C4.83512 50.9486 5.78071 50.0148 7.00407 50.0148C8.23334 50.0148 9.18484 50.9486 9.18484 52.2192C9.18484 53.4899 8.23334 54.4355 7.00407 54.4355ZM7.00407 53.6317C7.78419 53.6317 8.25698 52.9993 8.25698 52.2192C8.25698 51.4391 7.78419 50.8186 7.00407 50.8186C6.22987 50.8186 5.75707 51.4391 5.75707 52.2192C5.75707 52.9993 6.22987 53.6317 7.00407 53.6317ZM11.731 54.3468L10.6199 51.5278V54.3468H9.80437V50.1035H10.88L12.1093 53.2476L13.3444 50.1035H14.42V54.3468H13.6045V51.5041L12.4816 54.3468H11.731ZM17.2139 54.3468L16.1028 51.5278V54.3468H15.2872V50.1035H16.3628L17.5921 53.2476L18.8273 50.1035H19.9029V54.3468H19.0873V51.5041L17.9644 54.3468H17.2139ZM21.6684 54.3468H20.7701V50.1035H21.6684V54.3468ZM24.4332 54.3468H23.5349V50.9131H22.1993V50.1035H25.7748V50.9131H24.4332V54.3468ZM28.2943 54.3468H27.396V50.9131H26.0604V50.1035H29.6359V50.9131H28.2943V54.3468ZM33.0263 53.5667V54.3468H30.1718V50.1035H32.9849V50.8836H31.0701V51.776H32.8076V52.5502H31.0701V53.5667H33.0263ZM36.5757 53.5667V54.3468H33.7212V50.1035H36.5343V50.8836H34.6195V51.776H36.357V52.5502H34.6195V53.5667H36.5757ZM39.404 54.3468H38.5057V50.1035H41.2479V50.8836H39.404V51.9533H40.9583V52.7275H39.404V54.3468ZM43.7854 54.4355C42.5621 54.4355 41.6165 53.4899 41.6165 52.2192C41.6165 50.9486 42.5621 50.0148 43.7854 50.0148C45.0147 50.0148 45.9662 50.9486 45.9662 52.2192C45.9662 53.4899 45.0147 54.4355 43.7854 54.4355ZM43.7854 53.6317C44.5655 53.6317 45.0383 52.9993 45.0383 52.2192C45.0383 51.4391 44.5655 50.8186 43.7854 50.8186C43.0112 50.8186 42.5384 51.4391 42.5384 52.2192C42.5384 52.9993 43.0112 53.6317 43.7854 53.6317ZM47.484 54.3468H46.5857V50.1035H48.2464C49.3161 50.1035 49.9367 50.5999 49.9367 51.4805C49.9367 52.0537 49.5821 52.5088 48.9792 52.7097L50.0726 54.3468H49.0029L48.0455 52.8457H47.484V54.3468ZM47.484 50.8481V52.1069H48.205C48.7488 52.1069 49.0383 51.8942 49.0383 51.4805C49.0383 51.0609 48.7488 50.8481 48.205 50.8481H47.484ZM53.7932 54.3468L52.6822 51.5278V54.3468H51.8666V50.1035H52.9422L54.1715 53.2476L55.4066 50.1035H56.4822V54.3468H55.6667V51.5041L54.5438 54.3468H53.7932ZM60.2039 53.5667V54.3468H57.3494V50.1035H60.1626V50.8836H58.2477V51.776H59.9853V52.5502H58.2477V53.5667H60.2039ZM62.8255 54.3468L61.7144 51.5278V54.3468H60.8989V50.1035H61.9745L63.2037 53.2476L64.4389 50.1035H65.5145V54.3468H64.699V51.5041L63.5761 54.3468H62.8255ZM69.5554 53.0998C69.5554 53.8858 68.9762 54.3468 68.0424 54.3468H66.3817V50.1035H67.9774C68.8698 50.1035 69.4194 50.5053 69.4194 51.2323C69.4194 51.6223 69.2008 51.9355 68.8225 52.1306C69.2953 52.296 69.5554 52.6329 69.5554 53.0998ZM67.9065 50.8127H67.1973V51.7996H67.9065C68.3438 51.7996 68.5684 51.6105 68.5684 51.3032C68.5684 51.0018 68.3438 50.8127 67.9065 50.8127ZM67.9715 52.5147H67.1973V53.6376H67.9715C68.4561 53.6376 68.7103 53.4248 68.7103 53.0643C68.7103 52.7275 68.4561 52.5147 67.9715 52.5147ZM73.0627 53.5667V54.3468H70.2082V50.1035H73.0213V50.8836H71.1065V51.776H72.844V52.5502H71.1065V53.5667H73.0627ZM74.6559 54.3468H73.7576V50.1035H75.4183C76.488 50.1035 77.1086 50.5999 77.1086 51.4805C77.1086 52.0537 76.754 52.5088 76.1511 52.7097L77.2445 54.3468H76.1748L75.2174 52.8457H74.6559V54.3468ZM74.6559 50.8481V52.1069H75.3769C75.9207 52.1069 76.2102 51.8942 76.2102 51.4805C76.2102 51.0609 75.9207 50.8481 75.3769 50.8481H74.6559ZM81.0598 53.0289C81.0598 53.8385 80.4097 54.4059 79.3459 54.4059C78.2762 54.4059 77.6084 53.8326 77.5434 52.9343H78.4535C78.4771 53.4012 78.7785 53.7026 79.3282 53.7026C79.7832 53.7026 80.1083 53.5017 80.1083 53.1589C80.1083 52.893 79.9014 52.7334 79.5409 52.6625L78.8435 52.5265C78.1994 52.4024 77.7029 52.0537 77.7029 51.3505C77.7029 50.594 78.3707 50.0503 79.2868 50.0503C80.2383 50.0503 80.9357 50.6058 80.9948 51.4923H80.0846C80.0551 51.0491 79.7478 50.7476 79.2986 50.7476C78.8613 50.7476 78.6131 50.9959 78.6131 51.2914C78.6131 51.5809 78.879 51.7051 79.1863 51.7642L79.9132 51.9119C80.6579 52.0597 81.0598 52.4024 81.0598 53.0289ZM83.8556 54.3468H82.9573V50.1035H83.8556V54.3468ZM87.4892 54.3468L85.5448 51.3859V54.3468H84.7233V50.1035H85.6926L87.5424 52.9166V50.1035H88.3698V54.3468H87.4892ZM91.3758 54.3468H90.4775V50.1035H91.3758V54.3468ZM95.0094 54.3468L93.065 51.3859V54.3468H92.2435V50.1035H93.2128L95.0626 52.9166V50.1035H95.89V54.3468H95.0094ZM98.2696 54.3468H96.7626V50.1035H98.2696C99.6171 50.1035 100.433 50.9663 100.433 52.2015C100.433 53.4367 99.5875 54.3468 98.2696 54.3468ZM97.6609 50.8777V53.5726H98.2223C99.0674 53.5726 99.5107 53.0821 99.5107 52.2015C99.5107 51.3564 99.0674 50.8777 98.2223 50.8777H97.6609ZM104.537 50.1035V52.7334C104.537 53.7381 103.899 54.4355 102.794 54.4355C101.671 54.4355 101.045 53.7381 101.045 52.7334V50.1035H101.943V52.7511C101.943 53.2771 102.197 53.6317 102.794 53.6317C103.385 53.6317 103.639 53.2771 103.639 52.7511V50.1035H104.537ZM108.653 53.0289C108.653 53.8385 108.003 54.4059 106.939 54.4059C105.869 54.4059 105.202 53.8326 105.137 52.9343H106.047C106.07 53.4012 106.372 53.7026 106.921 53.7026C107.376 53.7026 107.701 53.5017 107.701 53.1589C107.701 52.893 107.495 52.7334 107.134 52.6625L106.437 52.5265C105.793 52.4024 105.296 52.0537 105.296 51.3505C105.296 50.594 105.964 50.0503 106.88 50.0503C107.832 50.0503 108.529 50.6058 108.588 51.4923H107.678C107.648 51.0491 107.341 50.7476 106.892 50.7476C106.454 50.7476 106.206 50.9959 106.206 51.2914C106.206 51.5809 106.472 51.7051 106.78 51.7642L107.506 51.9119C108.251 52.0597 108.653 52.4024 108.653 53.0289ZM111.08 54.3468H110.181V50.9131H108.846V50.1035H112.421V50.9131H111.08V54.3468ZM113.856 54.3468H112.957V50.1035H114.618C115.688 50.1035 116.308 50.5999 116.308 51.4805C116.308 52.0537 115.954 52.5088 115.351 52.7097L116.444 54.3468H115.374L114.417 52.8457H113.856V54.3468ZM113.856 50.8481V52.1069H114.577C115.12 52.1069 115.41 51.8942 115.41 51.4805C115.41 51.0609 115.12 50.8481 114.577 50.8481H113.856ZM118.885 52.7511V54.3468H117.987V52.7511L116.486 50.1035H117.455L118.465 51.9296L119.494 50.1035H120.398L118.885 52.7511ZM124.942 54.3468L124.623 53.4367H122.974L122.649 54.3468H121.744L123.34 50.1035H124.321L125.905 54.3468H124.942ZM123.807 51.0845L123.228 52.7216H124.374L123.807 51.0845ZM129.188 54.3468L127.243 51.3859V54.3468H126.422V50.1035H127.391L129.241 52.9166V50.1035H130.068V54.3468H129.188ZM132.448 54.3468H130.941V50.1035H132.448C133.795 50.1035 134.611 50.9663 134.611 52.2015C134.611 53.4367 133.766 54.3468 132.448 54.3468ZM131.839 50.8777V53.5726H132.401C133.246 53.5726 133.689 53.0821 133.689 52.2015C133.689 51.3564 133.246 50.8777 132.401 50.8777H131.839ZM139.644 53.0998C139.644 53.8858 139.064 54.3468 138.131 54.3468H136.47V50.1035H138.066C138.958 50.1035 139.508 50.5053 139.508 51.2323C139.508 51.6223 139.289 51.9355 138.911 52.1306C139.384 52.296 139.644 52.6329 139.644 53.0998ZM137.995 50.8127H137.286V51.7996H137.995C138.432 51.7996 138.657 51.6105 138.657 51.3032C138.657 51.0018 138.432 50.8127 137.995 50.8127ZM138.06 52.5147H137.286V53.6376H138.06C138.544 53.6376 138.799 53.4248 138.799 53.0643C138.799 52.7275 138.544 52.5147 138.06 52.5147ZM143.737 50.1035V52.7334C143.737 53.7381 143.099 54.4355 141.994 54.4355C140.871 54.4355 140.244 53.7381 140.244 52.7334V50.1035H141.143V52.7511C141.143 53.2771 141.397 53.6317 141.994 53.6317C142.585 53.6317 142.839 53.2771 142.839 52.7511V50.1035H143.737ZM147.853 53.0289C147.853 53.8385 147.202 54.4059 146.139 54.4059C145.069 54.4059 144.401 53.8326 144.336 52.9343H145.246C145.27 53.4012 145.571 53.7026 146.121 53.7026C146.576 53.7026 146.901 53.5017 146.901 53.1589C146.901 52.893 146.694 52.7334 146.334 52.6625L145.636 52.5265C144.992 52.4024 144.496 52.0537 144.496 51.3505C144.496 50.594 145.164 50.0503 146.08 50.0503C147.031 50.0503 147.728 50.6058 147.788 51.4923H146.877C146.848 51.0491 146.541 50.7476 146.091 50.7476C145.654 50.7476 145.406 50.9959 145.406 51.2914C145.406 51.5809 145.672 51.7051 145.979 51.7642L146.706 51.9119C147.451 52.0597 147.853 52.4024 147.853 53.0289ZM149.413 54.3468H148.515V50.1035H149.413V54.3468ZM153.047 54.3468L151.103 51.3859V54.3468H150.281V50.1035H151.25L153.1 52.9166V50.1035H153.927V54.3468H153.047ZM157.655 53.5667V54.3468H154.8V50.1035H157.613V50.8836H155.698V51.776H157.436V52.5502H155.698V53.5667H157.655ZM161.606 53.0289C161.606 53.8385 160.956 54.4059 159.892 54.4059C158.822 54.4059 158.154 53.8326 158.089 52.9343H159C159.023 53.4012 159.325 53.7026 159.874 53.7026C160.329 53.7026 160.654 53.5017 160.654 53.1589C160.654 52.893 160.448 52.7334 160.087 52.6625L159.39 52.5265C158.745 52.4024 158.249 52.0537 158.249 51.3505C158.249 50.594 158.917 50.0503 159.833 50.0503C160.784 50.0503 161.482 50.6058 161.541 51.4923H160.631C160.601 51.0491 160.294 50.7476 159.845 50.7476C159.407 50.7476 159.159 50.9959 159.159 51.2914C159.159 51.5809 159.425 51.7051 159.732 51.7642L160.459 51.9119C161.204 52.0597 161.606 52.4024 161.606 53.0289ZM165.525 53.0289C165.525 53.8385 164.875 54.4059 163.811 54.4059C162.741 54.4059 162.073 53.8326 162.008 52.9343H162.918C162.942 53.4012 163.243 53.7026 163.793 53.7026C164.248 53.7026 164.573 53.5017 164.573 53.1589C164.573 52.893 164.366 52.7334 164.006 52.6625L163.308 52.5265C162.664 52.4024 162.168 52.0537 162.168 51.3505C162.168 50.594 162.836 50.0503 163.752 50.0503C164.703 50.0503 165.401 50.6058 165.46 51.4923H164.55C164.52 51.0491 164.213 50.7476 163.764 50.7476C163.326 50.7476 163.078 50.9959 163.078 51.2914C163.078 51.5809 163.344 51.7051 163.651 51.7642L164.378 51.9119C165.123 52.0597 165.525 52.4024 165.525 53.0289Z" fill="#000833"/>
<path d="M143.372 19.8408H142.536V14.385H143.372V19.8408ZM146.932 19.9547C145.413 19.9547 144.235 18.7162 144.235 17.1053C144.235 15.502 145.413 14.2711 146.932 14.2711C148.3 14.2711 149.394 15.1829 149.599 16.5278H148.71C148.558 15.6464 147.844 15.0233 146.94 15.0233C145.861 15.0233 145.101 15.8971 145.101 17.1053C145.101 18.3287 145.861 19.2025 146.94 19.2025C147.844 19.2025 148.558 18.5718 148.71 17.6904H149.599C149.394 19.0429 148.3 19.9547 146.932 19.9547ZM153.955 19.8408L153.461 18.4882H151.105L150.604 19.8408H149.76L151.85 14.385H152.769L154.844 19.8408H153.955ZM152.291 15.2969L151.356 17.812H153.21L152.291 15.2969ZM156.431 19.8408H155.596V14.385H156.431V19.8408Z" fill="#FC2E5D"/>
</svg>
