<svg width="24" height="24" viewBox="0 0 24 24" fill="none" xmlns="http://www.w3.org/2000/svg">
<g id="vuesax/bulk/monitor">
<g id="monitor">
<path id="Vector" opacity="0.4" d="M21.22 6.41V12.16H2.75V6.41C2.75 4.39421 4.39421 2.75 6.41 2.75H17.56C19.5758 2.75 21.22 4.39421 21.22 6.41Z" fill="#4B1FAA" stroke="#4B1FAA" stroke-width="1.5"/>
<path id="Vector_2" d="M21.1889 13.67C20.9236 15.4273 19.4071 16.78 17.57 16.78H13.76C12.7958 16.78 12.01 17.5658 12.01 18.53V19.5C12.01 20.4642 12.7958 21.25 13.76 21.25H10.25C11.2142 21.25 12 20.4642 12 19.5V18.53C12 17.5658 11.2142 16.78 10.25 16.78H6.41C4.57937 16.78 3.05667 15.4328 2.79104 13.67H21.1889Z" fill="#4B1FAA" stroke="#4B1FAA" stroke-width="1.5"/>
</g>
</g>
</svg>
