<svg width="464" height="136" viewBox="0 0 464 136" fill="none" xmlns="http://www.w3.org/2000/svg">
<path fill-rule="evenodd" clip-rule="evenodd" d="M112.673 83.1082C116.794 87.187 118.859 92.5533 118.859 97.9053C118.859 103.257 116.794 108.624 112.677 112.706L112.677 112.724C108.552 116.799 103.122 118.842 97.7073 118.842C92.2923 118.842 86.8772 116.799 82.7523 112.717L82.7308 112.717L45.2925 75.6564L52.6714 68.3501L90.1133 105.414L90.1062 105.424C92.1883 107.475 94.9442 108.507 97.7073 108.507C100.47 108.507 103.219 107.471 105.294 105.417L105.305 105.428C107.376 103.367 108.419 100.64 108.419 97.9053C108.419 95.1708 107.383 92.4433 105.305 90.3826L105.294 90.3933L90.6688 75.9189L98.0514 68.6125L112.677 83.0869L112.677 83.1047L112.673 83.1082Z" fill="#50B57B"/>
<path d="M44.4942 29.6203L82.0591 65.1394L89.274 57.7355L52.012 22.5154C47.8115 18.5471 42.279 16.5595 36.7611 16.5595C31.2542 16.5595 25.7217 18.5471 21.5139 22.5326C17.3353 26.4871 15.2406 31.7149 15.2406 36.9288L15.2187 36.9288C15.2187 42.1359 17.3207 47.3602 21.5175 51.325L21.5175 51.3423L35.9318 65.4314L43.0124 58.2601L29.0317 44.2408L29.0244 44.2477C26.9114 42.2463 25.853 39.5927 25.853 36.9288L25.8311 36.9288C25.8348 34.2787 26.9041 31.6182 29.0353 29.6065C31.1337 27.612 33.962 26.6148 36.7648 26.6148C39.5675 26.6148 42.3776 27.6155 44.4942 29.6203Z" fill="#D9325B"/>
<path fill-rule="evenodd" clip-rule="evenodd" d="M83.1224 21.3694C87.205 17.2483 92.5717 15.1842 97.9206 15.1842C103.269 15.1842 108.64 17.2519 112.722 21.3658L112.74 21.3658C116.816 25.487 118.862 30.9161 118.859 36.338C118.859 41.7493 116.816 47.1676 112.736 51.2923L112.736 51.3138L75.929 88.4971L68.6257 81.1149L105.43 43.9317L105.44 43.9424C107.494 41.8603 108.523 39.101 108.523 36.338C108.523 33.5751 107.487 30.8265 105.433 28.7516L105.444 28.7444C103.383 26.6731 100.655 25.6303 97.9206 25.6303C95.1858 25.6303 92.4546 26.6695 90.3973 28.7444L90.408 28.7516L76.061 43.1262L68.6257 35.994L83.1011 21.3694L83.1189 21.3694L83.1224 21.3694Z" fill="#F0BB2B"/>
<path d="M29.0671 90.0691L65.9076 52.1363L65.9111 52.1363L58.6223 44.6299L21.7853 82.5664C17.7163 86.7605 15.6782 92.2919 15.6782 97.7905C15.6782 103.289 17.7163 108.813 21.803 113.015C25.8543 117.187 31.2148 119.279 36.5611 119.279L36.5611 119.3C41.9039 119.3 47.2573 117.202 51.3264 113.011L51.344 113.011L65.7873 98.1367L58.4048 90.8223L44.0587 105.508L44.0658 105.516C42.0136 107.625 39.2927 108.678 36.5611 108.678L36.5611 108.7C33.8437 108.7 31.1157 107.636 29.0529 105.508C27.0113 103.413 25.9852 100.593 25.9852 97.7905C25.9852 94.9884 27.0113 92.1826 29.0671 90.0691Z" fill="#3EA4CF"/>
<circle cx="120.913" cy="120.057" r="10.1823" transform="rotate(-180 120.913 120.057)" fill="#50B57B"/>
<circle cx="13.5392" cy="120.057" r="10.1823" transform="rotate(-180 13.5392 120.057)" fill="#3EA4CF"/>
<circle cx="120.913" cy="14.1157" r="10.1823" transform="rotate(-180 120.913 14.1157)" fill="#F0BB2B"/>
<circle cx="13.5392" cy="14.1159" r="10.1823" transform="rotate(-180 13.5392 14.1159)" fill="#D9325B"/>
<path d="M322.263 16.0601C326.387 16.0601 330.272 16.9534 333.92 18.7401C337.568 20.4374 340.7 22.8047 343.317 25.8421C346.013 28.7901 348.114 32.3187 349.621 36.4281C351.207 40.5374 352 44.9147 352 49.5601V83.0601H346.052V49.5601C346.052 45.8974 345.418 42.4581 344.149 39.2421C342.881 35.9367 341.176 33.0781 339.035 30.6661C336.894 28.2541 334.356 26.3334 331.422 24.9041C328.567 23.4747 325.514 22.7601 322.263 22.7601C319.012 22.7601 315.919 23.4747 312.985 24.9041C310.13 26.3334 307.632 28.2541 305.491 30.6661C303.35 33.0781 301.645 35.9367 300.377 39.2421C299.108 42.4581 298.474 45.8974 298.474 49.5601V83.0601H292.526V49.5601C292.526 45.8974 291.892 42.4581 290.623 39.2421C289.354 35.9367 287.649 33.0781 285.508 30.6661C283.367 28.2541 280.83 26.3334 277.896 24.9041C275.041 23.4747 271.988 22.7601 268.737 22.7601C265.485 22.7601 262.393 23.4747 259.459 24.9041C256.604 26.3334 254.106 28.2541 251.965 30.6661C249.824 33.0781 248.119 35.9367 246.85 39.2421C245.582 42.4581 244.947 45.8974 244.947 49.5601V83.0601H239V49.5601C239 44.9147 239.793 40.5374 241.379 36.4281C242.965 32.3187 245.106 28.7901 247.802 25.8421C250.577 22.8047 253.749 20.4374 257.318 18.7401C260.886 16.9534 264.692 16.0601 268.737 16.0601C271.671 16.0601 274.486 16.5514 277.182 17.5341C279.957 18.4274 282.495 19.7227 284.795 21.4201C287.094 23.1174 289.156 25.1274 290.98 27.4501C292.804 29.6834 294.31 32.1401 295.5 34.8201C296.689 32.1401 298.196 29.6834 300.02 27.4501C301.923 25.1274 304.024 23.1174 306.324 21.4201C308.703 19.7227 311.241 18.4274 313.937 17.5341C316.633 16.5514 319.408 16.0601 322.263 16.0601Z" fill="url(#paint0_linear_10048_24623)"/>
<path d="M189.086 76.36C192.302 76.36 195.295 75.8687 198.064 74.886C200.833 73.814 203.335 72.3847 205.568 70.598C207.891 68.8113 209.856 66.712 211.464 64.3C212.8 62.3307 213.86 60.2507 214.642 58.06H221.488C220.645 61.2234 219.358 64.1967 217.628 66.98C215.573 70.196 213.117 73.01 210.258 75.422C207.399 77.834 204.139 79.71 200.476 81.05C196.903 82.39 193.106 83.06 189.086 83.06C184.351 83.06 179.929 82.2113 175.82 80.514C171.8 78.7273 168.271 76.36 165.234 73.412C162.286 70.3747 159.919 66.846 158.132 62.826C156.435 58.7167 155.586 54.2947 155.586 49.56C155.586 44.9147 156.435 40.5373 158.132 36.428C159.919 32.3187 162.286 28.79 165.234 25.842C168.271 22.8047 171.8 20.4373 175.82 18.74C179.929 16.9533 184.351 16.06 189.086 16.06C193.106 16.06 196.903 16.73 200.476 18.07C204.139 19.41 207.399 21.286 210.258 23.698C213.117 26.11 215.573 28.9687 217.628 32.274C219.173 34.6925 220.365 37.2878 221.202 40.06C221.202 40.06 221 40.06 220.5 40.06H218C217.5 40.06 214.257 40.06 214.257 40.06C213.523 38.2593 212.592 36.5573 211.464 34.954C209.856 32.4527 207.891 30.3087 205.568 28.522C203.335 26.7353 200.833 25.3507 198.064 24.368C195.295 23.296 192.302 22.76 189.086 22.76C185.423 22.76 181.939 23.4747 178.634 24.904C175.418 26.3333 172.604 28.254 170.192 30.666C167.78 33.078 165.859 35.9367 164.43 39.242C163.001 42.458 162.286 45.8973 162.286 49.56C162.286 53.2227 163.001 56.7067 164.43 60.012C165.859 63.228 167.78 66.042 170.192 68.454C172.604 70.866 175.418 72.7867 178.634 74.216C181.939 75.6453 185.423 76.36 189.086 76.36Z" fill="url(#paint1_linear_10048_24623)"/>
<path d="M375.303 83.06H368.603V21.06H375.303V83.06ZM375.303 10.7H368.603V4H375.303V10.7Z" fill="url(#paint2_linear_10048_24623)"/>
<path d="M427.58 16.06C432.225 16.06 436.602 16.9533 440.712 18.74C444.821 20.4373 448.35 22.8047 451.298 25.842C454.335 28.79 456.702 32.3187 458.4 36.428C460.186 40.5373 461.08 44.9147 461.08 49.56C461.08 54.2947 460.186 58.7167 458.4 62.826C456.702 66.846 454.335 70.3747 451.298 73.412C448.35 76.36 444.821 78.7273 440.712 80.514C436.602 82.2113 432.225 83.06 427.58 83.06C422.845 83.06 418.423 82.2113 414.314 80.514C410.294 78.7273 406.765 76.36 403.728 73.412C400.78 70.3747 398.412 66.846 396.626 62.826C394.928 58.7167 394.08 54.2947 394.08 49.56V4H400.78V29.46C403.817 25.44 407.703 22.224 412.438 19.812C417.172 17.3107 422.22 16.06 427.58 16.06ZM427.58 76.36C431.242 76.36 434.682 75.6453 437.898 74.216C441.203 72.7867 444.062 70.866 446.474 68.454C448.886 66.042 450.806 63.228 452.236 60.012C453.665 56.7067 454.38 53.2227 454.38 49.56C454.38 45.8973 453.665 42.458 452.236 39.242C450.806 35.9367 448.886 33.078 446.474 30.666C444.062 28.254 441.203 26.3333 437.898 24.904C434.682 23.4747 431.242 22.76 427.58 22.76C423.917 22.76 420.433 23.4747 417.128 24.904C413.912 26.3333 411.098 28.254 408.686 30.666C406.274 33.078 404.353 35.9367 402.924 39.242C401.494 42.458 400.78 45.8973 400.78 49.56C400.78 53.2227 401.494 56.7067 402.924 60.012C404.353 63.228 406.274 66.042 408.686 68.454C411.098 70.866 413.912 72.7867 417.128 74.216C420.433 75.6453 423.917 76.36 427.58 76.36Z" fill="url(#paint3_linear_10048_24623)"/>
<path d="M322.263 16.0601C326.387 16.0601 330.272 16.9534 333.92 18.7401C337.568 20.4374 340.7 22.8047 343.317 25.8421C346.013 28.7901 348.114 32.3187 349.621 36.4281C351.207 40.5374 352 44.9147 352 49.5601V83.0601H346.052V49.5601C346.052 45.8974 345.418 42.4581 344.149 39.2421C342.881 35.9367 341.176 33.0781 339.035 30.6661C336.894 28.2541 334.356 26.3334 331.422 24.9041C328.567 23.4747 325.514 22.7601 322.263 22.7601C319.012 22.7601 315.919 23.4747 312.985 24.9041C310.13 26.3334 307.632 28.2541 305.491 30.6661C303.35 33.0781 301.645 35.9367 300.377 39.2421C299.108 42.4581 298.474 45.8974 298.474 49.5601V83.0601H292.526V49.5601C292.526 45.8974 291.892 42.4581 290.623 39.2421C289.354 35.9367 287.649 33.0781 285.508 30.6661C283.367 28.2541 280.83 26.3334 277.896 24.9041C275.041 23.4747 271.988 22.7601 268.737 22.7601C265.485 22.7601 262.393 23.4747 259.459 24.9041C256.604 26.3334 254.106 28.2541 251.965 30.6661C249.824 33.0781 248.119 35.9367 246.85 39.2421C245.582 42.4581 244.947 45.8974 244.947 49.5601V83.0601H239V49.5601C239 44.9147 239.793 40.5374 241.379 36.4281C242.965 32.3187 245.106 28.7901 247.802 25.8421C250.577 22.8047 253.749 20.4374 257.318 18.7401C260.886 16.9534 264.692 16.0601 268.737 16.0601C271.671 16.0601 274.486 16.5514 277.182 17.5341C279.957 18.4274 282.495 19.7227 284.795 21.4201C287.094 23.1174 289.156 25.1274 290.98 27.4501C292.804 29.6834 294.31 32.1401 295.5 34.8201C296.689 32.1401 298.196 29.6834 300.02 27.4501C301.923 25.1274 304.024 23.1174 306.324 21.4201C308.703 19.7227 311.241 18.4274 313.937 17.5341C316.633 16.5514 319.408 16.0601 322.263 16.0601Z" stroke="url(#paint4_linear_10048_24623)" stroke-width="4"/>
<path d="M189.086 76.36C192.302 76.36 195.295 75.8687 198.064 74.886C200.833 73.814 203.335 72.3847 205.568 70.598C207.891 68.8113 209.856 66.712 211.464 64.3C212.8 62.3307 213.86 60.2507 214.642 58.06H221.488C220.645 61.2234 219.358 64.1967 217.628 66.98C215.573 70.196 213.117 73.01 210.258 75.422C207.399 77.834 204.139 79.71 200.476 81.05C196.903 82.39 193.106 83.06 189.086 83.06C184.351 83.06 179.929 82.2113 175.82 80.514C171.8 78.7273 168.271 76.36 165.234 73.412C162.286 70.3747 159.919 66.846 158.132 62.826C156.435 58.7167 155.586 54.2947 155.586 49.56C155.586 44.9147 156.435 40.5373 158.132 36.428C159.919 32.3187 162.286 28.79 165.234 25.842C168.271 22.8047 171.8 20.4373 175.82 18.74C179.929 16.9533 184.351 16.06 189.086 16.06C193.106 16.06 196.903 16.73 200.476 18.07C204.139 19.41 207.399 21.286 210.258 23.698C213.117 26.11 215.573 28.9687 217.628 32.274C219.173 34.6925 220.365 37.2878 221.202 40.06C221.202 40.06 221 40.06 220.5 40.06H218C217.5 40.06 214.257 40.06 214.257 40.06C213.523 38.2593 212.592 36.5573 211.464 34.954C209.856 32.4527 207.891 30.3087 205.568 28.522C203.335 26.7353 200.833 25.3507 198.064 24.368C195.295 23.296 192.302 22.76 189.086 22.76C185.423 22.76 181.939 23.4747 178.634 24.904C175.418 26.3333 172.604 28.254 170.192 30.666C167.78 33.078 165.859 35.9367 164.43 39.242C163.001 42.458 162.286 45.8973 162.286 49.56C162.286 53.2227 163.001 56.7067 164.43 60.012C165.859 63.228 167.78 66.042 170.192 68.454C172.604 70.866 175.418 72.7867 178.634 74.216C181.939 75.6453 185.423 76.36 189.086 76.36Z" stroke="url(#paint5_linear_10048_24623)" stroke-width="4"/>
<path d="M375.303 83.06H368.603V21.06H375.303V83.06ZM375.303 10.7H368.603V4H375.303V10.7Z" stroke="url(#paint6_linear_10048_24623)" stroke-width="4"/>
<path d="M427.58 16.06C432.225 16.06 436.602 16.9533 440.712 18.74C444.821 20.4373 448.35 22.8047 451.298 25.842C454.335 28.79 456.702 32.3187 458.4 36.428C460.186 40.5373 461.08 44.9147 461.08 49.56C461.08 54.2947 460.186 58.7167 458.4 62.826C456.702 66.846 454.335 70.3747 451.298 73.412C448.35 76.36 444.821 78.7273 440.712 80.514C436.602 82.2113 432.225 83.06 427.58 83.06C422.845 83.06 418.423 82.2113 414.314 80.514C410.294 78.7273 406.765 76.36 403.728 73.412C400.78 70.3747 398.412 66.846 396.626 62.826C394.928 58.7167 394.08 54.2947 394.08 49.56V4H400.78V29.46C403.817 25.44 407.703 22.224 412.438 19.812C417.172 17.3107 422.22 16.06 427.58 16.06ZM427.58 76.36C431.242 76.36 434.682 75.6453 437.898 74.216C441.203 72.7867 444.062 70.866 446.474 68.454C448.886 66.042 450.806 63.228 452.236 60.012C453.665 56.7067 454.38 53.2227 454.38 49.56C454.38 45.8973 453.665 42.458 452.236 39.242C450.806 35.9367 448.886 33.078 446.474 30.666C444.062 28.254 441.203 26.3333 437.898 24.904C434.682 23.4747 431.242 22.76 427.58 22.76C423.917 22.76 420.433 23.4747 417.128 24.904C413.912 26.3333 411.098 28.254 408.686 30.666C406.274 33.078 404.353 35.9367 402.924 39.242C401.494 42.458 400.78 45.8973 400.78 49.56C400.78 53.2227 401.494 56.7067 402.924 60.012C404.353 63.228 406.274 66.042 408.686 68.454C411.098 70.866 413.912 72.7867 417.128 74.216C420.433 75.6453 423.917 76.36 427.58 76.36Z" stroke="url(#paint7_linear_10048_24623)" stroke-width="4"/>
<path d="M160.202 109.154C157.541 109.154 155.479 106.986 155.479 104.165C155.479 101.358 157.541 99.2025 160.202 99.2025C162.597 99.2025 164.513 100.799 164.872 103.154H163.315C163.049 101.611 161.799 100.52 160.215 100.52C158.326 100.52 156.996 102.05 156.996 104.165C156.996 106.307 158.326 107.837 160.215 107.837C161.799 107.837 163.049 106.733 163.315 105.189H164.872C164.513 107.558 162.597 109.154 160.202 109.154ZM169.24 109.088C167.244 109.088 165.781 107.518 165.781 105.429C165.781 103.34 167.244 101.77 169.24 101.77C171.236 101.77 172.699 103.34 172.699 105.429C172.699 107.518 171.236 109.088 169.24 109.088ZM169.24 107.904C170.397 107.904 171.315 106.972 171.315 105.429C171.315 103.886 170.397 102.968 169.24 102.968C168.082 102.968 167.178 103.886 167.178 105.429C167.178 106.972 168.082 107.904 169.24 107.904ZM175.413 108.955H174.069V101.903H175.319V103.074C175.798 102.263 176.557 101.77 177.528 101.77C178.566 101.77 179.351 102.302 179.67 103.234C180.162 102.329 180.974 101.77 182.051 101.77C183.502 101.77 184.433 102.715 184.433 104.391V108.955H183.089V104.817C183.089 103.646 182.57 102.954 181.586 102.954C180.668 102.954 179.923 103.726 179.923 104.91V108.955H178.579V104.817C178.579 103.646 178.06 102.954 177.076 102.954C176.144 102.954 175.413 103.726 175.413 104.91V108.955ZM187.574 108.955H186.23V101.903H187.48V103.074C187.959 102.263 188.718 101.77 189.689 101.77C190.727 101.77 191.512 102.302 191.831 103.234C192.323 102.329 193.135 101.77 194.212 101.77C195.663 101.77 196.594 102.715 196.594 104.391V108.955H195.25V104.817C195.25 103.646 194.731 102.954 193.747 102.954C192.829 102.954 192.084 103.726 192.084 104.91V108.955H190.74V104.817C190.74 103.646 190.221 102.954 189.237 102.954C188.305 102.954 187.574 103.726 187.574 104.91V108.955ZM200.027 100.267C200.027 100.772 199.628 101.158 199.056 101.158C198.484 101.158 198.072 100.772 198.072 100.267C198.072 99.748 198.484 99.3755 199.056 99.3755C199.628 99.3755 200.027 99.748 200.027 100.267ZM199.735 108.955H198.391V101.903H199.735V108.955ZM205.578 107.651V108.835C205.166 109.021 204.806 109.088 204.381 109.088C203.077 109.088 202.172 108.383 202.172 106.826V103.047H200.616V101.903H202.172V99.8145H203.516V101.903H205.645V103.047H203.516V106.52C203.516 107.491 203.982 107.837 204.7 107.837C205.019 107.837 205.299 107.784 205.578 107.651ZM211.139 107.651V108.835C210.726 109.021 210.367 109.088 209.941 109.088C208.638 109.088 207.733 108.383 207.733 106.826V103.047H206.176V101.903H207.733V99.8145H209.077V101.903H211.205V103.047H209.077V106.52C209.077 107.491 209.542 107.837 210.261 107.837C210.58 107.837 210.859 107.784 211.139 107.651ZM215.193 109.088C213.158 109.088 211.787 107.611 211.787 105.389C211.787 103.3 213.211 101.77 215.153 101.77C217.255 101.77 218.652 103.473 218.413 105.762H213.158C213.264 107.198 213.983 108.037 215.167 108.037C216.164 108.037 216.856 107.491 217.082 106.573H218.413C218.067 108.143 216.856 109.088 215.193 109.088ZM215.127 102.781C214.049 102.781 213.317 103.553 213.171 104.87H216.989C216.923 103.566 216.218 102.781 215.127 102.781ZM222.612 109.088C220.576 109.088 219.206 107.611 219.206 105.389C219.206 103.3 220.63 101.77 222.572 101.77C224.674 101.77 226.071 103.473 225.832 105.762H220.576C220.683 107.198 221.401 108.037 222.585 108.037C223.583 108.037 224.275 107.491 224.501 106.573H225.832C225.486 108.143 224.275 109.088 222.612 109.088ZM222.545 102.781C221.468 102.781 220.736 103.553 220.59 104.87H224.408C224.342 103.566 223.636 102.781 222.545 102.781ZM232.023 108.955H230.679V103.047H229.123V101.903H230.679V101.384C230.679 100.027 231.411 99.2823 232.741 99.2823C233.141 99.2823 233.46 99.3488 233.726 99.4553V100.546C233.513 100.453 233.274 100.427 233.034 100.427C232.396 100.427 232.023 100.719 232.023 101.398V101.903H233.992V103.047H232.023V108.955ZM237.775 109.088C235.78 109.088 234.316 107.518 234.316 105.429C234.316 103.34 235.78 101.77 237.775 101.77C239.771 101.77 241.235 103.34 241.235 105.429C241.235 107.518 239.771 109.088 237.775 109.088ZM237.775 107.904C238.933 107.904 239.851 106.972 239.851 105.429C239.851 103.886 238.933 102.968 237.775 102.968C236.618 102.968 235.713 103.886 235.713 105.429C235.713 106.972 236.618 107.904 237.775 107.904ZM243.948 105.349V108.955H242.604V101.903H243.855V103.393C244.347 102.422 245.412 101.81 246.569 101.81V103.207C245.052 103.127 243.948 103.793 243.948 105.349ZM254.883 108.955L251.863 101.651V108.955H250.519V99.4021H252.315L255.522 107.159L258.715 99.4021H260.524V108.955H259.167V101.637L256.134 108.955H254.883ZM265.383 109.088C263.348 109.088 261.977 107.611 261.977 105.389C261.977 103.3 263.401 101.77 265.343 101.77C267.446 101.77 268.843 103.473 268.603 105.762H263.348C263.454 107.198 264.173 108.037 265.357 108.037C266.355 108.037 267.046 107.491 267.273 106.573H268.603C268.257 108.143 267.046 109.088 265.383 109.088ZM265.317 102.781C264.239 102.781 263.507 103.553 263.361 104.87H267.179C267.113 103.566 266.408 102.781 265.317 102.781ZM271.375 108.955H270.032V101.903H271.282V103.074C271.761 102.263 272.52 101.77 273.491 101.77C274.529 101.77 275.314 102.302 275.633 103.234C276.125 102.329 276.937 101.77 278.014 101.77C279.464 101.77 280.396 102.715 280.396 104.391V108.955H279.052V104.817C279.052 103.646 278.533 102.954 277.549 102.954C276.631 102.954 275.886 103.726 275.886 104.91V108.955H274.542V104.817C274.542 103.646 274.023 102.954 273.038 102.954C272.107 102.954 271.375 103.726 271.375 104.91V108.955ZM288.925 105.429C288.925 107.544 287.701 109.088 285.798 109.088C284.8 109.088 283.949 108.582 283.443 107.691V108.955H282.193V99.4021H283.536V103.114C284.029 102.249 284.84 101.77 285.798 101.77C287.687 101.77 288.925 103.287 288.925 105.429ZM287.528 105.429C287.528 103.832 286.69 102.954 285.532 102.954C284.415 102.954 283.536 103.819 283.536 105.402C283.536 106.959 284.388 107.89 285.532 107.89C286.69 107.89 287.528 106.999 287.528 105.429ZM293.187 109.088C291.152 109.088 289.781 107.611 289.781 105.389C289.781 103.3 291.205 101.77 293.147 101.77C295.25 101.77 296.647 103.473 296.407 105.762H291.152C291.258 107.198 291.977 108.037 293.161 108.037C294.159 108.037 294.85 107.491 295.077 106.573H296.407C296.061 108.143 294.85 109.088 293.187 109.088ZM293.121 102.781C292.043 102.781 291.311 103.553 291.165 104.87H294.983C294.917 103.566 294.212 102.781 293.121 102.781ZM299.179 105.349V108.955H297.836V101.903H299.086V103.393C299.579 102.422 300.643 101.81 301.8 101.81V103.207C300.284 103.127 299.179 103.793 299.179 105.349ZM308.452 106.853C308.452 108.236 307.374 109.088 305.498 109.088C303.635 109.088 302.531 108.17 302.398 106.653H303.689C303.742 107.531 304.447 108.077 305.525 108.077C306.469 108.077 307.095 107.744 307.095 107.079C307.095 106.493 306.735 106.241 305.857 106.068L304.713 105.855C303.409 105.602 302.678 104.937 302.678 103.872C302.678 102.635 303.755 101.77 305.392 101.77C307.081 101.77 308.225 102.675 308.345 104.125H307.055C306.975 103.274 306.35 102.781 305.405 102.781C304.553 102.781 303.981 103.141 303.981 103.753C303.981 104.325 304.341 104.591 305.192 104.75L306.389 104.977C307.786 105.229 308.452 105.841 308.452 106.853ZM314.336 100.267C314.336 100.772 313.936 101.158 313.364 101.158C312.792 101.158 312.38 100.772 312.38 100.267C312.38 99.748 312.792 99.3755 313.364 99.3755C313.936 99.3755 314.336 99.748 314.336 100.267ZM314.043 108.955H312.699V101.903H314.043V108.955ZM317.252 104.977V108.955H315.908V101.903H317.159V103.074C317.638 102.289 318.436 101.77 319.407 101.77C320.858 101.77 321.815 102.702 321.815 104.391V108.955H320.472V104.844C320.472 103.633 319.94 102.954 318.942 102.954C318.024 102.954 317.252 103.726 317.252 104.977ZM327.95 108.955H326.487V99.4021H327.95V108.955ZM331.258 104.977V108.955H329.914V101.903H331.165V103.074C331.644 102.289 332.442 101.77 333.413 101.77C334.863 101.77 335.821 102.702 335.821 104.391V108.955H334.478V104.844C334.478 103.633 333.945 102.954 332.948 102.954C332.03 102.954 331.258 103.726 331.258 104.977ZM337.1 105.429C337.1 103.287 338.324 101.77 340.227 101.77C341.171 101.77 341.996 102.249 342.489 103.114V99.4021H343.832V108.955H342.582V107.691C342.076 108.582 341.225 109.088 340.227 109.088C338.324 109.088 337.1 107.544 337.1 105.429ZM338.497 105.429C338.497 106.999 339.322 107.89 340.493 107.89C341.637 107.89 342.489 106.959 342.489 105.402C342.489 103.819 341.61 102.954 340.493 102.954C339.322 102.954 338.497 103.832 338.497 105.429ZM350.104 106.054V101.903H351.448V108.955H350.197V107.837C349.825 108.569 349 109.088 348.042 109.088C346.618 109.088 345.634 108.249 345.634 106.44V101.903H346.977V106.174C346.977 107.398 347.589 107.904 348.467 107.904C349.372 107.904 350.104 107.159 350.104 106.054ZM358.902 106.853C358.902 108.236 357.824 109.088 355.948 109.088C354.085 109.088 352.981 108.17 352.848 106.653H354.139C354.192 107.531 354.897 108.077 355.975 108.077C356.919 108.077 357.545 107.744 357.545 107.079C357.545 106.493 357.185 106.241 356.307 106.068L355.163 105.855C353.859 105.602 353.128 104.937 353.128 103.872C353.128 102.635 354.205 101.77 355.842 101.77C357.531 101.77 358.675 102.675 358.795 104.125H357.505C357.425 103.274 356.8 102.781 355.855 102.781C355.003 102.781 354.431 103.141 354.431 103.753C354.431 104.325 354.791 104.591 355.642 104.75L356.839 104.977C358.236 105.229 358.902 105.841 358.902 106.853ZM364.256 107.651V108.835C363.843 109.021 363.484 109.088 363.058 109.088C361.755 109.088 360.85 108.383 360.85 106.826V103.047H359.293V101.903H360.85V99.8145H362.194V101.903H364.322V103.047H362.194V106.52C362.194 107.491 362.659 107.837 363.378 107.837C363.697 107.837 363.976 107.784 364.256 107.651ZM366.948 105.349V108.955H365.605V101.903H366.855V103.393C367.348 102.422 368.412 101.81 369.569 101.81V103.207C368.053 103.127 366.948 103.793 366.948 105.349ZM376.617 101.903L373.091 111.522H371.628L372.639 108.861L369.858 101.903H371.308L373.357 107.278L375.26 101.903H376.617ZM384.622 108.955V107.864C384.183 108.649 383.398 109.088 382.36 109.088C380.897 109.088 379.939 108.249 379.939 106.959C379.939 105.575 381.043 104.857 383.145 104.857C383.558 104.857 383.89 104.87 384.462 104.937V104.418C384.462 103.407 383.917 102.835 382.985 102.835C382.001 102.835 381.402 103.42 381.362 104.405H380.138C380.205 102.821 381.336 101.77 382.985 101.77C384.728 101.77 385.739 102.755 385.739 104.431V108.955H384.622ZM381.216 106.919C381.216 107.651 381.761 108.13 382.626 108.13C383.757 108.13 384.462 107.425 384.462 106.347V105.775C383.943 105.708 383.571 105.695 383.225 105.695C381.881 105.695 381.216 106.094 381.216 106.919ZM388.88 104.977V108.955H387.536V101.903H388.787V103.074C389.266 102.289 390.064 101.77 391.035 101.77C392.485 101.77 393.443 102.702 393.443 104.391V108.955H392.099V104.844C392.099 103.633 391.567 102.954 390.569 102.954C389.651 102.954 388.88 103.726 388.88 104.977ZM394.722 105.429C394.722 103.287 395.946 101.77 397.849 101.77C398.793 101.77 399.618 102.249 400.11 103.114V99.4021H401.454V108.955H400.204V107.691C399.698 108.582 398.846 109.088 397.849 109.088C395.946 109.088 394.722 107.544 394.722 105.429ZM396.119 105.429C396.119 106.999 396.944 107.89 398.115 107.89C399.259 107.89 400.11 106.959 400.11 105.402C400.11 103.819 399.232 102.954 398.115 102.954C396.944 102.954 396.119 103.832 396.119 105.429ZM412.967 106.214C412.967 107.957 411.69 108.955 409.708 108.955H406.209V99.4021H409.522C411.451 99.4021 412.608 100.293 412.608 101.903C412.608 102.808 412.063 103.58 411.145 103.979C412.329 104.311 412.967 105.123 412.967 106.214ZM409.429 100.573H407.553V103.447H409.429C410.586 103.447 411.211 102.901 411.211 102.01C411.211 101.118 410.586 100.573 409.429 100.573ZM409.615 104.617H407.553V107.784H409.615C410.865 107.784 411.571 107.185 411.571 106.174C411.571 105.203 410.865 104.617 409.615 104.617ZM418.951 106.054V101.903H420.295V108.955H419.044V107.837C418.672 108.569 417.847 109.088 416.889 109.088C415.466 109.088 414.481 108.249 414.481 106.44V101.903H415.825V106.174C415.825 107.398 416.437 107.904 417.315 107.904C418.22 107.904 418.951 107.159 418.951 106.054ZM427.749 106.853C427.749 108.236 426.671 109.088 424.795 109.088C422.933 109.088 421.829 108.17 421.696 106.653H422.986C423.039 107.531 423.744 108.077 424.822 108.077C425.767 108.077 426.392 107.744 426.392 107.079C426.392 106.493 426.033 106.241 425.155 106.068L424.01 105.855C422.707 105.602 421.975 104.937 421.975 103.872C421.975 102.635 423.053 101.77 424.689 101.77C426.379 101.77 427.523 102.675 427.643 104.125H426.352C426.272 103.274 425.647 102.781 424.702 102.781C423.851 102.781 423.279 103.141 423.279 103.753C423.279 104.325 423.638 104.591 424.489 104.75L425.687 104.977C427.084 105.229 427.749 105.841 427.749 106.853ZM430.853 100.267C430.853 100.772 430.453 101.158 429.881 101.158C429.309 101.158 428.897 100.772 428.897 100.267C428.897 99.748 429.309 99.3755 429.881 99.3755C430.453 99.3755 430.853 99.748 430.853 100.267ZM430.56 108.955H429.216V101.903H430.56V108.955ZM433.769 104.977V108.955H432.425V101.903H433.676V103.074C434.155 102.289 434.953 101.77 435.924 101.77C437.375 101.77 438.332 102.702 438.332 104.391V108.955H436.989V104.844C436.989 103.633 436.457 102.954 435.459 102.954C434.541 102.954 433.769 103.726 433.769 104.977ZM443.017 109.088C440.982 109.088 439.611 107.611 439.611 105.389C439.611 103.3 441.035 101.77 442.977 101.77C445.079 101.77 446.476 103.473 446.237 105.762H440.982C441.088 107.198 441.807 108.037 442.991 108.037C443.988 108.037 444.68 107.491 444.906 106.573H446.237C445.891 108.143 444.68 109.088 443.017 109.088ZM442.951 102.781C441.873 102.781 441.141 103.553 440.995 104.87H444.813C444.747 103.566 444.042 102.781 442.951 102.781ZM453.253 106.853C453.253 108.236 452.176 109.088 450.3 109.088C448.437 109.088 447.333 108.17 447.2 106.653H448.49C448.544 107.531 449.249 108.077 450.326 108.077C451.271 108.077 451.896 107.744 451.896 107.079C451.896 106.493 451.537 106.241 450.659 106.068L449.515 105.855C448.211 105.602 447.479 104.937 447.479 103.872C447.479 102.635 448.557 101.77 450.193 101.77C451.883 101.77 453.027 102.675 453.147 104.125H451.856C451.777 103.274 451.151 102.781 450.207 102.781C449.355 102.781 448.783 103.141 448.783 103.753C448.783 104.325 449.142 104.591 449.994 104.75L451.191 104.977C452.588 105.229 453.253 105.841 453.253 106.853ZM460.308 106.853C460.308 108.236 459.231 109.088 457.355 109.088C455.492 109.088 454.388 108.17 454.255 106.653H455.545C455.599 107.531 456.304 108.077 457.381 108.077C458.326 108.077 458.951 107.744 458.951 107.079C458.951 106.493 458.592 106.241 457.714 106.068L456.57 105.855C455.266 105.602 454.534 104.937 454.534 103.872C454.534 102.635 455.612 101.77 457.248 101.77C458.938 101.77 460.082 102.675 460.202 104.125H458.911C458.832 103.274 458.206 102.781 457.262 102.781C456.41 102.781 455.838 103.141 455.838 103.753C455.838 104.325 456.197 104.591 457.049 104.75L458.246 104.977C459.643 105.229 460.308 105.841 460.308 106.853Z" fill="black"/>
<path d="M163.082 127.364H161.542V118.698H158.266V117.312H166.358V118.698H163.082V127.364ZM169.021 123.178V127.364H167.607V117.312H169.021V121.134C169.511 120.336 170.267 119.804 171.289 119.804C172.815 119.804 173.823 120.784 173.823 122.562V127.364H172.409V123.038C172.409 121.764 171.849 121.05 170.799 121.05C169.833 121.05 169.021 121.862 169.021 123.178ZM178.753 127.504C176.611 127.504 175.169 125.95 175.169 123.612C175.169 121.414 176.667 119.804 178.711 119.804C180.923 119.804 182.393 121.596 182.141 124.004H176.611C176.723 125.516 177.479 126.398 178.725 126.398C179.775 126.398 180.503 125.824 180.741 124.858H182.141C181.777 126.51 180.503 127.504 178.753 127.504ZM178.683 120.868C177.549 120.868 176.779 121.68 176.625 123.066H180.643C180.573 121.694 179.831 120.868 178.683 120.868ZM188.222 127.364H186.682V117.312H188.222V127.364ZM191.703 123.178V127.364H190.289V119.944H191.605V121.176C192.109 120.35 192.949 119.804 193.971 119.804C195.497 119.804 196.505 120.784 196.505 122.562V127.364H195.091V123.038C195.091 121.764 194.531 121.05 193.481 121.05C192.515 121.05 191.703 121.862 191.703 123.178ZM204.262 125.152C204.262 126.608 203.128 127.504 201.154 127.504C199.194 127.504 198.032 126.538 197.892 124.942H199.25C199.306 125.866 200.048 126.44 201.182 126.44C202.176 126.44 202.834 126.09 202.834 125.39C202.834 124.774 202.456 124.508 201.532 124.326L200.328 124.102C198.956 123.836 198.186 123.136 198.186 122.016C198.186 120.714 199.32 119.804 201.042 119.804C202.82 119.804 204.024 120.756 204.15 122.282H202.792C202.708 121.386 202.05 120.868 201.056 120.868C200.16 120.868 199.558 121.246 199.558 121.89C199.558 122.492 199.936 122.772 200.832 122.94L202.092 123.178C203.562 123.444 204.262 124.088 204.262 125.152ZM209.896 125.992V127.238C209.462 127.434 209.084 127.504 208.636 127.504C207.264 127.504 206.312 126.762 206.312 125.124V121.148H204.674V119.944H206.312V117.746H207.726V119.944H209.966V121.148H207.726V124.802C207.726 125.824 208.216 126.188 208.972 126.188C209.308 126.188 209.602 126.132 209.896 125.992ZM213.038 118.222C213.038 118.754 212.618 119.16 212.016 119.16C211.414 119.16 210.98 118.754 210.98 118.222C210.98 117.676 211.414 117.284 212.016 117.284C212.618 117.284 213.038 117.676 213.038 118.222ZM212.73 127.364H211.316V119.944H212.73V127.364ZM218.879 125.992V127.238C218.445 127.434 218.067 127.504 217.619 127.504C216.247 127.504 215.295 126.762 215.295 125.124V121.148H213.657V119.944H215.295V117.746H216.709V119.944H218.949V121.148H216.709V124.802C216.709 125.824 217.199 126.188 217.955 126.188C218.291 126.188 218.585 126.132 218.879 125.992ZM224.932 124.312V119.944H226.346V127.364H225.03V126.188C224.638 126.958 223.77 127.504 222.762 127.504C221.264 127.504 220.228 126.622 220.228 124.718V119.944H221.642V124.438C221.642 125.726 222.286 126.258 223.21 126.258C224.162 126.258 224.932 125.474 224.932 124.312ZM232.496 125.992V127.238C232.062 127.434 231.684 127.504 231.236 127.504C229.864 127.504 228.912 126.762 228.912 125.124V121.148H227.274V119.944H228.912V117.746H230.326V119.944H232.566V121.148H230.326V124.802C230.326 125.824 230.816 126.188 231.572 126.188C231.908 126.188 232.202 126.132 232.496 125.992ZM236.762 127.504C234.62 127.504 233.178 125.95 233.178 123.612C233.178 121.414 234.676 119.804 236.72 119.804C238.932 119.804 240.402 121.596 240.15 124.004H234.62C234.732 125.516 235.488 126.398 236.734 126.398C237.784 126.398 238.512 125.824 238.75 124.858H240.15C239.786 126.51 238.512 127.504 236.762 127.504ZM236.692 120.868C235.558 120.868 234.788 121.68 234.634 123.066H238.652C238.582 121.694 237.84 120.868 236.692 120.868ZM247.688 127.504C245.588 127.504 244.048 125.852 244.048 123.654C244.048 121.456 245.588 119.804 247.688 119.804C249.788 119.804 251.328 121.456 251.328 123.654C251.328 125.852 249.788 127.504 247.688 127.504ZM247.688 126.258C248.906 126.258 249.872 125.278 249.872 123.654C249.872 122.03 248.906 121.064 247.688 121.064C246.47 121.064 245.518 122.03 245.518 123.654C245.518 125.278 246.47 126.258 247.688 126.258ZM254.65 127.364H253.236V121.148H251.598V119.944H253.236V119.398C253.236 117.97 254.006 117.186 255.406 117.186C255.826 117.186 256.162 117.256 256.442 117.368V118.516C256.218 118.418 255.966 118.39 255.714 118.39C255.042 118.39 254.65 118.698 254.65 119.412V119.944H256.722V121.148H254.65V127.364ZM265.22 127.574C262.42 127.574 260.25 125.292 260.25 122.324C260.25 119.37 262.42 117.102 265.22 117.102C267.74 117.102 269.756 118.782 270.134 121.26H268.496C268.216 119.636 266.9 118.488 265.234 118.488C263.246 118.488 261.846 120.098 261.846 122.324C261.846 124.578 263.246 126.188 265.234 126.188C266.9 126.188 268.216 125.026 268.496 123.402H270.134C269.756 125.894 267.74 127.574 265.22 127.574ZM273.037 123.178V127.364H271.623V117.312H273.037V121.134C273.527 120.336 274.283 119.804 275.305 119.804C276.831 119.804 277.839 120.784 277.839 122.562V127.364H276.425V123.038C276.425 121.764 275.865 121.05 274.815 121.05C273.849 121.05 273.037 121.862 273.037 123.178ZM284.21 127.364V126.216C283.748 127.042 282.922 127.504 281.83 127.504C280.29 127.504 279.282 126.622 279.282 125.264C279.282 123.808 280.444 123.052 282.656 123.052C283.09 123.052 283.44 123.066 284.042 123.136V122.59C284.042 121.526 283.468 120.924 282.488 120.924C281.452 120.924 280.822 121.54 280.78 122.576H279.492C279.562 120.91 280.752 119.804 282.488 119.804C284.322 119.804 285.386 120.84 285.386 122.604V127.364H284.21ZM280.626 125.222C280.626 125.992 281.2 126.496 282.11 126.496C283.3 126.496 284.042 125.754 284.042 124.62V124.018C283.496 123.948 283.104 123.934 282.74 123.934C281.326 123.934 280.626 124.354 280.626 125.222ZM288.691 123.57V127.364H287.277V119.944H288.593V121.512C289.111 120.49 290.231 119.846 291.449 119.846V121.316C289.853 121.232 288.691 121.932 288.691 123.57ZM297.205 125.992V127.238C296.771 127.434 296.393 127.504 295.945 127.504C294.573 127.504 293.621 126.762 293.621 125.124V121.148H291.983V119.944H293.621V117.746H295.035V119.944H297.275V121.148H295.035V124.802C295.035 125.824 295.525 126.188 296.281 126.188C296.617 126.188 296.911 126.132 297.205 125.992ZM301.471 127.504C299.329 127.504 297.887 125.95 297.887 123.612C297.887 121.414 299.385 119.804 301.429 119.804C303.641 119.804 305.111 121.596 304.859 124.004H299.329C299.441 125.516 300.197 126.398 301.443 126.398C302.493 126.398 303.221 125.824 303.459 124.858H304.859C304.495 126.51 303.221 127.504 301.471 127.504ZM301.401 120.868C300.267 120.868 299.497 121.68 299.343 123.066H303.361C303.291 121.694 302.549 120.868 301.401 120.868ZM307.777 123.57V127.364H306.363V119.944H307.679V121.512C308.197 120.49 309.317 119.846 310.535 119.846V121.316C308.939 121.232 307.777 121.932 307.777 123.57ZM314.678 127.504C312.536 127.504 311.094 125.95 311.094 123.612C311.094 121.414 312.592 119.804 314.636 119.804C316.848 119.804 318.318 121.596 318.066 124.004H312.536C312.648 125.516 313.404 126.398 314.65 126.398C315.7 126.398 316.428 125.824 316.666 124.858H318.066C317.702 126.51 316.428 127.504 314.678 127.504ZM314.608 120.868C313.474 120.868 312.704 121.68 312.55 123.066H316.568C316.498 121.694 315.756 120.868 314.608 120.868ZM318.901 123.654C318.901 121.4 320.189 119.804 322.191 119.804C323.185 119.804 324.053 120.308 324.571 121.218V117.312H325.985V127.364H324.669V126.034C324.137 126.972 323.241 127.504 322.191 127.504C320.189 127.504 318.901 125.88 318.901 123.654ZM320.371 123.654C320.371 125.306 321.239 126.244 322.471 126.244C323.675 126.244 324.571 125.264 324.571 123.626C324.571 121.96 323.647 121.05 322.471 121.05C321.239 121.05 320.371 121.974 320.371 123.654ZM337.904 127.364L336.994 124.872H332.654L331.73 127.364H330.176L334.026 117.312H335.72L339.542 127.364H337.904ZM334.838 118.992L333.116 123.626H336.532L334.838 118.992ZM343.318 127.518C341.288 127.518 339.86 125.922 339.86 123.654C339.86 121.414 341.316 119.804 343.318 119.804C345.152 119.804 346.482 121.022 346.748 122.954H345.264C345.11 121.764 344.368 121.05 343.332 121.05C342.114 121.05 341.316 122.086 341.316 123.654C341.316 125.236 342.114 126.258 343.332 126.258C344.382 126.258 345.11 125.558 345.278 124.354H346.748C346.496 126.314 345.18 127.518 343.318 127.518ZM351.029 127.518C348.999 127.518 347.571 125.922 347.571 123.654C347.571 121.414 349.027 119.804 351.029 119.804C352.863 119.804 354.193 121.022 354.459 122.954H352.975C352.821 121.764 352.079 121.05 351.043 121.05C349.825 121.05 349.027 122.086 349.027 123.654C349.027 125.236 349.825 126.258 351.043 126.258C352.093 126.258 352.821 125.558 352.989 124.354H354.459C354.207 126.314 352.891 127.518 351.029 127.518ZM358.922 127.504C356.822 127.504 355.282 125.852 355.282 123.654C355.282 121.456 356.822 119.804 358.922 119.804C361.022 119.804 362.562 121.456 362.562 123.654C362.562 125.852 361.022 127.504 358.922 127.504ZM358.922 126.258C360.14 126.258 361.106 125.278 361.106 123.654C361.106 122.03 360.14 121.064 358.922 121.064C357.704 121.064 356.752 122.03 356.752 123.654C356.752 125.278 357.704 126.258 358.922 126.258ZM368.637 124.312V119.944H370.051V127.364H368.735V126.188C368.343 126.958 367.475 127.504 366.467 127.504C364.969 127.504 363.933 126.622 363.933 124.718V119.944H365.347V124.438C365.347 125.726 365.991 126.258 366.915 126.258C367.867 126.258 368.637 125.474 368.637 124.312ZM373.429 123.178V127.364H372.015V119.944H373.331V121.176C373.835 120.35 374.675 119.804 375.697 119.804C377.223 119.804 378.231 120.784 378.231 122.562V127.364H376.817V123.038C376.817 121.764 376.257 121.05 375.207 121.05C374.241 121.05 373.429 121.862 373.429 123.178ZM384.268 125.992V127.238C383.834 127.434 383.456 127.504 383.008 127.504C381.636 127.504 380.684 126.762 380.684 125.124V121.148H379.046V119.944H380.684V117.746H382.098V119.944H384.338V121.148H382.098V124.802C382.098 125.824 382.588 126.188 383.344 126.188C383.68 126.188 383.974 126.132 384.268 125.992ZM390.181 127.364V126.216C389.719 127.042 388.893 127.504 387.801 127.504C386.261 127.504 385.253 126.622 385.253 125.264C385.253 123.808 386.415 123.052 388.627 123.052C389.061 123.052 389.411 123.066 390.013 123.136V122.59C390.013 121.526 389.439 120.924 388.459 120.924C387.423 120.924 386.793 121.54 386.751 122.576H385.463C385.533 120.91 386.723 119.804 388.459 119.804C390.293 119.804 391.357 120.84 391.357 122.604V127.364H390.181ZM386.597 125.222C386.597 125.992 387.171 126.496 388.081 126.496C389.271 126.496 390.013 125.754 390.013 124.62V124.018C389.467 123.948 389.075 123.934 388.711 123.934C387.297 123.934 386.597 124.354 386.597 125.222ZM394.662 123.178V127.364H393.248V119.944H394.564V121.176C395.068 120.35 395.908 119.804 396.93 119.804C398.456 119.804 399.464 120.784 399.464 122.562V127.364H398.05V123.038C398.05 121.764 397.49 121.05 396.44 121.05C395.474 121.05 394.662 121.862 394.662 123.178ZM405.5 125.992V127.238C405.066 127.434 404.688 127.504 404.24 127.504C402.868 127.504 401.916 126.762 401.916 125.124V121.148H400.278V119.944H401.916V117.746H403.33V119.944H405.57V121.148H403.33V124.802C403.33 125.824 403.82 126.188 404.576 126.188C404.912 126.188 405.206 126.132 405.5 125.992ZM412.772 125.152C412.772 126.608 411.638 127.504 409.664 127.504C407.704 127.504 406.542 126.538 406.402 124.942H407.76C407.816 125.866 408.558 126.44 409.692 126.44C410.686 126.44 411.344 126.09 411.344 125.39C411.344 124.774 410.966 124.508 410.042 124.326L408.838 124.102C407.466 123.836 406.696 123.136 406.696 122.016C406.696 120.714 407.83 119.804 409.552 119.804C411.33 119.804 412.534 120.756 412.66 122.282H411.302C411.218 121.386 410.56 120.868 409.566 120.868C408.67 120.868 408.068 121.246 408.068 121.89C408.068 122.492 408.446 122.772 409.342 122.94L410.602 123.178C412.072 123.444 412.772 124.088 412.772 125.152ZM420.35 127.504C418.25 127.504 416.71 125.852 416.71 123.654C416.71 121.456 418.25 119.804 420.35 119.804C422.45 119.804 423.99 121.456 423.99 123.654C423.99 125.852 422.45 127.504 420.35 127.504ZM420.35 126.258C421.568 126.258 422.534 125.278 422.534 123.654C422.534 122.03 421.568 121.064 420.35 121.064C419.132 121.064 418.18 122.03 418.18 123.654C418.18 125.278 419.132 126.258 420.35 126.258ZM427.312 127.364H425.898V121.148H424.26V119.944H425.898V119.398C425.898 117.97 426.668 117.186 428.068 117.186C428.488 117.186 428.824 117.256 429.104 117.368V118.516C428.88 118.418 428.628 118.39 428.376 118.39C427.704 118.39 427.312 118.698 427.312 119.412V119.944H429.384V121.148H427.312V127.364ZM435.04 127.364H433.5V117.312H435.04V127.364ZM438.521 123.178V127.364H437.107V119.944H438.423V121.176C438.927 120.35 439.767 119.804 440.789 119.804C442.315 119.804 443.323 120.784 443.323 122.562V127.364H441.909V123.038C441.909 121.764 441.349 121.05 440.299 121.05C439.333 121.05 438.521 121.862 438.521 123.178ZM444.669 123.654C444.669 121.4 445.957 119.804 447.959 119.804C448.953 119.804 449.821 120.308 450.339 121.218V117.312H451.753V127.364H450.437V126.034C449.905 126.972 449.009 127.504 447.959 127.504C445.957 127.504 444.669 125.88 444.669 123.654ZM446.139 123.654C446.139 125.306 447.007 126.244 448.239 126.244C449.443 126.244 450.339 125.264 450.339 123.626C450.339 121.96 449.415 121.05 448.239 121.05C447.007 121.05 446.139 121.974 446.139 123.654ZM455.44 118.222C455.44 118.754 455.02 119.16 454.418 119.16C453.816 119.16 453.382 118.754 453.382 118.222C453.382 117.676 453.816 117.284 454.418 117.284C455.02 117.284 455.44 117.676 455.44 118.222ZM455.132 127.364H453.718V119.944H455.132V127.364ZM461.589 127.364V126.216C461.127 127.042 460.301 127.504 459.209 127.504C457.669 127.504 456.661 126.622 456.661 125.264C456.661 123.808 457.823 123.052 460.035 123.052C460.469 123.052 460.819 123.066 461.421 123.136V122.59C461.421 121.526 460.847 120.924 459.867 120.924C458.831 120.924 458.201 121.54 458.159 122.576H456.871C456.941 120.91 458.131 119.804 459.867 119.804C461.701 119.804 462.765 120.84 462.765 122.604V127.364H461.589ZM458.005 125.222C458.005 125.992 458.579 126.496 459.489 126.496C460.679 126.496 461.421 125.754 461.421 124.62V124.018C460.875 123.948 460.483 123.934 460.119 123.934C458.705 123.934 458.005 124.354 458.005 125.222Z" fill="#E91639"/>
<defs>
<linearGradient id="paint0_linear_10048_24623" x1="308.333" y1="4" x2="308.333" y2="83.0601" gradientUnits="userSpaceOnUse">
<stop stop-color="#D29314"/>
<stop offset="1" stop-color="#BB8008"/>
</linearGradient>
<linearGradient id="paint1_linear_10048_24623" x1="308.333" y1="4" x2="308.333" y2="83.0601" gradientUnits="userSpaceOnUse">
<stop stop-color="#D29314"/>
<stop offset="1" stop-color="#BB8008"/>
</linearGradient>
<linearGradient id="paint2_linear_10048_24623" x1="308.333" y1="4" x2="308.333" y2="83.0601" gradientUnits="userSpaceOnUse">
<stop stop-color="#D29314"/>
<stop offset="1" stop-color="#BB8008"/>
</linearGradient>
<linearGradient id="paint3_linear_10048_24623" x1="308.333" y1="4" x2="308.333" y2="83.0601" gradientUnits="userSpaceOnUse">
<stop stop-color="#D29314"/>
<stop offset="1" stop-color="#BB8008"/>
</linearGradient>
<linearGradient id="paint4_linear_10048_24623" x1="308.333" y1="4" x2="308.333" y2="83.0601" gradientUnits="userSpaceOnUse">
<stop stop-color="#D29314"/>
<stop offset="1" stop-color="#BB8008"/>
</linearGradient>
<linearGradient id="paint5_linear_10048_24623" x1="308.333" y1="4" x2="308.333" y2="83.0601" gradientUnits="userSpaceOnUse">
<stop stop-color="#D29314"/>
<stop offset="1" stop-color="#BB8008"/>
</linearGradient>
<linearGradient id="paint6_linear_10048_24623" x1="308.333" y1="4" x2="308.333" y2="83.0601" gradientUnits="userSpaceOnUse">
<stop stop-color="#D29314"/>
<stop offset="1" stop-color="#BB8008"/>
</linearGradient>
<linearGradient id="paint7_linear_10048_24623" x1="308.333" y1="4" x2="308.333" y2="83.0601" gradientUnits="userSpaceOnUse">
<stop stop-color="#D29314"/>
<stop offset="1" stop-color="#BB8008"/>
</linearGradient>
</defs>
</svg>
