<svg width="48" height="49" viewBox="0 0 48 49" fill="none" xmlns="http://www.w3.org/2000/svg">
<g id="fi_3135755" clip-path="url(#clip0_8018_26347)">
<g id="Group">
<g id="Group_2">
<g id="Group_3">
<path id="Vector" d="M33.3076 35.3535L28.3343 29.9178V23.3054H19.6627V29.9199L14.7446 35.3535H33.3076Z" fill="#FFDDCE"/>
<path id="Vector_2" d="M32.4031 35.2557L27.9447 33.9468L24 38.4699L17.1797 30.6486L9.92976 32.7765C7.09991 33.6071 5.15601 36.2034 5.15601 39.1527V46.1484C5.15601 47.4472 6.20891 48.5 7.50772 48.5H10.6972L11.272 48.0898H11.5709L12.1457 48.5H35.851L36.6947 47.8979H37.3945V41.9231C37.3946 38.8393 35.3621 36.1244 32.4031 35.2557Z" fill="#407093"/>
<path id="Vector_3" d="M38.0708 32.7762L30.8216 30.648L27.4515 34.5123L31.955 35.8344C34.7847 36.6652 36.7283 39.2615 36.7283 42.2105V47.8979H37.2998V48.5H40.4924C41.7913 48.5 42.8441 47.4471 42.8441 46.1484V39.1524C42.8441 36.2033 40.9004 33.6069 38.0708 32.7762Z" fill="#365E7D"/>
<g id="Group_4">
<g id="Group_5">
<g id="Group_6">
<g id="Group_7">
<path id="Vector_4" d="M12.1458 48.5V44.6535C12.1458 44.2535 11.8215 43.9292 11.4215 43.9292C11.0214 43.9292 10.6971 44.2535 10.6971 44.6535V48.5H12.1458Z" fill="#365E7D"/>
<path id="Vector_5" d="M37.2997 48.5V44.6535C37.2997 44.2535 36.9754 43.9292 36.5754 43.9292C36.1754 43.9292 35.8511 44.2535 35.8511 44.6535V48.5H37.2997Z" fill="#365E7D"/>
</g>
</g>
</g>
</g>
</g>
<g id="Group_8">
<g id="Group_9">
<path id="Vector_6" d="M10.9336 14.6735L10.191 13.8547H8.60384L7.86124 14.6735L6.88259 20.4176C6.79024 20.9598 7.2079 21.4547 7.75793 21.4547H11.0367C11.5868 21.4547 12.0044 20.9598 11.9121 20.4176L10.9336 14.6735Z" fill="#E4F6FF"/>
<path id="Vector_7" d="M10.1218 13.2772V6.01386C10.1218 5.61383 9.79756 5.28955 9.39753 5.28955C8.9975 5.28955 8.67322 5.61383 8.67322 6.01386V13.2772H10.1218Z" fill="#407093"/>
<g id="Group_10">
<g id="Group_11">
<g id="Group_12">
<g id="Group_13">
<path id="Vector_8" d="M28.0131 5.43188H27.8533H20.1436H19.9839C17.0812 5.43188 14.7281 7.78492 14.7281 10.6876V10.7704V15.757L15.5973 16.5228H33.2687V10.7704V10.6876C33.2688 7.78501 30.9157 5.43188 28.0131 5.43188Z" fill="#EFC984"/>
</g>
</g>
</g>
</g>
<path id="Vector_9" d="M28.013 5.43188H27.8533H27.1729V16.5228H32.4664L33.2687 15.757V10.7704V10.6876C33.2688 7.78501 30.9156 5.43188 28.013 5.43188Z" fill="#EABC6B"/>
<g id="Group_14">
<path id="Vector_10" d="M24 27.1321C24.0874 27.1321 24.1743 27.1306 24.2609 27.1277C26.3346 25.8107 27.7431 23.5402 27.8686 20.932V11.7523H17.8967V14.1681C17.8967 15.0457 17.1852 15.757 16.3077 15.757H14.7297V18.3555C14.7297 19.0194 15.268 19.5578 15.932 19.5578C16.1414 19.5578 16.312 19.7219 16.3251 19.931C16.5786 23.9502 19.9168 27.1321 24 27.1321Z" fill="#FFDDCE"/>
</g>
<path id="Vector_11" d="M31.6924 15.757C30.8148 15.757 30.1034 15.0457 30.1034 14.1681V11.7523H27.173V20.6958C27.04 23.4588 25.45 25.8384 23.155 27.0846C23.4327 27.1149 23.7142 27.1321 24 27.1321C28.0832 27.1321 31.4214 23.9502 31.6749 19.931C31.6882 19.7219 31.8586 19.5578 32.068 19.5578C32.732 19.5578 33.2703 19.0195 33.2703 18.3555V15.757H31.6924Z" fill="#FFCBBE"/>
<path id="Vector_12" d="M27.8686 8.66776V6.87732C26.9864 6.87038 26.2732 6.15376 26.2732 5.26988V2.0522L25.5965 0.967789L24.2471 0.538602C24.0853 0.487133 23.9116 0.487133 23.7498 0.538602L9.05999 5.21101C8.24053 5.47163 8.32321 6.6572 9.1709 6.80157L23.9985 9.32691L27.8686 8.66776Z" fill="#407093"/>
<path id="Vector_13" d="M27.8686 6.90495L25.7321 6.64067C24.5807 6.49826 23.4161 6.49826 22.2648 6.64076L14.134 7.64689V11.2701C14.134 11.6628 14.4523 11.981 14.8449 11.981H27.8686V6.90495Z" fill="#4A80AA"/>
<g id="Group_15">
<path id="Vector_14" d="M38.937 5.21099L25.5964 0.967773V5.21905C25.5964 6.09243 26.3012 6.80062 27.1728 6.80746V8.78634L38.826 6.80165C39.6737 6.65709 39.7564 5.47162 38.937 5.21099Z" fill="#365E7D"/>
</g>
<path id="Vector_15" d="M27.173 6.81891V11.9811H33.1551C33.5477 11.9811 33.866 11.6628 33.866 11.2702V7.64682L27.173 6.81891Z" fill="#407093"/>
<path id="Vector_16" d="M10.9336 14.6735H7.86133V12.6568C7.86133 12.2283 8.20867 11.8809 8.6372 11.8809H10.1576C10.5862 11.8809 10.9335 12.2283 10.9335 12.6568L10.9336 14.6735Z" fill="#FFE07D"/>
</g>
</g>
<g id="Group_16">
<path id="Vector_17" d="M28.3344 27.4971C28.3344 30.3103 27.5177 33.0631 25.9836 35.4212L24.0001 38.4699L35.0664 31.8941L28.3344 27.4971Z" fill="#4A80AA"/>
<path id="Vector_18" d="M19.6658 27.4971C19.6658 30.3103 20.4825 33.0631 22.0166 35.4212L24.0001 38.4699L12.9338 31.8941L19.6658 27.4971Z" fill="#4A80AA"/>
</g>
<g id="Group_17">
<path id="Vector_19" d="M27.694 31.7573C26.5559 32.0079 25.3087 32.1468 24.0001 32.1468C22.6915 32.1468 21.4443 32.0079 20.3062 31.7573C20.7013 33.0456 21.274 34.2799 22.0165 35.4212L24.0001 38.4699L25.9836 35.4212C26.7262 34.2799 27.2989 33.0456 27.694 31.7573Z" fill="#F4FBFF"/>
</g>
</g>
</g>
</g>
<defs>
<clipPath id="clip0_8018_26347">
<rect width="48" height="48" fill="white" transform="translate(0 0.5)"/>
</clipPath>
</defs>
</svg>
