<svg width="48" height="49" viewBox="0 0 48 49" fill="none" xmlns="http://www.w3.org/2000/svg">
<g id="fi_675729" clip-path="url(#clip0_8018_26332)">
<path id="Vector" d="M36.9306 14.4978H34.8955C34.5667 13.3362 34.1026 12.2323 33.5203 11.2018L34.9502 9.78191C35.5325 9.20469 35.5325 8.26353 34.9511 7.68528L31.1633 3.92225C30.587 3.34897 29.6569 3.34897 29.0805 3.92131L27.6368 5.35625C26.6004 4.77791 25.4885 4.31684 24.3209 3.98994V1.97759C24.3209 1.16178 23.6591 0.5 22.8433 0.5H17.4775C16.6617 0.5 15.9999 1.16178 15.9999 1.97759V3.98975C14.8303 4.31666 13.7204 4.77772 12.6821 5.35606L11.2403 3.92225C10.664 3.34991 9.73388 3.34991 9.1575 3.92225L5.36963 7.68528C4.78829 8.26362 4.78829 9.20459 5.36963 9.78191L6.7995 11.2018C6.21816 12.2323 5.75316 13.3362 5.42325 14.4978H3.39019C2.57438 14.4978 1.9126 15.1587 1.9126 15.9754V21.2856C1.9126 22.1014 2.57438 22.7632 3.39019 22.7632H5.42325C5.75316 23.9238 6.21825 25.0287 6.7995 26.0582L5.36963 27.4782C4.78829 28.0565 4.78829 28.9975 5.36963 29.5748L9.1575 33.3378C9.73379 33.9102 10.6639 33.9102 11.2403 33.3369L12.6821 31.904C13.7205 32.4823 14.8305 32.9434 15.9999 33.2723V35.2835C15.9999 35.7207 16.1897 36.1132 16.4918 36.3825C16.7532 36.6191 17.099 36.7611 17.4775 36.7611H22.8433C23.6591 36.7611 24.3209 36.0993 24.3209 35.2835V33.2723C25.4885 32.9433 26.6004 32.4823 27.6368 31.904L29.0737 33.3309L29.0806 33.3378C29.6569 33.9102 30.587 33.9102 31.1633 33.3378L33.0851 31.429L34.9503 29.5748C35.5326 28.9974 35.5326 28.0564 34.9503 27.4782L33.5204 26.0582C34.1027 25.0287 34.5668 23.9238 34.8956 22.7632H36.9307C37.5864 22.7632 38.1429 22.3359 38.3357 21.7437C38.3825 21.5996 38.4083 21.4455 38.4083 21.2856V15.9754C38.4082 15.1586 37.7464 14.4978 36.9306 14.4978ZM20.1605 25.4123C19.9031 25.4123 19.6487 25.3984 19.3984 25.3696C15.999 24.992 13.3559 22.1184 13.3559 18.6305C13.3559 14.8843 16.4024 11.8478 20.1606 11.8478C23.9187 11.8478 26.9633 14.8844 26.9633 18.6305C26.9633 19.7842 26.6741 20.8712 26.1634 21.8232C25.0185 23.9595 22.7599 25.4123 20.1605 25.4123Z" fill="#737373"/>
<path id="Vector_2" d="M37.7195 22.2106L37.5238 22.4054C37.3976 22.3508 37.2704 22.2991 37.1422 22.2485V21.9981C37.1422 20.3913 35.8356 19.0837 34.2278 19.0837H30.1399C28.5332 19.0837 27.2254 20.3914 27.2254 21.9981V22.2485C27.0982 22.2991 26.9701 22.3508 26.8439 22.4054L26.6481 22.2116C26.4991 22.0636 26.336 21.9334 26.1632 21.8231C25.0185 23.9595 22.7599 25.4123 20.1604 25.4123C19.9031 25.4123 19.6487 25.3984 19.3984 25.3696C19.0058 25.8763 18.7942 26.4955 18.7942 27.1463C18.7942 27.9282 19.1003 28.6626 19.6548 29.2131L19.8297 29.3869C19.778 29.5072 19.7273 29.6274 19.6787 29.7486H19.4062C17.7995 29.7486 16.4918 31.0563 16.4918 32.663V36.3823C16.7532 36.6189 17.0989 36.7609 17.4775 36.7609H22.8433C23.6591 36.7609 24.3209 36.0991 24.3209 35.2833V33.2722C25.4884 32.9432 26.6004 32.4821 27.6368 31.9039L29.0736 33.3308C29.5993 32.1403 30.7956 31.3077 32.1838 31.3077C32.4958 31.3077 32.7979 31.3495 33.0851 31.429L34.9503 29.5748C35.5325 28.9974 35.5325 28.0564 34.9503 27.4781L33.5204 26.0582C34.1027 25.0287 34.5667 23.9238 34.8956 22.7632H36.9306C37.5864 22.7632 38.1429 22.3359 38.3357 21.7436C38.113 21.8688 37.9063 22.0258 37.7195 22.2106Z" fill="#606060"/>
<path id="Vector_3" d="M20.1605 8.04987C14.3166 8.04987 9.57983 12.7867 9.57983 18.6305C9.57983 24.2984 14.0374 28.9249 19.6386 29.1962C19.8115 29.2051 19.9854 29.2091 20.1603 29.2091C25.851 29.2091 30.4934 24.7157 30.7299 19.0837C30.7369 18.9336 30.7399 18.7826 30.7399 18.6305C30.7401 12.7867 26.0031 8.04987 20.1605 8.04987ZM26.1383 21.8668C24.9876 23.9793 22.742 25.4122 20.1604 25.4122C19.903 25.4122 19.6486 25.3983 19.3992 25.3695H19.3983C15.9989 24.9919 13.3558 22.1183 13.3558 18.6304C13.3558 14.8842 16.4023 11.8477 20.1605 11.8477C23.9186 11.8477 26.9631 14.8843 26.9631 18.6304C26.9631 19.7841 26.674 20.8711 26.1633 21.8231C26.1553 21.838 26.1463 21.853 26.1383 21.8668Z" fill="#333333"/>
<path id="Vector_4" d="M30.1398 19.0835C28.5331 19.0835 27.2254 20.3912 27.2254 21.9979V22.2483C27.0982 22.2989 26.97 22.3506 26.8438 22.4052L26.6481 22.2115C26.499 22.0634 26.336 21.9332 26.1631 21.823C26.1552 21.8379 26.1462 21.8528 26.1383 21.8667C24.9876 23.9792 22.7419 25.4121 20.1603 25.4121C19.9029 25.4121 19.6485 25.3982 19.3991 25.3694H19.3982C19.0057 25.8762 18.7941 26.4953 18.7941 27.1461C18.7941 27.9202 19.0942 28.6475 19.6387 29.196C19.8115 29.2049 19.9854 29.209 20.1603 29.209C25.851 29.209 30.4934 24.7155 30.7299 19.0835H30.1398Z" fill="#1A1A1A"/>
<path id="Vector_5" d="M46.0875 36.7092V32.6632C46.0875 32.0414 45.5834 31.5373 44.9616 31.5373H43.4115C43.1609 30.6526 42.807 29.8112 42.3635 29.0267L43.4531 27.9445C43.8963 27.5042 43.8963 26.7874 43.4532 26.3472L40.5673 23.4796C40.1282 23.0434 39.4194 23.0434 38.9804 23.4795L37.8804 24.5722C37.0905 24.1319 36.2438 23.7802 35.3539 23.5317V21.9985C35.3539 21.3767 34.8498 20.8726 34.2281 20.8726H30.1399C29.5182 20.8726 29.0141 21.3767 29.0141 21.9985V23.5317C28.1231 23.7803 27.2775 24.132 26.4866 24.5722L25.3876 23.48C24.9486 23.0437 24.2396 23.0436 23.8005 23.4799L20.9148 26.3472C20.4717 26.7876 20.4719 27.5044 20.9149 27.9446L22.0045 29.0268C21.561 29.8113 21.2073 30.6528 20.9556 31.5374H19.4065C18.7847 31.5374 18.2806 32.0415 18.2806 32.6633V36.7093C18.2806 37.3311 18.7847 37.8352 19.4065 37.8352H20.9556C21.2073 38.7199 21.5611 39.5613 22.0045 40.3458L20.915 41.428C20.4718 41.8682 20.4718 42.5851 20.915 43.0254L23.8005 45.8919C24.2397 46.3281 24.9486 46.328 25.3875 45.8917L26.4866 44.7994C27.2775 45.2407 28.1232 45.5914 29.0141 45.842V47.3742C29.0141 47.996 29.5182 48.5001 30.1399 48.5001H34.2282C34.8499 48.5001 35.354 47.996 35.354 47.3742V45.842C36.2439 45.5914 37.0906 45.2407 37.8805 44.7994L38.9805 45.8922C39.4196 46.3283 40.1283 46.3282 40.5674 45.8922L43.4531 43.0255C43.8963 42.5851 43.8963 41.8683 43.4531 41.4281L42.3636 40.3459C42.807 39.5614 43.1608 38.7199 43.4115 37.8353H44.9617C45.5834 37.8351 46.0875 37.3311 46.0875 36.7092ZM32.1841 39.8539C29.3207 39.8539 26.9996 37.5402 26.9996 34.6863C26.9996 31.8324 29.3207 29.5187 32.1841 29.5187C35.0475 29.5187 37.3676 31.8324 37.3676 34.6863C37.3676 37.5402 35.0475 39.8539 32.1841 39.8539Z" fill="#C2C2C2"/>
<path id="Vector_6" d="M32.1841 26.6248C27.7315 26.6248 24.1224 30.2338 24.1224 34.6863C24.1224 39.1378 27.7314 42.7469 32.1841 42.7469C36.6356 42.7469 40.2447 39.1379 40.2447 34.6863C40.2446 30.2338 36.6356 26.6248 32.1841 26.6248ZM32.1841 39.8539C29.3207 39.8539 26.9995 37.5403 26.9995 34.6863C26.9995 31.8324 29.3207 29.5187 32.1841 29.5187C35.0475 29.5187 37.3675 31.8324 37.3675 34.6863C37.3675 37.5403 35.0475 39.8539 32.1841 39.8539Z" fill="#808080"/>
</g>
<defs>
<clipPath id="clip0_8018_26332">
<rect width="48" height="48" fill="white" transform="translate(0 0.5)"/>
</clipPath>
</defs>
</svg>
