<svg width="48" height="49" viewBox="0 0 48 49" fill="none" xmlns="http://www.w3.org/2000/svg">
<g id="fi_3281289" clip-path="url(#clip0_8018_26387)">
<g id="Group">
<g id="Group_2">
<path id="Vector" d="M31.5783 5.63805C31.5004 5.57861 30.7789 5.0419 29.4937 4.52543C27.838 3.85999 25.9381 3.50824 23.9997 3.50824C22.0612 3.50824 20.1615 3.85999 18.5056 4.52543C17.2204 5.0419 16.4989 5.57861 16.4209 5.63815C16.0296 5.93655 15.7999 6.40052 15.7999 6.89261V9.36771L17.3775 10.2115L18.9551 9.36771V7.78596C19.8209 7.34412 21.5522 6.6633 23.9996 6.6633C26.447 6.6633 28.1783 7.34412 29.0441 7.78596V9.36761L30.6216 10.2114L32.1992 9.36761V6.89261C32.1994 6.40043 31.9697 5.93646 31.5783 5.63805Z" fill="#E8834D"/>
<g id="Group_3">
<path id="Vector_2" d="M15.7999 9.36771V11.1096L17.3776 11.9533L18.9552 11.1096V9.36771H15.7999Z" fill="#D66E41"/>
<path id="Vector_3" d="M32.1993 9.36771H29.0442V11.1096L30.6218 11.9533L32.1993 11.1096V9.36771Z" fill="#D66E41"/>
</g>
<path id="Vector_4" d="M1.24194 28.4643V42.4792C1.24194 44.143 2.59072 45.4917 4.25451 45.4917H43.7456C45.4093 45.4917 46.7581 44.143 46.7581 42.4792V28.4643H1.24194Z" fill="#7D5436"/>
<path id="Vector_5" d="M1.24194 26.7224V28.4644C3.74469 30.4515 10.3593 34.309 24 34.309C37.6408 34.309 44.2554 30.4515 46.7581 28.4643V26.7223H1.24194V26.7224Z" fill="#66442B"/>
<path id="Vector_6" d="M1.11112 25.7192C3.50972 27.672 10.1152 31.669 24 31.669C37.8848 31.669 44.4902 27.672 46.8889 25.7192C47.592 25.1468 48 23.4452 48 22.5386V14.1222C48 12.4584 46.6512 11.1096 44.9874 11.1096H3.01256C1.34878 11.1096 0 12.4584 0 14.1222V22.5386C0 23.4452 0.408 25.1468 1.11112 25.7192Z" fill="#936340"/>
<path id="Vector_7" d="M46.8889 24.8755C44.4903 26.8283 37.8848 30.8252 24 30.8252C10.1152 30.8252 3.50981 26.8282 1.11112 24.8755C0.408 24.303 0 23.4452 0 22.5385V24.2805C0 25.1872 0.408 26.045 1.11112 26.6174C3.50972 28.5702 10.1152 32.5672 24 32.5672C37.8848 32.5672 44.4902 28.5702 46.8889 26.6174C47.592 26.045 48 25.1872 48 24.2805V22.5385C48 23.4452 47.592 24.303 46.8889 24.8755Z" fill="#7D5436"/>
<path id="Vector_8" d="M23.9997 35.4663C25.5582 35.4663 26.8216 34.309 26.8216 31.8007V30.0897C26.8216 29.5351 26.372 29.0856 25.8174 29.0856H22.182C21.6274 29.0856 21.1779 29.5352 21.1779 30.0897V31.8009C21.1778 34.309 22.4412 35.4663 23.9997 35.4663Z" fill="#FFE27A"/>
<path id="Vector_9" d="M23.9997 34.6225C22.4412 34.6225 21.1779 33.3592 21.1779 31.8007V33.5426C21.1779 35.1011 22.4412 36.3645 23.9997 36.3645C25.5582 36.3645 26.8216 35.1011 26.8216 33.5426V31.8007C26.8216 33.3591 25.5582 34.6225 23.9997 34.6225Z" fill="#F9CF58"/>
</g>
</g>
</g>
<defs>
<clipPath id="clip0_8018_26387">
<rect width="48" height="48" fill="white" transform="translate(0 0.5)"/>
</clipPath>
</defs>
</svg>
