<svg width="151" height="146" viewBox="0 0 151 146" fill="none" xmlns="http://www.w3.org/2000/svg">
<path d="M131.103 40.5859C137.037 53.8653 138.119 69.4087 132.957 84.2497C131.836 87.4736 130.472 90.5282 128.875 93.4083C129.107 95.228 129.23 97.0687 129.246 98.9219C129.251 99.5431 129.242 100.166 129.222 100.789C129.221 100.84 129.219 100.892 129.218 100.943C129.196 101.576 129.162 102.211 129.114 102.846C129.113 102.853 129.112 102.859 129.112 102.866C129.066 103.465 129.006 104.065 128.936 104.665C128.926 104.757 128.916 104.848 128.905 104.94C128.83 105.553 128.745 106.167 128.646 106.781C128.642 106.805 128.637 106.83 128.633 106.854C128.539 107.423 128.432 107.992 128.317 108.561C128.291 108.689 128.265 108.816 128.238 108.944C128.113 109.538 127.978 110.131 127.829 110.723C127.822 110.752 127.813 110.782 127.806 110.811C127.664 111.366 127.509 111.922 127.345 112.476C127.302 112.623 127.259 112.77 127.214 112.917C127.036 113.499 126.851 114.081 126.649 114.661C125.207 118.81 123.238 122.606 120.852 126.023L120.849 126.031C113.112 137.065 100.961 143.971 87.8908 145.062C87.8886 145.065 87.8858 145.067 87.8835 145.07C110.451 143.897 137.171 120.029 142.789 95.2041L142.788 95.203C148.081 76.497 143.227 56.5652 131.103 40.5859Z" fill="url(#paint0_linear_2230_69016)"/>
<path d="M142.304 96.8265C152.589 64.2428 131.594 27.4855 94.7073 14.1425C88.7079 11.9722 82.6522 10.5515 76.6601 9.84113C45.8362 6.14039 16.8256 21.0354 6.65234 47.7589C20.4901 10.5498 61.0436 -8.72334 98.0096 4.64805C100.319 5.48344 102.564 6.43136 104.732 7.46907C137.298 23.1318 153.78 61.4064 142.304 96.8265Z" fill="url(#paint1_linear_2230_69016)"/>
<path d="M115.894 105.521C109.362 124.302 93.1254 136.739 74.9729 139.043C75.5513 138.809 76.1353 138.559 76.7037 138.303L76.7143 138.298C84.4685 134.784 91.2396 129.07 96.0543 121.606L96.0571 121.598C98.0053 118.574 99.6363 115.263 100.878 111.694C106.174 96.4661 103.106 80.2777 94.1128 68.3441C94.105 68.3412 94.1078 68.3333 94.1 68.3304C89.5356 62.2894 83.4531 57.347 76.1682 54.1776C75.2966 53.7991 74.4095 53.4417 73.5106 53.1166C54.8816 46.3783 34.7904 52.9046 23.184 67.8769C32.8568 45.5526 56.7512 33.4508 79.8945 38.8445C79.9263 38.8558 79.9575 38.8672 79.992 38.8706C81.9402 39.394 83.8917 40.0095 85.8387 40.7141C87.1867 41.2017 88.513 41.7268 89.807 42.294C112.979 53.1916 124.593 80.509 115.894 105.521Z" fill="url(#paint2_linear_2230_69016)"/>
<path d="M23.183 67.8762C20.1928 71.7275 17.7637 76.1346 16.0664 81.0146C13.5164 88.3467 12.9067 95.892 13.9572 103.079C13.8284 102.887 13.6947 102.685 13.5715 102.477C8.8477 91.5365 7.926 79.5904 11.824 68.3831C18.0624 50.4466 35.0687 38.9847 55.1209 36.8337C63.0578 35.9846 71.4807 36.5967 79.8941 38.8431C56.7503 33.45 32.8558 45.5519 23.183 67.8762Z" fill="url(#paint3_linear_2230_69016)"/>
<path d="M95.9313 121.806C92.5337 127.619 83.4895 137.037 71.0338 140.415C69.0449 140.954 66.9837 141.113 64.9475 140.766C64.9369 140.771 64.9291 140.768 64.9207 140.765C61.2451 138.983 57.9027 136.751 54.9303 134.146C46.4678 126.732 41.0246 116.354 39.6097 105.162C39.5545 104.862 39.5021 104.553 39.4604 104.239C39.3272 103.295 39.2737 102.353 39.2854 101.425C39.2859 101.398 39.2865 101.371 39.2843 101.352C39.3862 95.6228 42.0956 90.3848 46.3943 87.0342C51.5394 101.331 62.6527 113.271 77.8206 118.758C83.8122 120.925 89.9314 121.908 95.9313 121.806Z" fill="url(#paint4_linear_2230_69016)"/>
<path d="M96.0545 121.607C96.0139 121.673 95.9804 121.743 95.9319 121.807C89.9326 121.909 83.8128 120.926 77.8212 118.759C62.6533 113.272 51.5406 101.333 46.3949 87.0354C48.7922 85.1691 51.671 83.8842 54.8729 83.4312C64.237 82.1026 72.9146 88.3367 74.9798 97.5562C74.9848 97.567 75.3782 100.162 75.3804 100.181C77.5337 111.088 85.8507 119.328 96.0545 121.607Z" fill="url(#paint5_linear_2230_69016)"/>
<path d="M128.773 92.6563C128.771 92.6376 128.761 92.6154 128.767 92.5995C128.729 92.3506 128.202 88.838 128.166 88.6084C127.984 87.3206 127.749 86.0317 127.458 84.7497C127.448 84.7281 127.433 84.6951 127.438 84.6792C126.587 80.95 125.288 77.2851 123.585 73.7361C123.582 73.7174 123.577 73.7066 123.58 73.698C117.261 60.5057 105.386 48.9693 89.8068 42.293C112.98 53.1911 124.593 80.5091 115.894 105.52C109.404 124.182 93.3297 136.576 75.3165 138.993C75.3026 138.987 75.2953 138.983 75.2953 138.983C63.4871 140.408 53.1111 132.457 53.1111 132.457C62.3581 140.695 70.0471 144.69 81.9902 145.161C82.0448 145.164 82.0994 145.164 82.1534 145.167C82.4572 145.178 82.7625 145.188 83.0724 145.195C83.6207 145.209 84.1674 145.213 84.7135 145.208C84.9325 145.207 85.1492 145.208 85.3716 145.205C85.3699 145.204 85.3682 145.202 85.3666 145.2C99.3848 144.841 112.615 137.771 120.849 126.03L120.851 126.022C123.238 122.604 125.206 118.809 126.649 114.66C129.191 107.353 129.811 99.8294 128.773 92.6563Z" fill="url(#paint6_linear_2230_69016)"/>
<path d="M132.957 84.2494C131.836 87.4733 130.472 90.5279 128.875 93.408C128.84 93.1511 128.811 92.9051 128.773 92.6562C128.771 92.6374 128.761 92.6152 128.766 92.5993C128.728 92.3504 128.202 88.8378 128.166 88.6082C127.984 87.3204 127.749 86.0315 127.458 84.7495C127.448 84.7279 127.432 84.6949 127.438 84.679C126.587 80.9499 125.288 77.2849 123.584 73.7359C123.582 73.7172 123.577 73.7064 123.58 73.6979C119.605 65.3996 113.438 57.7652 105.535 51.5759C99.8174 47.0909 93.2017 43.3765 85.8382 40.7129C75.471 36.9627 64.9295 35.7835 55.1207 36.8337C42.9129 38.1471 31.8336 42.9014 23.6253 50.4768C18.3565 55.3414 14.2645 61.3647 11.8238 68.3832C7.92579 79.5905 8.84748 91.5366 13.5713 102.477C13.3785 102.19 13.1879 101.895 13.0085 101.595C12.7003 101.103 12.395 100.604 12.1002 100.099C11.8204 99.6263 11.549 99.1569 11.2827 98.6716C11.2465 98.6221 11.2208 98.5676 11.1879 98.5107C10.9472 98.08 10.7093 97.6407 10.4825 97.1963C10.4362 97.1252 10.3927 97.0462 10.3599 96.9616C10.1019 96.4791 9.85388 95.9909 9.61705 95.4982C9.40027 95.076 9.1941 94.648 8.99571 94.2235C8.46131 93.0801 7.96479 91.9316 7.50729 90.7706C7.29219 90.2403 7.08823 89.7044 6.88372 89.1691C6.45798 88.0194 6.06177 86.8624 5.7107 85.7036C5.58086 85.2854 5.45381 84.8597 5.33511 84.4363C5.3 84.3329 5.2649 84.2301 5.24038 84.1215C5.10664 83.6385 4.97568 83.1475 4.85253 82.6599C4.72715 82.1529 4.60177 81.646 4.49199 81.1448C4.39391 80.7379 4.30364 80.3344 4.22395 79.9252C4.15819 79.6297 4.10024 79.337 4.05009 79.0478C3.95814 78.5983 3.87678 78.1431 3.80322 77.6913C3.71295 77.1338 3.62323 76.5763 3.54856 76.0245C3.47834 75.5374 3.41593 75.0532 3.36411 74.5639C3.33792 74.4099 3.32231 74.2502 3.30671 74.0906C3.19359 73.0631 3.11 72.0282 3.05539 70.9854C3.02586 70.4319 3.00245 69.8619 2.99186 69.3061C2.96567 68.3099 2.96567 67.3142 2.99242 66.3191C2.99576 66.0037 3.00691 65.6906 3.02864 65.3729C3.03421 65.0763 3.05818 64.7773 3.07155 64.4835C3.08325 64.2704 3.09551 64.0579 3.11501 63.8476C3.13619 63.4299 3.17576 63.0099 3.21811 62.5815C3.21309 62.5707 3.21086 62.5513 3.21922 62.5275C3.26269 62.0456 3.31674 61.558 3.37079 61.0709C3.38695 60.9226 3.4059 60.7669 3.43209 60.6135C3.48503 60.1798 3.54633 59.7496 3.61487 59.3217C3.62156 59.2518 3.62825 59.1819 3.64552 59.1063C3.70626 58.7028 3.77146 58.3102 3.8478 57.9123C3.88681 57.6731 3.92861 57.4253 3.97764 57.181C4.00718 57.0196 4.03671 56.8582 4.07684 56.6917C4.15039 56.3018 4.23454 55.9068 4.32648 55.5147C4.42512 55.0527 4.53155 54.5935 4.65694 54.1315C4.75223 53.7047 4.8659 53.2751 4.98794 52.8483C5.16738 52.18 5.36465 51.5094 5.57863 50.8445C5.74191 50.3245 5.91298 49.8068 6.09186 49.2925C6.27074 48.7782 6.45742 48.2661 6.65246 47.7575C11.5084 34.9959 20.6601 24.9376 32.2583 18.3079C40.6343 13.5172 50.2993 10.5058 60.5394 9.59369C71.5563 8.59122 83.2369 9.99263 94.7074 14.1418C109.891 19.6337 122.376 29.0828 131.103 40.5851C137.038 53.865 138.119 69.4084 132.957 84.2494Z" fill="url(#paint7_linear_2230_69016)"/>
<path d="M105.535 51.5776C99.8174 47.0927 93.2017 43.3783 85.8382 40.7147C75.471 36.9645 64.9294 35.7853 55.1207 36.8355C35.0685 38.9865 18.0622 50.4484 11.8238 68.3849C7.92578 79.5923 8.84748 91.5384 13.5713 102.479C13.3785 102.192 13.1879 101.897 13.0085 101.597C12.7003 101.105 12.395 100.606 12.1002 100.1C11.8204 99.6281 11.549 99.1586 11.2827 98.6733C11.2465 98.6239 11.2208 98.5693 11.1879 98.5125C10.9472 98.0817 10.7093 97.6424 10.4825 97.198C10.4362 97.127 10.3927 97.048 10.3599 96.9633C10.1019 96.4809 9.85388 95.9927 9.61704 95.5C9.40027 95.0777 9.19409 94.6498 8.99571 94.2253C8.46131 93.0819 7.96479 91.9334 7.50729 90.7723C7.29219 90.2421 7.08823 89.7062 6.88372 89.1709C6.45798 88.0212 6.06177 86.8642 5.7107 85.7054C5.58086 85.2872 5.45381 84.8615 5.33511 84.4381C5.3 84.3347 5.2649 84.2318 5.24038 84.1233C5.10664 83.6402 4.97568 83.1492 4.85253 82.6616C4.72715 82.1547 4.60177 81.6478 4.49199 81.1466C4.39391 80.7397 4.30364 80.3362 4.22395 79.927C4.15819 79.6315 4.10024 79.3388 4.05009 79.0496C3.95814 78.6 3.87678 78.1448 3.80322 77.693C3.71295 77.1355 3.62323 76.578 3.54856 76.0262C3.47835 75.5392 3.41593 75.055 3.36411 74.5657C3.33792 74.4117 3.32231 74.252 3.30671 74.0923C3.19359 73.0648 3.11 72.03 3.05539 70.9872C3.02586 70.4337 3.00245 69.8637 2.99186 69.3079C2.96567 68.3116 2.96567 67.316 2.99242 66.3209C2.99576 66.0055 3.00691 65.6924 3.02864 65.3747C3.03421 65.078 3.05818 64.7791 3.07155 64.4853C3.08325 64.2722 3.09551 64.0597 3.11502 63.8494C3.13619 63.4317 3.17576 63.0117 3.21811 62.5832C3.21309 62.5724 3.21086 62.5531 3.21922 62.5292C3.26269 62.0473 3.31674 61.5597 3.3708 61.0727C3.38696 60.9244 3.4059 60.7687 3.43209 60.6152C3.48503 60.1816 3.54633 59.7514 3.61487 59.3235C3.62156 59.2536 3.62825 59.1837 3.64552 59.1081C3.70626 58.7046 3.77146 58.3119 3.8478 57.9141C3.88681 57.6749 3.92861 57.4271 3.97764 57.1827C4.00718 57.0213 4.03671 56.8599 4.07684 56.6934C4.15039 56.3036 4.23454 55.9086 4.32648 55.5165C4.42512 55.0545 4.53155 54.5953 4.65694 54.1333C4.75223 53.7065 4.86591 53.2768 4.98795 52.8501C5.16738 52.1817 5.36465 51.5112 5.57863 50.8463C5.74191 50.3263 5.91298 49.8085 6.09186 49.2942C6.27074 48.7799 6.45742 48.2679 6.65246 47.7593C11.5084 34.9977 20.6601 24.9394 32.2582 18.3097C44.4337 13.6446 58.2207 13.174 71.4337 17.9528C87.6726 23.8278 99.6864 36.419 105.535 51.5776Z" fill="url(#paint8_linear_2230_69016)"/>
<path d="M141.144 95.892C151.429 63.3082 130.434 26.551 93.5468 13.208C87.5474 11.0377 81.4918 9.61692 75.4996 8.90655C84.5611 6.63621 94.0328 5.78946 103.572 6.53392C136.137 22.1973 152.62 60.4719 141.144 95.892Z" fill="url(#paint9_linear_2230_69016)"/>
<defs>
<linearGradient id="paint0_linear_2230_69016" x1="116.141" y1="116.453" x2="128.642" y2="51.7574" gradientUnits="userSpaceOnUse">
<stop stop-color="#0059CF"/>
<stop offset="0.3091" stop-color="#0041B4"/>
<stop offset="0.7558" stop-color="#002393"/>
<stop offset="0.9996" stop-color="#001886"/>
</linearGradient>
<linearGradient id="paint1_linear_2230_69016" x1="104.386" y1="48.7152" x2="27.1124" y2="51.0361" gradientUnits="userSpaceOnUse">
<stop stop-color="#8137C2"/>
<stop offset="1" stop-color="#300054"/>
</linearGradient>
<linearGradient id="paint2_linear_2230_69016" x1="58.7881" y1="26.4457" x2="84.9269" y2="126.512" gradientUnits="userSpaceOnUse">
<stop offset="0.00030185" stop-color="#C66FD7"/>
<stop offset="1" stop-color="#8137C2"/>
</linearGradient>
<linearGradient id="paint3_linear_2230_69016" x1="22.9717" y1="98.7091" x2="49.1927" y2="48.5732" gradientUnits="userSpaceOnUse">
<stop offset="0.00030185" stop-color="#C66FD7"/>
<stop offset="1" stop-color="#8137C2"/>
</linearGradient>
<linearGradient id="paint4_linear_2230_69016" x1="36.3612" y1="106.92" x2="94.1214" y2="127.009" gradientUnits="userSpaceOnUse">
<stop offset="0.00030185" stop-color="#FFC9E1"/>
<stop offset="1" stop-color="#8137C2"/>
</linearGradient>
<linearGradient id="paint5_linear_2230_69016" x1="52.916" y1="82.7637" x2="78.4232" y2="114.494" gradientUnits="userSpaceOnUse">
<stop offset="0.00030185" stop-color="#FFC9E1"/>
<stop offset="1" stop-color="#8137C2"/>
</linearGradient>
<linearGradient id="paint6_linear_2230_69016" x1="61.8416" y1="128.845" x2="132.577" y2="59.6502" gradientUnits="userSpaceOnUse">
<stop stop-color="#FFC9E1"/>
<stop offset="1" stop-color="#8137C2"/>
</linearGradient>
<linearGradient id="paint7_linear_2230_69016" x1="114.78" y1="101.839" x2="41.3841" y2="48.487" gradientUnits="userSpaceOnUse">
<stop stop-color="#0059CF"/>
<stop offset="0.9996" stop-color="#001886"/>
</linearGradient>
<linearGradient id="paint8_linear_2230_69016" x1="16.3605" y1="62.2749" x2="85.4463" y2="42.3779" gradientUnits="userSpaceOnUse">
<stop offset="0.00028409" stop-color="#44FFFF"/>
<stop offset="0.9996" stop-color="#0059CF"/>
</linearGradient>
<linearGradient id="paint9_linear_2230_69016" x1="147.439" y1="77.2431" x2="91.3203" y2="8.38456" gradientUnits="userSpaceOnUse">
<stop stop-color="#8137C2"/>
<stop offset="1" stop-color="#300054"/>
</linearGradient>
</defs>
</svg>
