<svg width="21" height="20" viewBox="0 0 21 20" fill="none" xmlns="http://www.w3.org/2000/svg">
<g id="vuesax/linear/trash">
<g id="trash">
<path id="Vector" d="M18.1667 4.98332C15.3917 4.70832 12.6001 4.56665 9.81675 4.56665C8.16675 4.56665 6.51675 4.64998 4.86675 4.81665L3.16675 4.98332" stroke="#D93400" stroke-width="1.5" stroke-linecap="round" stroke-linejoin="round"/>
<path id="Vector_2" d="M7.75 4.14163L7.93333 3.04996C8.06667 2.25829 8.16667 1.66663 9.575 1.66663H11.7583C13.1667 1.66663 13.275 2.29163 13.4 3.05829L13.5833 4.14163" stroke="#D93400" stroke-width="1.5" stroke-linecap="round" stroke-linejoin="round"/>
<path id="Vector_3" d="M16.3752 7.6167L15.8335 16.0084C15.7418 17.3167 15.6668 18.3334 13.3418 18.3334H7.99183C5.66683 18.3334 5.59183 17.3167 5.50016 16.0084L4.9585 7.6167" stroke="#D93400" stroke-width="1.5" stroke-linecap="round" stroke-linejoin="round"/>
<path id="Vector_4" d="M9.27515 13.75H12.0501" stroke="#D93400" stroke-width="1.5" stroke-linecap="round" stroke-linejoin="round"/>
<path id="Vector_5" d="M8.5835 10.4166H12.7502" stroke="#D93400" stroke-width="1.5" stroke-linecap="round" stroke-linejoin="round"/>
</g>
</g>
</svg>
