<svg width="21" height="21" viewBox="0 0 21 21" fill="none" xmlns="http://www.w3.org/2000/svg">
<g id="vuesax/linear/trash">
<g id="trash">
<path id="Vector" d="M18 5.48335C15.225 5.20835 12.4333 5.06668 9.65 5.06668C8 5.06668 6.35 5.15001 4.7 5.31668L3 5.48335" stroke="#000833" stroke-width="1.5" stroke-linecap="round" stroke-linejoin="round"/>
<path id="Vector_2" d="M7.58325 4.64166L7.76659 3.54999C7.89992 2.75832 7.99992 2.16666 9.40825 2.16666H11.5916C12.9999 2.16666 13.1083 2.79166 13.2333 3.55832L13.4166 4.64166" stroke="#000833" stroke-width="1.5" stroke-linecap="round" stroke-linejoin="round"/>
<path id="Vector_3" d="M16.2084 8.11667L15.6667 16.5083C15.5751 17.8167 15.5001 18.8333 13.1751 18.8333H7.82508C5.50008 18.8333 5.42508 17.8167 5.33341 16.5083L4.79175 8.11667" stroke="#292D32" stroke-width="1.5" stroke-linecap="round" stroke-linejoin="round"/>
<path id="Vector_4" d="M9.1084 14.25H11.8834" stroke="#292D32" stroke-width="1.5" stroke-linecap="round" stroke-linejoin="round"/>
<path id="Vector_5" d="M8.41675 10.9167H12.5834" stroke="#292D32" stroke-width="1.5" stroke-linecap="round" stroke-linejoin="round"/>
</g>
</g>
</svg>
