<svg width="69" height="60" viewBox="0 0 69 60" fill="none" xmlns="http://www.w3.org/2000/svg">
<g id="Upload icon">
<path id="Vector" d="M36.1368 14.7459L36.2291 14.7734L36.2331 14.7688C36.6707 14.8481 37.1049 14.5861 37.2335 14.152C38.4051 10.2153 42.0962 7.46512 46.2086 7.46512C46.6955 7.46512 47.0904 7.07024 47.0904 6.58338C47.0904 6.0965 46.6955 5.70164 46.2086 5.70164C41.1545 5.70164 36.9073 9.06673 35.5436 13.6494C35.4044 14.1162 35.6703 14.6068 36.1368 14.7459Z" fill="#04AF55" stroke="#F9FFF9" stroke-width="0.3"/>
<path id="Vector_2" d="M56.4523 42.4384H52.062C51.658 42.4384 51.3302 42.1107 51.3302 41.7067C51.3302 41.3027 51.6579 40.9749 52.062 40.9749H56.4523C62.5042 40.9749 67.4283 36.0509 67.4283 29.999C67.4283 23.9471 62.5042 19.023 56.4523 19.023H56.3467C56.1345 19.023 55.9328 18.9311 55.7937 18.7706C55.6547 18.6101 55.592 18.3974 55.6223 18.1873C55.6877 17.7315 55.7206 17.2737 55.7206 16.8279C55.7206 11.5829 51.4529 7.31531 46.208 7.31531C44.1675 7.31531 42.2216 7.95296 40.5804 9.15978C40.2198 9.42478 39.7076 9.30718 39.499 8.91047C34.851 0.0596993 22.7108 -1.12887 16.4168 6.57053C13.7653 9.81417 12.7236 14.0336 13.5583 18.146C13.6503 18.6002 13.3028 19.0236 12.8412 19.0236H12.548C6.49615 19.0236 1.57208 23.9477 1.57208 29.9996C1.57208 36.0514 6.49615 40.9755 12.548 40.9755H16.9384C17.3424 40.9755 17.6701 41.3032 17.6701 41.7072C17.6701 42.1113 17.3424 42.439 16.9384 42.439H12.548C5.68905 42.439 0.108551 36.8585 0.108551 29.9995C0.108551 23.3329 5.3801 17.8742 11.9736 17.5731C11.3543 13.3066 12.5386 9.00295 15.2836 5.64437C22.0223 -2.5996 34.9365 -1.67556 40.3957 7.51707C42.1372 6.42522 44.1301 5.85244 46.2078 5.85244C52.5623 5.85244 57.5977 11.261 57.1571 17.58C63.6899 17.9463 68.8915 23.3763 68.8915 29.999C68.8915 36.8585 63.311 42.4384 56.452 42.4384L56.4523 42.4384Z" fill="#04AF55"/>
<path id="Vector_3" d="M15.9586 41.2935C15.9586 51.4634 24.2322 59.737 34.402 59.737C44.572 59.737 52.8455 51.4633 52.8455 41.2935C52.8455 31.1235 44.572 22.85 34.402 22.85C24.2321 22.85 15.9586 31.1237 15.9586 41.2935ZM17.7224 41.2935C17.7224 32.0966 25.205 24.6138 34.402 24.6138C43.5989 24.6138 51.0817 32.0964 51.0817 41.2935C51.0817 50.4904 43.5989 57.9732 34.402 57.9732C25.2051 57.9732 17.7224 50.4905 17.7224 41.2935Z" fill="#04AF55" stroke="#F9FFF9" stroke-width="0.3"/>
<g id="arrow">
<path id="Vector_4" d="M34.0508 48.6577C34.0508 49.0364 34.3578 49.3435 34.7365 49.3435C35.115 49.3435 35.4222 49.0368 35.4222 48.6577V34.7292C35.4222 34.3505 35.1151 34.0435 34.7365 34.0435C34.3578 34.0435 34.0508 34.3505 34.0508 34.7292V48.6577Z" fill="#04AF55" stroke="#04AF55" stroke-width="0.3"/>
<path id="Vector_5" d="M34.7364 35.7003L30.9357 39.5009L34.7364 35.7003ZM34.7364 35.7003L38.5372 39.501C38.6709 39.6348 38.8469 39.7018 39.022 39.7019L34.7364 35.7003ZM29.9659 39.501C30.2337 39.7688 30.6681 39.769 30.9356 39.501L39.0221 39.7019C39.1969 39.7018 39.373 39.6353 39.507 39.501C39.7748 39.2331 39.7748 38.7991 39.5069 38.5313L35.2213 34.2456C34.9535 33.9778 34.5191 33.9776 34.2515 34.2456C34.2515 34.2456 34.2514 34.2457 34.2514 34.2457L29.9659 38.5313C29.698 38.7991 29.698 39.2331 29.9659 39.501Z" fill="#04AF55" stroke="#04AF55" stroke-width="0.3"/>
</g>
</g>
</svg>
