<svg width="48" height="49" viewBox="0 0 48 49" fill="none" xmlns="http://www.w3.org/2000/svg">
<g id="fi_3220315" clip-path="url(#clip0_8018_26445)">
<g id="Group">
<path id="Vector" d="M37.9376 21.001C37.9376 19.8012 37.4527 18.715 36.6683 17.9269C36.2115 17.4679 35.9936 16.8243 36.0341 16.178C36.0385 16.1069 36.0408 16.0353 36.0408 15.9632C36.0408 14.7698 35.4279 13.7194 34.4997 13.1098C33.8735 12.6984 33.4779 12.0166 33.4779 11.2674V10.0974C33.4779 4.87092 29.2973 0.538824 24.0709 0.500292C18.8034 0.461574 14.5218 4.71979 14.5218 9.97814V11.2674C14.5218 12.0167 14.1262 12.6984 13.4999 13.1098C12.5718 13.7194 11.9589 14.7697 11.9589 15.9632C11.9589 16.0354 11.9611 16.107 11.9655 16.178C12.006 16.8243 11.7881 17.4679 11.3314 17.9269C10.547 18.7151 10.062 19.8012 10.062 21.001C10.062 22.2083 10.5531 23.3006 11.3461 24.0899C11.7939 24.5354 12.0164 25.1489 11.9686 25.7788C11.953 25.984 11.9557 26.1942 11.9784 26.408C12.0828 27.3919 12.6149 28.2496 13.3778 28.8015L13.9306 29.3357H33.7485L34.6205 28.8024C35.384 28.2505 35.9166 27.3924 36.021 26.4079C36.0437 26.1941 36.0464 25.9838 36.0309 25.7787C35.983 25.1489 36.2056 24.5354 36.6534 24.0898C37.4467 23.3006 37.9376 22.2083 37.9376 21.001Z" fill="#9D5E5E"/>
<path id="Vector_2" d="M16.588 26.4081C16.5654 26.1943 16.5626 25.984 16.5783 25.7789C16.6261 25.149 16.4035 24.5355 15.9558 24.09C15.1628 23.3006 14.6717 22.2084 14.6717 21.0011C14.6717 19.8013 15.1567 18.7151 15.9411 17.927C16.3979 17.468 16.6157 16.8244 16.5752 16.1781C16.5707 16.107 16.5685 16.0354 16.5685 15.9633C16.5685 14.7699 17.1814 13.7195 18.1096 13.1099C18.7359 12.6985 19.1315 12.0167 19.1315 11.2675V9.97814C19.1315 5.54189 22.179 1.81757 26.2948 0.784636C25.5826 0.60473 24.8383 0.505917 24.0712 0.500292C18.8034 0.461574 14.5218 4.71979 14.5218 9.97814V11.2674C14.5218 12.0167 14.1262 12.6984 13.4999 13.1098C12.5718 13.7194 11.9589 14.7697 11.9589 15.9632C11.9589 16.0354 11.9611 16.107 11.9655 16.178C12.006 16.8243 11.7881 17.4679 11.3314 17.9269C10.547 18.7151 10.062 19.8012 10.062 21.001C10.062 22.2083 10.5531 23.3006 11.3461 24.0899C11.7939 24.5354 12.0164 25.1489 11.9686 25.7788C11.953 25.984 11.9557 26.1942 11.9784 26.408C12.0828 27.3919 12.6149 28.2496 13.3778 28.8015L13.9306 29.3357H18.5401L17.9873 28.8015C17.2245 28.2497 16.6925 27.392 16.588 26.4081Z" fill="#865151"/>
<path id="Vector_3" d="M30.5807 27.238C30.5421 27.223 30.5046 27.2084 30.4665 27.1937L29.6602 27.5491L23.7688 32.4425L18.0867 27.372L17.4779 27.2121C17.4556 27.2207 17.4342 27.2291 17.4118 27.2377L17.1257 27.6939L20.8312 47.4929L21.674 48.4998H26.3188L26.7226 48.0481L31.0446 27.8226L30.5807 27.238Z" fill="#FFF5F5"/>
<path id="Vector_4" d="M23.3901 32.871V32.1046L18.0867 27.3721L17.4779 27.2122C17.4556 27.2208 17.4342 27.2292 17.4118 27.2378L17.1257 27.694L20.8312 47.4929L21.674 48.4999H26.3188L26.6039 48.1812L23.3901 32.871Z" fill="#EEE1DD"/>
<path id="Vector_5" d="M28.3003 26.3549C28.0331 26.2515 27.8556 25.9945 27.8548 25.7065L27.8529 23.4395L26.8433 23.2755H20.6188L20.1409 23.4536L20.141 25.7023C20.141 26.2358 19.6651 26.3642 19.4622 26.4429V26.4428C19.4152 26.461 18.6996 26.7385 17.4779 27.2121L22.2175 32.1992C23.1132 33.0949 24.5654 33.0949 25.4611 32.1992L30.4666 27.1937C29.3019 26.7428 28.4359 26.4074 28.3003 26.3549Z" fill="#FED1A3"/>
<path id="Vector_6" d="M23.3901 32.8264V23.2755H20.6188L20.1409 23.4536L20.141 25.7023C20.141 26.2358 19.6651 26.3642 19.4622 26.4429V26.4428C19.4152 26.461 18.6997 26.7384 17.4779 27.2121L22.2175 32.1992C22.5504 32.5323 22.9604 32.741 23.3901 32.8264Z" fill="#FFBC85"/>
<path id="Vector_7" d="M17.4118 27.2379C14.6402 28.3124 10.0346 30.0979 9.95821 30.1275C8.34627 30.7909 6.18787 32.8783 6.18787 35.9757V47.2437C6.18787 47.9375 6.75037 48.5001 7.4443 48.5001H21.6741L17.4118 27.2379Z" fill="#6081C4"/>
<path id="Vector_8" d="M30.5808 27.238L26.3187 48.5H40.5559C41.2498 48.5 41.8123 47.9375 41.8123 47.2436C41.8123 46.2055 41.8123 37.1978 41.8123 35.9756C41.8123 33.3081 40.1045 30.9764 38.0421 30.1274C37.716 30.0013 33.3622 28.3152 30.5808 27.238Z" fill="#6081C4"/>
<path id="Vector_9" d="M12.7269 48.5V35.2358C12.7269 34.8358 12.4027 34.5115 12.0026 34.5115C11.6026 34.5115 11.2783 34.8358 11.2783 35.2358V48.5H12.7269Z" fill="#4E6FB2"/>
<path id="Vector_10" d="M36.7217 48.5V35.2358C36.7217 34.8358 36.3974 34.5115 35.9974 34.5115C35.5974 34.5115 35.2731 34.8358 35.2731 35.2358V48.5H36.7217Z" fill="#4E6FB2"/>
<path id="Vector_11" d="M29.7486 11.9275C28.7648 10.9524 27.3815 9.19861 26.3448 6.88476C26.0817 6.29742 25.4636 6.53311 25.3878 7.00861C25.2685 7.75842 24.6574 10.2918 21.6819 12.7307V17.7266C21.6819 20.6642 23.4961 23.2281 26.0588 24.3051C28.8384 23.4434 30.8738 20.811 30.8738 17.7602V14.656C30.8739 13.6336 30.4747 12.6473 29.7486 11.9275Z" fill="#FFE5C1"/>
<path id="Vector_12" d="M21.8647 17.7603V12.5783C21.1252 13.2059 20.2326 13.8298 19.154 14.4182C17.9056 15.0992 17.1256 16.4049 17.1256 17.827C17.1256 21.3596 19.8871 24.589 24.0702 24.6031C24.8761 24.6058 25.6502 24.4627 26.3693 24.2004C23.7498 23.2446 21.8647 20.6963 21.8647 17.7603Z" fill="#FED1A3"/>
<path id="Vector_13" d="M9.34618 35.9648C9.34618 33.01 10.8088 30.7246 12.0518 29.3158C10.856 29.7794 9.99081 30.1148 9.95809 30.1275C8.34615 30.7908 6.18774 32.8782 6.18774 35.9756V47.2436C6.18774 47.9375 6.75024 48.5 7.44409 48.5H9.34609C9.34618 44.9053 9.34618 39.2721 9.34618 35.9648Z" fill="#4E6FB2"/>
</g>
</g>
<defs>
<clipPath id="clip0_8018_26445">
<rect width="48" height="48" fill="white" transform="translate(0 0.5)"/>
</clipPath>
</defs>
</svg>
