<svg width="172" height="50" viewBox="0 0 172 50" fill="none" xmlns="http://www.w3.org/2000/svg">
<path fill-rule="evenodd" clip-rule="evenodd" d="M43.0156 30.7327C44.49 32.1919 45.2285 34.1117 45.2285 36.0265C45.2285 37.9412 44.49 39.8611 43.0169 41.3215L43.0169 41.3279C41.5411 42.7858 39.5987 43.5167 37.6614 43.5167C35.7242 43.5167 33.7869 42.7858 32.3112 41.3254L32.3035 41.3254L18.9096 28.0667L21.5495 25.4528L34.9446 38.7127L34.9421 38.7165C35.687 39.4499 36.6729 39.8192 37.6614 39.8192C38.65 39.8192 39.6333 39.4487 40.3757 38.714L40.3795 38.7178C41.1206 37.9806 41.4937 37.0048 41.4937 36.0265C41.4937 35.0482 41.1232 34.0724 40.3795 33.3352L40.3757 33.339L35.1434 28.1606L37.7845 25.5467L43.0169 30.7251L43.0169 30.7314L43.0156 30.7327Z" fill="#50B57B"/>
<path d="M18.6242 11.597L32.0633 24.3042L34.6445 21.6554L21.3137 9.05512C19.811 7.63544 17.8317 6.92436 15.8576 6.92436C13.8874 6.92436 11.9081 7.63544 10.4028 9.06129C8.90783 10.476 8.15841 12.3463 8.15841 14.2116L8.15058 14.2116C8.15058 16.0745 8.90261 17.9436 10.4041 19.362L10.4041 19.3682L15.5609 24.4087L18.094 21.8431L13.0923 16.8276L13.0897 16.83C12.3337 16.114 11.9551 15.1647 11.9551 14.2116L11.9473 14.2116C11.9486 13.2635 12.3311 12.3117 13.0936 11.592C13.8443 10.8785 14.8562 10.5217 15.8589 10.5217C16.8616 10.5217 17.8669 10.8797 18.6242 11.597Z" fill="#D9325B"/>
<path fill-rule="evenodd" clip-rule="evenodd" d="M32.4436 8.64509C33.9042 7.17073 35.8241 6.43226 37.7377 6.43226C39.6514 6.43226 41.5726 7.17201 43.0332 8.64381L43.0395 8.64381C44.4976 10.1182 45.2298 12.0605 45.2285 14.0002C45.2285 15.9362 44.4976 17.8746 43.0383 19.3503L43.0383 19.358L29.8701 32.6606L27.2573 30.0195L40.4242 16.7169L40.428 16.7208C41.1627 15.9759 41.5307 14.9887 41.5307 14.0002C41.5307 13.0118 41.1602 12.0284 40.4254 11.2861L40.4292 11.2836C39.692 10.5425 38.7161 10.1695 37.7377 10.1695C36.7594 10.1695 35.7822 10.5413 35.0462 11.2836L35.05 11.2861L29.9173 16.4288L27.2573 13.8772L32.436 8.64509L32.4423 8.64509L32.4436 8.64509Z" fill="#F0BB2B"/>
<path d="M13.1048 33.223L26.2849 19.6522L26.2861 19.6522L23.6785 16.9667L10.4997 30.5388C9.044 32.0393 8.31487 34.0182 8.31487 35.9854C8.31487 37.9526 9.044 39.9289 10.5061 41.432C11.9555 42.9246 13.8732 43.6729 15.7859 43.6729L15.7859 43.6807C17.6973 43.6807 19.6126 42.9298 21.0683 41.4307L21.0746 41.4307L26.2418 36.1092L23.6007 33.4924L18.4682 38.7465L18.4708 38.7491C17.7366 39.5039 16.7631 39.8806 15.7859 39.8806L15.7859 39.8885C14.8137 39.8885 13.8378 39.5078 13.0998 38.7465C12.3694 37.9969 12.0023 36.9879 12.0023 35.9854C12.0023 34.9829 12.3694 33.9791 13.1048 33.223Z" fill="#3EA4CF"/>
<circle cx="45.9636" cy="43.9514" r="3.64282" transform="rotate(-180 45.9636 43.9514)" fill="#50B57B"/>
<circle cx="7.54956" cy="43.9514" r="3.64282" transform="rotate(-180 7.54956 43.9514)" fill="#3EA4CF"/>
<circle cx="45.9636" cy="6.05005" r="3.64282" transform="rotate(-180 45.9636 6.05005)" fill="#F0BB2B"/>
<circle cx="7.54956" cy="6.05011" r="3.64282" transform="rotate(-180 7.54956 6.05011)" fill="#D9325B"/>
<path d="M117.984 6.73476C119.459 6.73476 120.849 7.05435 122.154 7.69355C123.459 8.30078 124.58 9.14772 125.516 10.2344C126.48 11.289 127.232 12.5514 127.771 14.0216C128.339 15.4917 128.622 17.0578 128.622 18.7197V30.7046H126.495V18.7197C126.495 17.4093 126.268 16.1789 125.814 15.0283C125.36 13.8458 124.75 12.8231 123.984 11.9602C123.218 11.0973 122.31 10.4101 121.26 9.89877C120.239 9.38742 119.147 9.13174 117.984 9.13174C116.821 9.13174 115.714 9.38742 114.664 9.89877C113.643 10.4101 112.749 11.0973 111.983 11.9602C111.218 12.8231 110.608 13.8458 110.154 15.0283C109.7 16.1789 109.473 17.4093 109.473 18.7197V30.7046H107.345V18.7197C107.345 17.4093 107.118 16.1789 106.664 15.0283C106.21 13.8458 105.6 12.8231 104.834 11.9602C104.068 11.0973 103.161 10.4101 102.111 9.89877C101.09 9.38742 99.9973 9.13174 98.8342 9.13174C97.671 9.13174 96.5646 9.38742 95.5149 9.89877C94.4936 10.4101 93.6 11.0973 92.834 11.9602C92.068 12.8231 91.4581 13.8458 91.0042 15.0283C90.5502 16.1789 90.3233 17.4093 90.3233 18.7197V30.7046H88.1956V18.7197C88.1956 17.0578 88.4793 15.4917 89.0466 14.0216C89.614 12.5514 90.38 11.289 91.3446 10.2344C92.3375 9.14772 93.4723 8.30078 94.7489 7.69355C96.0256 7.05435 97.3873 6.73476 98.8342 6.73476C99.8838 6.73476 100.891 6.91053 101.856 7.26209C102.848 7.58169 103.756 8.04511 104.579 8.65234C105.402 9.25958 106.139 9.97867 106.792 10.8096C107.444 11.6086 107.983 12.4875 108.409 13.4463C108.834 12.4875 109.373 11.6086 110.026 10.8096C110.707 9.97867 111.459 9.25958 112.281 8.65234C113.132 8.04511 114.04 7.58169 115.005 7.26209C115.969 6.91053 116.962 6.73476 117.984 6.73476Z" fill="url(#paint0_linear_7870_961)"/>
<path d="M70.3384 28.3076C71.489 28.3076 72.5596 28.1318 73.5504 27.7802C74.5411 27.3967 75.436 26.8854 76.235 26.2462C77.066 25.607 77.7691 24.8559 78.3444 23.993C78.8224 23.2885 79.2014 22.5444 79.4814 21.7606H81.9306C81.6289 22.8923 81.1686 23.9561 80.5496 24.9518C79.8145 26.1024 78.9356 27.1091 77.9129 27.972C76.8902 28.8349 75.7236 29.5061 74.4133 29.9855C73.1349 30.4649 71.7766 30.7046 70.3384 30.7046C68.6446 30.7046 67.0626 30.4009 65.5924 29.7937C64.1542 29.1545 62.8918 28.3076 61.8052 27.2529C60.7505 26.1663 59.9036 24.9039 59.2644 23.4657C58.6571 21.9955 58.3535 20.4135 58.3535 18.7197C58.3535 17.0577 58.6571 15.4917 59.2644 14.0216C59.9036 12.5514 60.7505 11.289 61.8052 10.2343C62.8918 9.1477 64.1542 8.30076 65.5924 7.69353C67.0626 7.05433 68.6446 6.73474 70.3384 6.73474C71.7766 6.73474 73.1349 6.97443 74.4133 7.45383C75.7236 7.93323 76.8902 8.60438 77.9129 9.4673C78.9356 10.3302 79.8145 11.3529 80.5496 12.5354C81.1024 13.4007 81.5286 14.3292 81.8284 15.3209C81.8284 15.3209 81.756 15.3209 81.5771 15.3209H80.6827C80.5038 15.3209 79.3435 15.3209 79.3435 15.3209C79.081 14.6767 78.748 14.0678 78.3444 13.4942C77.7691 12.5994 77.066 11.8323 76.235 11.1931C75.436 10.5539 74.5411 10.0586 73.5504 9.70699C72.5596 9.32348 71.489 9.13172 70.3384 9.13172C69.0281 9.13172 67.7816 9.3874 66.5991 9.89875C65.4486 10.4101 64.4419 11.0972 63.5789 11.9602C62.716 12.8231 62.0289 13.8458 61.5175 15.0283C61.0062 16.1788 60.7505 17.4093 60.7505 18.7197C60.7505 20.03 61.0062 21.2764 61.5175 22.4589C62.0289 23.6095 62.716 24.6162 63.5789 25.4791C64.4419 26.3421 65.4486 27.0292 66.5991 27.5405C67.7816 28.0519 69.0281 28.3076 70.3384 28.3076Z" fill="url(#paint1_linear_7870_961)"/>
<path d="M136.959 30.7046H134.562V8.52353H136.959V30.7046ZM136.959 4.81715H134.562V2.42017H136.959V4.81715Z" fill="url(#paint2_linear_7870_961)"/>
<path d="M155.662 6.73474C157.324 6.73474 158.89 7.05433 160.36 7.69353C161.83 8.30076 163.092 9.1477 164.147 10.2343C165.234 11.289 166.081 12.5514 166.688 14.0216C167.327 15.4917 167.647 17.0577 167.647 18.7197C167.647 20.4135 167.327 21.9955 166.688 23.4657C166.081 24.9039 165.234 26.1663 164.147 27.2529C163.092 28.3076 161.83 29.1545 160.36 29.7937C158.89 30.4009 157.324 30.7046 155.662 30.7046C153.968 30.7046 152.386 30.4009 150.916 29.7937C149.477 29.1545 148.215 28.3076 147.128 27.2529C146.074 26.1663 145.227 24.9039 144.588 23.4657C143.98 21.9955 143.677 20.4135 143.677 18.7197V2.42017H146.074V11.5287C147.16 10.0905 148.551 8.93996 150.244 8.07705C151.938 7.18217 153.744 6.73474 155.662 6.73474ZM155.662 28.3076C156.972 28.3076 158.202 28.0519 159.353 27.5405C160.536 27.0292 161.558 26.3421 162.421 25.4791C163.284 24.6162 163.971 23.6095 164.483 22.4589C164.994 21.2764 165.25 20.03 165.25 18.7197C165.25 17.4093 164.994 16.1788 164.483 15.0283C163.971 13.8458 163.284 12.8231 162.421 11.9602C161.558 11.0972 160.536 10.4101 159.353 9.89875C158.202 9.3874 156.972 9.13172 155.662 9.13172C154.351 9.13172 153.105 9.3874 151.922 9.89875C150.772 10.4101 149.765 11.0972 148.902 11.9602C148.039 12.8231 147.352 13.8458 146.841 15.0283C146.329 16.1788 146.074 17.4093 146.074 18.7197C146.074 20.03 146.329 21.2764 146.841 22.4589C147.352 23.6095 148.039 24.6162 148.902 25.4791C149.765 26.3421 150.772 27.0292 151.922 27.5405C153.105 28.0519 154.351 28.3076 155.662 28.3076Z" fill="url(#paint3_linear_7870_961)"/>
<path d="M117.984 6.73476C119.459 6.73476 120.849 7.05435 122.154 7.69355C123.459 8.30078 124.58 9.14772 125.516 10.2344C126.48 11.289 127.232 12.5514 127.771 14.0216C128.339 15.4917 128.622 17.0578 128.622 18.7197V30.7046H126.495V18.7197C126.495 17.4093 126.268 16.1789 125.814 15.0283C125.36 13.8458 124.75 12.8231 123.984 11.9602C123.218 11.0973 122.31 10.4101 121.26 9.89877C120.239 9.38742 119.147 9.13174 117.984 9.13174C116.821 9.13174 115.714 9.38742 114.664 9.89877C113.643 10.4101 112.749 11.0973 111.983 11.9602C111.218 12.8231 110.608 13.8458 110.154 15.0283C109.7 16.1789 109.473 17.4093 109.473 18.7197V30.7046H107.345V18.7197C107.345 17.4093 107.118 16.1789 106.664 15.0283C106.21 13.8458 105.6 12.8231 104.834 11.9602C104.068 11.0973 103.161 10.4101 102.111 9.89877C101.09 9.38742 99.9973 9.13174 98.8342 9.13174C97.671 9.13174 96.5646 9.38742 95.5149 9.89877C94.4936 10.4101 93.6 11.0973 92.834 11.9602C92.068 12.8231 91.4581 13.8458 91.0042 15.0283C90.5502 16.1789 90.3233 17.4093 90.3233 18.7197V30.7046H88.1956V18.7197C88.1956 17.0578 88.4793 15.4917 89.0466 14.0216C89.614 12.5514 90.38 11.289 91.3446 10.2344C92.3375 9.14772 93.4723 8.30078 94.7489 7.69355C96.0256 7.05435 97.3873 6.73476 98.8342 6.73476C99.8838 6.73476 100.891 6.91053 101.856 7.26209C102.848 7.58169 103.756 8.04511 104.579 8.65234C105.402 9.25958 106.139 9.97867 106.792 10.8096C107.444 11.6086 107.983 12.4875 108.409 13.4463C108.834 12.4875 109.373 11.6086 110.026 10.8096C110.707 9.97867 111.459 9.25958 112.281 8.65234C113.132 8.04511 114.04 7.58169 115.005 7.26209C115.969 6.91053 116.962 6.73476 117.984 6.73476Z" stroke="url(#paint4_linear_7870_961)" stroke-width="1.43103"/>
<path d="M70.3384 28.3076C71.489 28.3076 72.5596 28.1318 73.5504 27.7802C74.5411 27.3967 75.436 26.8854 76.235 26.2462C77.066 25.607 77.7691 24.8559 78.3444 23.993C78.8224 23.2885 79.2014 22.5444 79.4814 21.7606H81.9306C81.6289 22.8923 81.1686 23.9561 80.5496 24.9518C79.8145 26.1024 78.9356 27.1091 77.9129 27.972C76.8902 28.8349 75.7236 29.5061 74.4133 29.9855C73.1349 30.4649 71.7766 30.7046 70.3384 30.7046C68.6446 30.7046 67.0626 30.4009 65.5924 29.7937C64.1542 29.1545 62.8918 28.3076 61.8052 27.2529C60.7505 26.1663 59.9036 24.9039 59.2644 23.4657C58.6571 21.9955 58.3535 20.4135 58.3535 18.7197C58.3535 17.0577 58.6571 15.4917 59.2644 14.0216C59.9036 12.5514 60.7505 11.289 61.8052 10.2343C62.8918 9.1477 64.1542 8.30076 65.5924 7.69353C67.0626 7.05433 68.6446 6.73474 70.3384 6.73474C71.7766 6.73474 73.1349 6.97443 74.4133 7.45383C75.7236 7.93323 76.8902 8.60438 77.9129 9.4673C78.9356 10.3302 79.8145 11.3529 80.5496 12.5354C81.1024 13.4007 81.5286 14.3292 81.8284 15.3209C81.8284 15.3209 81.756 15.3209 81.5771 15.3209H80.6827C80.5038 15.3209 79.3435 15.3209 79.3435 15.3209C79.081 14.6767 78.748 14.0678 78.3444 13.4942C77.7691 12.5994 77.066 11.8323 76.235 11.1931C75.436 10.5539 74.5411 10.0586 73.5504 9.70699C72.5596 9.32348 71.489 9.13172 70.3384 9.13172C69.0281 9.13172 67.7816 9.3874 66.5991 9.89875C65.4486 10.4101 64.4419 11.0972 63.5789 11.9602C62.716 12.8231 62.0289 13.8458 61.5175 15.0283C61.0062 16.1788 60.7505 17.4093 60.7505 18.7197C60.7505 20.03 61.0062 21.2764 61.5175 22.4589C62.0289 23.6095 62.716 24.6162 63.5789 25.4791C64.4419 26.3421 65.4486 27.0292 66.5991 27.5405C67.7816 28.0519 69.0281 28.3076 70.3384 28.3076Z" stroke="url(#paint5_linear_7870_961)" stroke-width="1.43103"/>
<path d="M136.959 30.7046H134.562V8.52353H136.959V30.7046ZM136.959 4.81715H134.562V2.42017H136.959V4.81715Z" stroke="url(#paint6_linear_7870_961)" stroke-width="1.43103"/>
<path d="M155.662 6.73474C157.324 6.73474 158.89 7.05433 160.36 7.69353C161.83 8.30076 163.092 9.1477 164.147 10.2343C165.234 11.289 166.081 12.5514 166.688 14.0216C167.327 15.4917 167.647 17.0577 167.647 18.7197C167.647 20.4135 167.327 21.9955 166.688 23.4657C166.081 24.9039 165.234 26.1663 164.147 27.2529C163.092 28.3076 161.83 29.1545 160.36 29.7937C158.89 30.4009 157.324 30.7046 155.662 30.7046C153.968 30.7046 152.386 30.4009 150.916 29.7937C149.477 29.1545 148.215 28.3076 147.128 27.2529C146.074 26.1663 145.227 24.9039 144.588 23.4657C143.98 21.9955 143.677 20.4135 143.677 18.7197V2.42017H146.074V11.5287C147.16 10.0905 148.551 8.93996 150.244 8.07705C151.938 7.18217 153.744 6.73474 155.662 6.73474ZM155.662 28.3076C156.972 28.3076 158.202 28.0519 159.353 27.5405C160.536 27.0292 161.558 26.3421 162.421 25.4791C163.284 24.6162 163.971 23.6095 164.483 22.4589C164.994 21.2764 165.25 20.03 165.25 18.7197C165.25 17.4093 164.994 16.1788 164.483 15.0283C163.971 13.8458 163.284 12.8231 162.421 11.9602C161.558 11.0972 160.536 10.4101 159.353 9.89875C158.202 9.3874 156.972 9.13172 155.662 9.13172C154.351 9.13172 153.105 9.3874 151.922 9.89875C150.772 10.4101 149.765 11.0972 148.902 11.9602C148.039 12.8231 147.352 13.8458 146.841 15.0283C146.329 16.1788 146.074 17.4093 146.074 18.7197C146.074 20.03 146.329 21.2764 146.841 22.4589C147.352 23.6095 148.039 24.6162 148.902 25.4791C149.765 26.3421 150.772 27.0292 151.922 27.5405C153.105 28.0519 154.351 28.3076 155.662 28.3076Z" stroke="url(#paint7_linear_7870_961)" stroke-width="1.43103"/>
<path d="M60.0051 39.4626C59.0532 39.4626 58.3154 38.6867 58.3154 37.6777C58.3154 36.6734 59.0532 35.9023 60.0051 35.9023C60.8619 35.9023 61.5473 36.4735 61.6758 37.3159H61.1189C61.0237 36.7638 60.5763 36.3735 60.0099 36.3735C59.334 36.3735 58.858 36.9209 58.858 37.6777C58.858 38.444 59.334 38.9914 60.0099 38.9914C60.5763 38.9914 61.0237 38.5963 61.1189 38.0442H61.6758C61.5473 38.8914 60.8619 39.4626 60.0051 39.4626ZM63.2385 39.4388C62.5245 39.4388 62.001 38.8771 62.001 38.1298C62.001 37.3826 62.5245 36.8209 63.2385 36.8209C63.9525 36.8209 64.476 37.3826 64.476 38.1298C64.476 38.8771 63.9525 39.4388 63.2385 39.4388ZM63.2385 39.0152C63.6526 39.0152 63.981 38.682 63.981 38.1298C63.981 37.5777 63.6526 37.2493 63.2385 37.2493C62.8244 37.2493 62.5007 37.5777 62.5007 38.1298C62.5007 38.682 62.8244 39.0152 63.2385 39.0152ZM65.4468 39.3912H64.9661V36.8685H65.4135V37.2874C65.5849 36.997 65.8562 36.8209 66.2036 36.8209C66.5749 36.8209 66.8557 37.0113 66.9699 37.3445C67.1461 37.0208 67.4364 36.8209 67.8219 36.8209C68.3408 36.8209 68.6739 37.1589 68.6739 37.7586V39.3912H68.1932V37.9109C68.1932 37.492 68.0076 37.2445 67.6554 37.2445C67.3269 37.2445 67.0604 37.5206 67.0604 37.9442V39.3912H66.5797V37.9109C66.5797 37.492 66.394 37.2445 66.0418 37.2445C65.7086 37.2445 65.4468 37.5206 65.4468 37.9442V39.3912ZM69.7975 39.3912H69.3168V36.8685H69.7642V37.2874C69.9356 36.997 70.2069 36.8209 70.5543 36.8209C70.9256 36.8209 71.2064 37.0113 71.3207 37.3445C71.4968 37.0208 71.7871 36.8209 72.1726 36.8209C72.6915 36.8209 73.0246 37.1589 73.0246 37.7586V39.3912H72.5439V37.9109C72.5439 37.492 72.3583 37.2445 72.0061 37.2445C71.6776 37.2445 71.4111 37.5206 71.4111 37.9442V39.3912H70.9304V37.9109C70.9304 37.492 70.7447 37.2445 70.3925 37.2445C70.0593 37.2445 69.7975 37.5206 69.7975 37.9442V39.3912ZM74.253 36.2831C74.253 36.4639 74.1102 36.602 73.9055 36.602C73.7008 36.602 73.5533 36.4639 73.5533 36.2831C73.5533 36.0974 73.7008 35.9642 73.9055 35.9642C74.1102 35.9642 74.253 36.0974 74.253 36.2831ZM74.1482 39.3912H73.6675V36.8685H74.1482V39.3912ZM76.2388 38.9247V39.3483C76.0912 39.415 75.9627 39.4388 75.8104 39.4388C75.3439 39.4388 75.0203 39.1865 75.0203 38.6296V37.2778H74.4634V36.8685H75.0203V36.1212H75.501V36.8685H76.2626V37.2778H75.501V38.5201C75.501 38.8676 75.6676 38.9914 75.9246 38.9914C76.0389 38.9914 76.1388 38.9723 76.2388 38.9247ZM78.2282 38.9247V39.3483C78.0806 39.415 77.9521 39.4388 77.7998 39.4388C77.3334 39.4388 77.0097 39.1865 77.0097 38.6296V37.2778H76.4528V36.8685H77.0097V36.1212H77.4904V36.8685H78.252V37.2778H77.4904V38.5201C77.4904 38.8676 77.657 38.9914 77.9141 38.9914C78.0283 38.9914 78.1282 38.9723 78.2282 38.9247ZM79.6787 39.4388C78.9505 39.4388 78.4602 38.9104 78.4602 38.1156C78.4602 37.3683 78.9695 36.8209 79.6644 36.8209C80.4165 36.8209 80.9162 37.4302 80.8306 38.2488H78.9505C78.9885 38.7629 79.2456 39.0628 79.6692 39.0628C80.0262 39.0628 80.2737 38.8676 80.3546 38.5392H80.8306C80.7068 39.1008 80.2737 39.4388 79.6787 39.4388ZM79.6549 37.1827C79.2694 37.1827 79.0076 37.4587 78.9552 37.9299H80.3213C80.2975 37.4635 80.0452 37.1827 79.6549 37.1827ZM82.3328 39.4388C81.6046 39.4388 81.1143 38.9104 81.1143 38.1156C81.1143 37.3683 81.6236 36.8209 82.3185 36.8209C83.0706 36.8209 83.5703 37.4302 83.4847 38.2488H81.6046C81.6426 38.7629 81.8997 39.0628 82.3233 39.0628C82.6803 39.0628 82.9278 38.8676 83.0087 38.5392H83.4847C83.3609 39.1008 82.9278 39.4388 82.3328 39.4388ZM82.309 37.1827C81.9235 37.1827 81.6617 37.4587 81.6093 37.9299H82.9754C82.9516 37.4635 82.6993 37.1827 82.309 37.1827ZM85.6997 39.3912H85.219V37.2778H84.6621V36.8685H85.219V36.6829C85.219 36.1974 85.4807 35.9308 85.9567 35.9308C86.0995 35.9308 86.2137 35.9546 86.3089 35.9927V36.383C86.2328 36.3497 86.1471 36.3402 86.0614 36.3402C85.833 36.3402 85.6997 36.4449 85.6997 36.6876V36.8685H86.4041V37.2778H85.6997V39.3912ZM87.7577 39.4388C87.0437 39.4388 86.5202 38.8771 86.5202 38.1298C86.5202 37.3826 87.0437 36.8209 87.7577 36.8209C88.4717 36.8209 88.9952 37.3826 88.9952 38.1298C88.9952 38.8771 88.4717 39.4388 87.7577 39.4388ZM87.7577 39.0152C88.1718 39.0152 88.5002 38.682 88.5002 38.1298C88.5002 37.5777 88.1718 37.2493 87.7577 37.2493C87.3436 37.2493 87.0199 37.5777 87.0199 38.1298C87.0199 38.682 87.3436 39.0152 87.7577 39.0152ZM89.966 38.1013V39.3912H89.4853V36.8685H89.9327V37.4016C90.1088 37.0541 90.4896 36.8352 90.9037 36.8352V37.335C90.3611 37.3064 89.966 37.5444 89.966 38.1013ZM93.8781 39.3912L92.7977 36.7781V39.3912H92.3169V35.9737H92.9595L94.1066 38.7486L95.2489 35.9737H95.8963V39.3912H95.4108V36.7733L94.3255 39.3912H93.8781ZM97.6346 39.4388C96.9064 39.4388 96.4162 38.9104 96.4162 38.1156C96.4162 37.3683 96.9254 36.8209 97.6204 36.8209C98.3724 36.8209 98.8722 37.4302 98.7865 38.2488H96.9064C96.9445 38.7629 97.2015 39.0628 97.6251 39.0628C97.9821 39.0628 98.2296 38.8676 98.3105 38.5392H98.7865C98.6628 39.1008 98.2296 39.4388 97.6346 39.4388ZM97.6108 37.1827C97.2253 37.1827 96.9635 37.4587 96.9112 37.9299H98.2772C98.2534 37.4635 98.0011 37.1827 97.6108 37.1827ZM99.7784 39.3912H99.2976V36.8685H99.745V37.2874C99.9164 36.997 100.188 36.8209 100.535 36.8209C100.906 36.8209 101.187 37.0113 101.301 37.3445C101.478 37.0208 101.768 36.8209 102.153 36.8209C102.672 36.8209 103.005 37.1589 103.005 37.7586V39.3912H102.525V37.9109C102.525 37.492 102.339 37.2445 101.987 37.2445C101.658 37.2445 101.392 37.5206 101.392 37.9442V39.3912H100.911V37.9109C100.911 37.492 100.726 37.2445 100.373 37.2445C100.04 37.2445 99.7784 37.5206 99.7784 37.9442V39.3912ZM106.057 38.1298C106.057 38.8866 105.619 39.4388 104.938 39.4388C104.581 39.4388 104.277 39.2579 104.096 38.939V39.3912H103.648V35.9737H104.129V37.3016C104.305 36.9923 104.596 36.8209 104.938 36.8209C105.614 36.8209 106.057 37.3635 106.057 38.1298ZM105.557 38.1298C105.557 37.5587 105.257 37.2445 104.843 37.2445C104.443 37.2445 104.129 37.5539 104.129 38.1203C104.129 38.6772 104.434 39.0104 104.843 39.0104C105.257 39.0104 105.557 38.6915 105.557 38.1298ZM107.582 39.4388C106.854 39.4388 106.363 38.9104 106.363 38.1156C106.363 37.3683 106.873 36.8209 107.567 36.8209C108.32 36.8209 108.819 37.4302 108.734 38.2488H106.854C106.892 38.7629 107.149 39.0628 107.572 39.0628C107.929 39.0628 108.177 38.8676 108.258 38.5392H108.734C108.61 39.1008 108.177 39.4388 107.582 39.4388ZM107.558 37.1827C107.172 37.1827 106.911 37.4587 106.858 37.9299H108.224C108.201 37.4635 107.948 37.1827 107.558 37.1827ZM109.725 38.1013V39.3912H109.245V36.8685H109.692V37.4016C109.868 37.0541 110.249 36.8352 110.663 36.8352V37.335C110.121 37.3064 109.725 37.5444 109.725 38.1013ZM113.043 38.6391C113.043 39.1341 112.657 39.4388 111.986 39.4388C111.32 39.4388 110.925 39.1103 110.877 38.5677H111.339C111.358 38.8819 111.61 39.077 111.996 39.077C112.333 39.077 112.557 38.958 112.557 38.7201C112.557 38.5106 112.429 38.4202 112.115 38.3583L111.705 38.2822C111.239 38.1917 110.977 37.9537 110.977 37.573C110.977 37.1303 111.362 36.8209 111.948 36.8209C112.552 36.8209 112.962 37.1446 113.005 37.6634H112.543C112.514 37.3588 112.291 37.1827 111.953 37.1827C111.648 37.1827 111.443 37.3112 111.443 37.5301C111.443 37.7348 111.572 37.83 111.877 37.8871L112.305 37.968C112.805 38.0584 113.043 38.2774 113.043 38.6391ZM115.148 36.2831C115.148 36.4639 115.005 36.602 114.8 36.602C114.596 36.602 114.448 36.4639 114.448 36.2831C114.448 36.0974 114.596 35.9642 114.8 35.9642C115.005 35.9642 115.148 36.0974 115.148 36.2831ZM115.043 39.3912H114.562V36.8685H115.043V39.3912ZM116.191 37.968V39.3912H115.71V36.8685H116.158V37.2874C116.329 37.0065 116.615 36.8209 116.962 36.8209C117.481 36.8209 117.824 37.1541 117.824 37.7586V39.3912H117.343V37.9204C117.343 37.4873 117.153 37.2445 116.796 37.2445C116.467 37.2445 116.191 37.5206 116.191 37.968ZM120.018 39.3912H119.495V35.9737H120.018V39.3912ZM121.202 37.968V39.3912H120.721V36.8685H121.169V37.2874C121.34 37.0065 121.625 36.8209 121.973 36.8209C122.492 36.8209 122.834 37.1541 122.834 37.7586V39.3912H122.354V37.9204C122.354 37.4873 122.163 37.2445 121.806 37.2445C121.478 37.2445 121.202 37.5206 121.202 37.968ZM123.292 38.1298C123.292 37.3635 123.73 36.8209 124.411 36.8209C124.748 36.8209 125.044 36.9923 125.22 37.3016V35.9737H125.7V39.3912H125.253V38.939C125.072 39.2579 124.767 39.4388 124.411 39.4388C123.73 39.4388 123.292 38.8866 123.292 38.1298ZM123.792 38.1298C123.792 38.6915 124.087 39.0104 124.506 39.0104C124.915 39.0104 125.22 38.6772 125.22 38.1203C125.22 37.5539 124.906 37.2445 124.506 37.2445C124.087 37.2445 123.792 37.5587 123.792 38.1298ZM127.944 38.3535V36.8685H128.425V39.3912H127.977V38.9914C127.844 39.2531 127.549 39.4388 127.206 39.4388C126.697 39.4388 126.345 39.1389 126.345 38.4916V36.8685H126.826V38.3964C126.826 38.8343 127.045 39.0152 127.359 39.0152C127.682 39.0152 127.944 38.7486 127.944 38.3535ZM131.092 38.6391C131.092 39.1341 130.706 39.4388 130.035 39.4388C129.369 39.4388 128.974 39.1103 128.926 38.5677H129.388C129.407 38.8819 129.659 39.077 130.044 39.077C130.382 39.077 130.606 38.958 130.606 38.7201C130.606 38.5106 130.478 38.4202 130.163 38.3583L129.754 38.2822C129.288 38.1917 129.026 37.9537 129.026 37.573C129.026 37.1303 129.411 36.8209 129.997 36.8209C130.601 36.8209 131.011 37.1446 131.054 37.6634H130.592C130.563 37.3588 130.34 37.1827 130.002 37.1827C129.697 37.1827 129.492 37.3112 129.492 37.5301C129.492 37.7348 129.621 37.83 129.925 37.8871L130.354 37.968C130.854 38.0584 131.092 38.2774 131.092 38.6391ZM133.007 38.9247V39.3483C132.86 39.415 132.731 39.4388 132.579 39.4388C132.112 39.4388 131.789 39.1865 131.789 38.6296V37.2778H131.232V36.8685H131.789V36.1212H132.269V36.8685H133.031V37.2778H132.269V38.5201C132.269 38.8676 132.436 38.9914 132.693 38.9914C132.807 38.9914 132.907 38.9723 133.007 38.9247ZM133.97 38.1013V39.3912H133.49V36.8685H133.937V37.4016C134.113 37.0541 134.494 36.8352 134.908 36.8352V37.335C134.365 37.3064 133.97 37.5444 133.97 38.1013ZM137.429 36.8685L136.168 40.3098H135.644L136.006 39.3579L135.011 36.8685H135.53L136.263 38.7914L136.944 36.8685H137.429ZM140.293 39.3912V39.0009C140.136 39.2817 139.855 39.4388 139.484 39.4388C138.961 39.4388 138.618 39.1389 138.618 38.6772C138.618 38.1822 139.013 37.9252 139.765 37.9252C139.912 37.9252 140.031 37.9299 140.236 37.9537V37.7681C140.236 37.4064 140.041 37.2017 139.708 37.2017C139.356 37.2017 139.141 37.4111 139.127 37.7633H138.689C138.713 37.1969 139.118 36.8209 139.708 36.8209C140.331 36.8209 140.693 37.1731 140.693 37.7729V39.3912H140.293ZM139.075 38.6629C139.075 38.9247 139.27 39.0961 139.579 39.0961C139.984 39.0961 140.236 38.8438 140.236 38.4583V38.2536C140.051 38.2298 139.917 38.225 139.793 38.225C139.313 38.225 139.075 38.3678 139.075 38.6629ZM141.817 37.968V39.3912H141.336V36.8685H141.783V37.2874C141.955 37.0065 142.24 36.8209 142.588 36.8209C143.106 36.8209 143.449 37.1541 143.449 37.7586V39.3912H142.968V37.9204C142.968 37.4873 142.778 37.2445 142.421 37.2445C142.093 37.2445 141.817 37.5206 141.817 37.968ZM143.907 38.1298C143.907 37.3635 144.345 36.8209 145.025 36.8209C145.363 36.8209 145.658 36.9923 145.834 37.3016V35.9737H146.315V39.3912H145.868V38.939C145.687 39.2579 145.382 39.4388 145.025 39.4388C144.345 39.4388 143.907 38.8866 143.907 38.1298ZM144.406 38.1298C144.406 38.6915 144.702 39.0104 145.12 39.0104C145.53 39.0104 145.834 38.6772 145.834 38.1203C145.834 37.5539 145.52 37.2445 145.12 37.2445C144.702 37.2445 144.406 37.5587 144.406 38.1298ZM150.434 38.4107C150.434 39.0342 149.977 39.3912 149.268 39.3912H148.016V35.9737H149.201C149.892 35.9737 150.306 36.2926 150.306 36.8685C150.306 37.1922 150.11 37.4682 149.782 37.611C150.206 37.73 150.434 38.0204 150.434 38.4107ZM149.168 36.3925H148.497V37.4206H149.168C149.582 37.4206 149.806 37.2255 149.806 36.9066C149.806 36.5877 149.582 36.3925 149.168 36.3925ZM149.235 37.8395H148.497V38.9723H149.235C149.682 38.9723 149.934 38.7581 149.934 38.3964C149.934 38.0489 149.682 37.8395 149.235 37.8395ZM152.575 38.3535V36.8685H153.056V39.3912H152.608V38.9914C152.475 39.2531 152.18 39.4388 151.837 39.4388C151.328 39.4388 150.976 39.1389 150.976 38.4916V36.8685H151.456V38.3964C151.456 38.8343 151.675 39.0152 151.989 39.0152C152.313 39.0152 152.575 38.7486 152.575 38.3535ZM155.722 38.6391C155.722 39.1341 155.337 39.4388 154.666 39.4388C153.999 39.4388 153.604 39.1103 153.557 38.5677H154.018C154.037 38.8819 154.29 39.077 154.675 39.077C155.013 39.077 155.237 38.958 155.237 38.7201C155.237 38.5106 155.108 38.4202 154.794 38.3583L154.385 38.2822C153.918 38.1917 153.657 37.9537 153.657 37.573C153.657 37.1303 154.042 36.8209 154.628 36.8209C155.232 36.8209 155.641 37.1446 155.684 37.6634H155.223C155.194 37.3588 154.97 37.1827 154.632 37.1827C154.328 37.1827 154.123 37.3112 154.123 37.5301C154.123 37.7348 154.252 37.83 154.556 37.8871L154.985 37.968C155.484 38.0584 155.722 38.2774 155.722 38.6391ZM156.833 36.2831C156.833 36.4639 156.69 36.602 156.485 36.602C156.281 36.602 156.133 36.4639 156.133 36.2831C156.133 36.0974 156.281 35.9642 156.485 35.9642C156.69 35.9642 156.833 36.0974 156.833 36.2831ZM156.728 39.3912H156.247V36.8685H156.728V39.3912ZM157.876 37.968V39.3912H157.395V36.8685H157.843V37.2874C158.014 37.0065 158.3 36.8209 158.647 36.8209C159.166 36.8209 159.509 37.1541 159.509 37.7586V39.3912H159.028V37.9204C159.028 37.4873 158.838 37.2445 158.481 37.2445C158.152 37.2445 157.876 37.5206 157.876 37.968ZM161.185 39.4388C160.456 39.4388 159.966 38.9104 159.966 38.1156C159.966 37.3683 160.475 36.8209 161.17 36.8209C161.922 36.8209 162.422 37.4302 162.337 38.2488H160.456C160.495 38.7629 160.752 39.0628 161.175 39.0628C161.532 39.0628 161.78 38.8676 161.861 38.5392H162.337C162.213 39.1008 161.78 39.4388 161.185 39.4388ZM161.161 37.1827C160.775 37.1827 160.514 37.4587 160.461 37.9299H161.827C161.803 37.4635 161.551 37.1827 161.161 37.1827ZM164.847 38.6391C164.847 39.1341 164.461 39.4388 163.79 39.4388C163.124 39.4388 162.729 39.1103 162.681 38.5677H163.143C163.162 38.8819 163.414 39.077 163.8 39.077C164.138 39.077 164.361 38.958 164.361 38.7201C164.361 38.5106 164.233 38.4202 163.919 38.3583L163.509 38.2822C163.043 38.1917 162.781 37.9537 162.781 37.573C162.781 37.1303 163.167 36.8209 163.752 36.8209C164.356 36.8209 164.766 37.1446 164.809 37.6634H164.347C164.318 37.3588 164.095 37.1827 163.757 37.1827C163.452 37.1827 163.247 37.3112 163.247 37.5301C163.247 37.7348 163.376 37.83 163.681 37.8871L164.109 37.968C164.609 38.0584 164.847 38.2774 164.847 38.6391ZM167.371 38.6391C167.371 39.1341 166.985 39.4388 166.314 39.4388C165.648 39.4388 165.253 39.1103 165.205 38.5677H165.667C165.686 38.8819 165.938 39.077 166.324 39.077C166.662 39.077 166.885 38.958 166.885 38.7201C166.885 38.5106 166.757 38.4202 166.443 38.3583L166.033 38.2822C165.567 38.1917 165.305 37.9537 165.305 37.573C165.305 37.1303 165.691 36.8209 166.276 36.8209C166.88 36.8209 167.29 37.1446 167.333 37.6634H166.871C166.842 37.3588 166.619 37.1827 166.281 37.1827C165.976 37.1827 165.771 37.3112 165.771 37.5301C165.771 37.7348 165.9 37.83 166.205 37.8871L166.633 37.968C167.133 38.0584 167.371 38.2774 167.371 38.6391Z" fill="white"/>
<path d="M61.0496 46.9881H60.4986V43.8878H59.3266V43.3919H62.2216V43.8878H61.0496V46.9881ZM63.1743 45.4905V46.9881H62.6684V43.3919H63.1743V44.7593C63.3496 44.4738 63.6201 44.2834 63.9857 44.2834C64.5316 44.2834 64.8922 44.634 64.8922 45.2701V46.9881H64.3864V45.4404C64.3864 44.9846 64.186 44.7292 63.8104 44.7292C63.4648 44.7292 63.1743 45.0197 63.1743 45.4905ZM66.6559 47.0382C65.8896 47.0382 65.3737 46.4822 65.3737 45.6458C65.3737 44.8594 65.9096 44.2834 66.6409 44.2834C67.4322 44.2834 67.9581 44.9245 67.868 45.786H65.8896C65.9297 46.327 66.2001 46.6425 66.6459 46.6425C67.0215 46.6425 67.282 46.4371 67.3671 46.0916H67.868C67.7378 46.6826 67.282 47.0382 66.6559 47.0382ZM66.6309 44.6641C66.2252 44.6641 65.9497 44.9546 65.8946 45.4505H67.3321C67.307 44.9596 67.0416 44.6641 66.6309 44.6641ZM70.0436 46.9881H69.4926V43.3919H70.0436V46.9881ZM71.2888 45.4905V46.9881H70.783V44.3335H71.2538V44.7743C71.4341 44.4788 71.7346 44.2834 72.1002 44.2834C72.6462 44.2834 73.0068 44.634 73.0068 45.2701V46.9881H72.5009V45.4404C72.5009 44.9846 72.3006 44.7292 71.9249 44.7292C71.5793 44.7292 71.2888 45.0197 71.2888 45.4905ZM75.7822 46.1967C75.7822 46.7176 75.3765 47.0382 74.6703 47.0382C73.9691 47.0382 73.5534 46.6926 73.5033 46.1216H73.9891C74.0091 46.4522 74.2746 46.6575 74.6803 46.6575C75.0359 46.6575 75.2713 46.5323 75.2713 46.2819C75.2713 46.0615 75.1361 45.9663 74.8055 45.9012L74.3748 45.8211C73.8839 45.7259 73.6085 45.4755 73.6085 45.0748C73.6085 44.609 74.0142 44.2834 74.6302 44.2834C75.2663 44.2834 75.6971 44.624 75.7421 45.17H75.2563C75.2262 44.8494 74.9908 44.6641 74.6352 44.6641C74.3147 44.6641 74.0993 44.7993 74.0993 45.0297C74.0993 45.2451 74.2345 45.3453 74.5551 45.4054L75.0059 45.4905C75.5318 45.5857 75.7822 45.8161 75.7822 46.1967ZM77.7979 46.4973V46.943C77.6426 47.0131 77.5074 47.0382 77.3471 47.0382C76.8562 47.0382 76.5156 46.7727 76.5156 46.1867V44.7643H75.9296V44.3335H76.5156V43.5472H77.0215V44.3335H77.8229V44.7643H77.0215V46.0715C77.0215 46.4371 77.1968 46.5674 77.4673 46.5674C77.5875 46.5674 77.6927 46.5473 77.7979 46.4973ZM78.9217 43.7175C78.9217 43.9078 78.7715 44.053 78.5561 44.053C78.3407 44.053 78.1855 43.9078 78.1855 43.7175C78.1855 43.5221 78.3407 43.3819 78.5561 43.3819C78.7715 43.3819 78.9217 43.5221 78.9217 43.7175ZM78.8116 46.9881H78.3057V44.3335H78.8116V46.9881ZM81.0114 46.4973V46.943C80.8561 47.0131 80.7209 47.0382 80.5606 47.0382C80.0698 47.0382 79.7292 46.7727 79.7292 46.1867V44.7643H79.1432V44.3335H79.7292V43.5472H80.2351V44.3335H81.0364V44.7643H80.2351V46.0715C80.2351 46.4371 80.4104 46.5674 80.6808 46.5674C80.801 46.5674 80.9062 46.5473 81.0114 46.4973ZM83.1771 45.8962V44.3335H83.6829V46.9881H83.2121V46.5674C83.0719 46.8428 82.7614 47.0382 82.4007 47.0382C81.8648 47.0382 81.4942 46.7226 81.4942 46.0415V44.3335H82V45.9413C82 46.4021 82.2304 46.5924 82.561 46.5924C82.9016 46.5924 83.1771 46.3119 83.1771 45.8962ZM85.8831 46.4973V46.943C85.7278 47.0131 85.5926 47.0382 85.4323 47.0382C84.9414 47.0382 84.6009 46.7727 84.6009 46.1867V44.7643H84.0148V44.3335H84.6009V43.5472H85.1067V44.3335H85.9081V44.7643H85.1067V46.0715C85.1067 46.4371 85.282 46.5674 85.5525 46.5674C85.6727 46.5674 85.7779 46.5473 85.8831 46.4973ZM87.4094 47.0382C86.6431 47.0382 86.1272 46.4822 86.1272 45.6458C86.1272 44.8594 86.6631 44.2834 87.3944 44.2834C88.1857 44.2834 88.7116 44.9245 88.6215 45.786H86.6431C86.6831 46.327 86.9536 46.6425 87.3994 46.6425C87.775 46.6425 88.0355 46.4371 88.1206 46.0916H88.6215C88.4913 46.6826 88.0355 47.0382 87.4094 47.0382ZM87.3844 44.6641C86.9787 44.6641 86.7032 44.9546 86.6481 45.4505H88.0856C88.0605 44.9596 87.7951 44.6641 87.3844 44.6641ZM91.318 47.0382C90.5667 47.0382 90.0157 46.4472 90.0157 45.6608C90.0157 44.8745 90.5667 44.2834 91.318 44.2834C92.0693 44.2834 92.6202 44.8745 92.6202 45.6608C92.6202 46.4472 92.0693 47.0382 91.318 47.0382ZM91.318 46.5924C91.7537 46.5924 92.0993 46.2418 92.0993 45.6608C92.0993 45.0798 91.7537 44.7342 91.318 44.7342C90.8822 44.7342 90.5416 45.0798 90.5416 45.6608C90.5416 46.2418 90.8822 46.5924 91.318 46.5924ZM93.8088 46.9881H93.3029V44.7643H92.7169V44.3335H93.3029V44.1382C93.3029 43.6273 93.5784 43.3468 94.0793 43.3468C94.2295 43.3468 94.3497 43.3719 94.4499 43.4119V43.8226C94.3698 43.7876 94.2796 43.7776 94.1895 43.7776C93.9491 43.7776 93.8088 43.8878 93.8088 44.1432V44.3335H94.5501V44.7643H93.8088V46.9881ZM97.5904 47.0632C96.5886 47.0632 95.8123 46.2468 95.8123 45.185C95.8123 44.1282 96.5886 43.3168 97.5904 43.3168C98.4919 43.3168 99.2132 43.9178 99.3484 44.8043H98.7624C98.6622 44.2233 98.1914 43.8126 97.5954 43.8126C96.8841 43.8126 96.3833 44.3886 96.3833 45.185C96.3833 45.9914 96.8841 46.5674 97.5954 46.5674C98.1914 46.5674 98.6622 46.1517 98.7624 45.5707H99.3484C99.2132 46.4622 98.4919 47.0632 97.5904 47.0632ZM100.387 45.4905V46.9881H99.8809V43.3919H100.387V44.7593C100.562 44.4738 100.833 44.2834 101.198 44.2834C101.744 44.2834 102.105 44.634 102.105 45.2701V46.9881H101.599V45.4404C101.599 44.9846 101.399 44.7292 101.023 44.7292C100.677 44.7292 100.387 45.0197 100.387 45.4905ZM104.384 46.9881V46.5774C104.219 46.8729 103.923 47.0382 103.533 47.0382C102.982 47.0382 102.621 46.7226 102.621 46.2368C102.621 45.7159 103.037 45.4454 103.828 45.4454C103.984 45.4454 104.109 45.4505 104.324 45.4755V45.2802C104.324 44.8995 104.119 44.6841 103.768 44.6841C103.398 44.6841 103.172 44.9045 103.157 45.2751H102.696C102.721 44.6791 103.147 44.2834 103.768 44.2834C104.424 44.2834 104.805 44.6541 104.805 45.2852V46.9881H104.384ZM103.102 46.2218C103.102 46.4973 103.307 46.6776 103.633 46.6776C104.059 46.6776 104.324 46.4121 104.324 46.0064V45.791C104.129 45.766 103.989 45.761 103.858 45.761C103.353 45.761 103.102 45.9112 103.102 46.2218ZM105.987 45.6308V46.9881H105.481V44.3335H105.952V44.8945C106.137 44.5289 106.538 44.2985 106.974 44.2985V44.8244C106.403 44.7943 105.987 45.0448 105.987 45.6308ZM109.033 46.4973V46.943C108.878 47.0131 108.743 47.0382 108.582 47.0382C108.092 47.0382 107.751 46.7727 107.751 46.1867V44.7643H107.165V44.3335H107.751V43.5472H108.257V44.3335H109.058V44.7643H108.257V46.0715C108.257 46.4371 108.432 46.5674 108.703 46.5674C108.823 46.5674 108.928 46.5473 109.033 46.4973ZM110.56 47.0382C109.793 47.0382 109.277 46.4822 109.277 45.6458C109.277 44.8594 109.813 44.2834 110.545 44.2834C111.336 44.2834 111.862 44.9245 111.772 45.786H109.793C109.833 46.327 110.104 46.6425 110.55 46.6425C110.925 46.6425 111.186 46.4371 111.271 46.0916H111.772C111.641 46.6826 111.186 47.0382 110.56 47.0382ZM110.535 44.6641C110.129 44.6641 109.853 44.9546 109.798 45.4505H111.236C111.211 44.9596 110.945 44.6641 110.535 44.6641ZM112.815 45.6308V46.9881H112.31V44.3335H112.78V44.8945C112.966 44.5289 113.366 44.2985 113.802 44.2985V44.8244C113.231 44.7943 112.815 45.0448 112.815 45.6308ZM115.285 47.0382C114.518 47.0382 114.002 46.4822 114.002 45.6458C114.002 44.8594 114.538 44.2834 115.269 44.2834C116.061 44.2834 116.587 44.9245 116.497 45.786H114.518C114.558 46.327 114.829 46.6425 115.275 46.6425C115.65 46.6425 115.911 46.4371 115.996 46.0916H116.497C116.366 46.6826 115.911 47.0382 115.285 47.0382ZM115.259 44.6641C114.854 44.6641 114.578 44.9546 114.523 45.4505H115.961C115.936 44.9596 115.67 44.6641 115.259 44.6641ZM116.795 45.6608C116.795 44.8544 117.256 44.2834 117.972 44.2834C118.328 44.2834 118.638 44.4638 118.824 44.7893V43.3919H119.33V46.9881H118.859V46.5123C118.668 46.8479 118.348 47.0382 117.972 47.0382C117.256 47.0382 116.795 46.4572 116.795 45.6608ZM117.321 45.6608C117.321 46.2518 117.632 46.5874 118.072 46.5874C118.503 46.5874 118.824 46.2368 118.824 45.6508C118.824 45.0548 118.493 44.7292 118.072 44.7292C117.632 44.7292 117.321 45.0598 117.321 45.6608ZM123.594 46.9881L123.268 46.0966H121.716L121.385 46.9881H120.829L122.206 43.3919H122.812L124.18 46.9881H123.594ZM122.497 43.9929L121.881 45.6508H123.103L122.497 43.9929ZM125.531 47.0432C124.804 47.0432 124.293 46.4722 124.293 45.6608C124.293 44.8594 124.814 44.2834 125.531 44.2834C126.187 44.2834 126.663 44.7192 126.758 45.4104H126.227C126.172 44.9846 125.906 44.7292 125.536 44.7292C125.1 44.7292 124.814 45.0998 124.814 45.6608C124.814 46.2268 125.1 46.5924 125.536 46.5924C125.911 46.5924 126.172 46.342 126.232 45.9112H126.758C126.668 46.6125 126.197 47.0432 125.531 47.0432ZM128.289 47.0432C127.563 47.0432 127.052 46.4722 127.052 45.6608C127.052 44.8594 127.573 44.2834 128.289 44.2834C128.945 44.2834 129.421 44.7192 129.516 45.4104H128.985C128.93 44.9846 128.665 44.7292 128.294 44.7292C127.859 44.7292 127.573 45.0998 127.573 45.6608C127.573 46.2268 127.859 46.5924 128.294 46.5924C128.67 46.5924 128.93 46.342 128.99 45.9112H129.516C129.426 46.6125 128.955 47.0432 128.289 47.0432ZM131.113 47.0382C130.362 47.0382 129.811 46.4472 129.811 45.6608C129.811 44.8745 130.362 44.2834 131.113 44.2834C131.864 44.2834 132.415 44.8745 132.415 45.6608C132.415 46.4472 131.864 47.0382 131.113 47.0382ZM131.113 46.5924C131.549 46.5924 131.894 46.2418 131.894 45.6608C131.894 45.0798 131.549 44.7342 131.113 44.7342C130.677 44.7342 130.337 45.0798 130.337 45.6608C130.337 46.2418 130.677 46.5924 131.113 46.5924ZM134.589 45.8962V44.3335H135.095V46.9881H134.624V46.5674C134.484 46.8428 134.173 47.0382 133.812 47.0382C133.277 47.0382 132.906 46.7226 132.906 46.0415V44.3335H133.412V45.9413C133.412 46.4021 133.642 46.5924 133.973 46.5924C134.313 46.5924 134.589 46.3119 134.589 45.8962ZM136.303 45.4905V46.9881H135.797V44.3335H136.268V44.7743C136.448 44.4788 136.749 44.2834 137.114 44.2834C137.66 44.2834 138.021 44.634 138.021 45.2701V46.9881H137.515V45.4404C137.515 44.9846 137.315 44.7292 136.939 44.7292C136.594 44.7292 136.303 45.0197 136.303 45.4905ZM140.181 46.4973V46.943C140.025 47.0131 139.89 47.0382 139.73 47.0382C139.239 47.0382 138.898 46.7727 138.898 46.1867V44.7643H138.312V44.3335H138.898V43.5472H139.404V44.3335H140.206V44.7643H139.404V46.0715C139.404 46.4371 139.58 46.5674 139.85 46.5674C139.97 46.5674 140.075 46.5473 140.181 46.4973ZM142.296 46.9881V46.5774C142.131 46.8729 141.835 47.0382 141.445 47.0382C140.894 47.0382 140.533 46.7226 140.533 46.2368C140.533 45.7159 140.949 45.4454 141.74 45.4454C141.896 45.4454 142.021 45.4505 142.236 45.4755V45.2802C142.236 44.8995 142.031 44.6841 141.68 44.6841C141.31 44.6841 141.084 44.9045 141.069 45.2751H140.608C140.633 44.6791 141.059 44.2834 141.68 44.2834C142.336 44.2834 142.717 44.6541 142.717 45.2852V46.9881H142.296ZM141.014 46.2218C141.014 46.4973 141.219 46.6776 141.545 46.6776C141.971 46.6776 142.236 46.4121 142.236 46.0064V45.791C142.041 45.766 141.901 45.761 141.77 45.761C141.264 45.761 141.014 45.9112 141.014 46.2218ZM143.899 45.4905V46.9881H143.393V44.3335H143.864V44.7743C144.044 44.4788 144.345 44.2834 144.711 44.2834C145.257 44.2834 145.617 44.634 145.617 45.2701V46.9881H145.111V45.4404C145.111 44.9846 144.911 44.7292 144.535 44.7292C144.19 44.7292 143.899 45.0197 143.899 45.4905ZM147.777 46.4973V46.943C147.621 47.0131 147.486 47.0382 147.326 47.0382C146.835 47.0382 146.494 46.7727 146.494 46.1867V44.7643H145.908V44.3335H146.494V43.5472H147V44.3335H147.802V44.7643H147V46.0715C147 46.4371 147.176 46.5674 147.446 46.5674C147.566 46.5674 147.672 46.5473 147.777 46.4973ZM150.378 46.1967C150.378 46.7176 149.973 47.0382 149.266 47.0382C148.565 47.0382 148.15 46.6926 148.099 46.1216H148.585C148.605 46.4522 148.871 46.6575 149.276 46.6575C149.632 46.6575 149.867 46.5323 149.867 46.2819C149.867 46.0615 149.732 45.9663 149.402 45.9012L148.971 45.8211C148.48 45.7259 148.205 45.4755 148.205 45.0748C148.205 44.609 148.61 44.2834 149.226 44.2834C149.862 44.2834 150.293 44.624 150.338 45.17H149.852C149.822 44.8494 149.587 44.6641 149.231 44.6641C148.911 44.6641 148.695 44.7993 148.695 45.0297C148.695 45.2451 148.831 45.3453 149.151 45.4054L149.602 45.4905C150.128 45.5857 150.378 45.8161 150.378 46.1967ZM153.089 47.0382C152.338 47.0382 151.787 46.4472 151.787 45.6608C151.787 44.8745 152.338 44.2834 153.089 44.2834C153.841 44.2834 154.392 44.8745 154.392 45.6608C154.392 46.4472 153.841 47.0382 153.089 47.0382ZM153.089 46.5924C153.525 46.5924 153.871 46.2418 153.871 45.6608C153.871 45.0798 153.525 44.7342 153.089 44.7342C152.654 44.7342 152.313 45.0798 152.313 45.6608C152.313 46.2418 152.654 46.5924 153.089 46.5924ZM155.58 46.9881H155.074V44.7643H154.488V44.3335H155.074V44.1382C155.074 43.6273 155.35 43.3468 155.851 43.3468C156.001 43.3468 156.121 43.3719 156.221 43.4119V43.8226C156.141 43.7876 156.051 43.7776 155.961 43.7776C155.72 43.7776 155.58 43.8878 155.58 44.1432V44.3335H156.321V44.7643H155.58V46.9881ZM158.345 46.9881H157.794V43.3919H158.345V46.9881ZM159.59 45.4905V46.9881H159.084V44.3335H159.555V44.7743C159.735 44.4788 160.036 44.2834 160.402 44.2834C160.948 44.2834 161.308 44.634 161.308 45.2701V46.9881H160.802V45.4404C160.802 44.9846 160.602 44.7292 160.226 44.7292C159.881 44.7292 159.59 45.0197 159.59 45.4905ZM161.79 45.6608C161.79 44.8544 162.25 44.2834 162.967 44.2834C163.322 44.2834 163.633 44.4638 163.818 44.7893V43.3919H164.324V46.9881H163.853V46.5123C163.663 46.8479 163.342 47.0382 162.967 47.0382C162.25 47.0382 161.79 46.4572 161.79 45.6608ZM162.316 45.6608C162.316 46.2518 162.626 46.5874 163.067 46.5874C163.498 46.5874 163.818 46.2368 163.818 45.6508C163.818 45.0548 163.488 44.7292 163.067 44.7292C162.626 44.7292 162.316 45.0598 162.316 45.6608ZM165.643 43.7175C165.643 43.9078 165.493 44.053 165.278 44.053C165.062 44.053 164.907 43.9078 164.907 43.7175C164.907 43.5221 165.062 43.3819 165.278 43.3819C165.493 43.3819 165.643 43.5221 165.643 43.7175ZM165.533 46.9881H165.027V44.3335H165.533V46.9881ZM167.843 46.9881V46.5774C167.678 46.8729 167.382 47.0382 166.992 47.0382C166.441 47.0382 166.08 46.7226 166.08 46.2368C166.08 45.7159 166.496 45.4454 167.287 45.4454C167.442 45.4454 167.568 45.4505 167.783 45.4755V45.2802C167.783 44.8995 167.578 44.6841 167.227 44.6841C166.856 44.6841 166.631 44.9045 166.616 45.2751H166.155C166.18 44.6791 166.606 44.2834 167.227 44.2834C167.883 44.2834 168.264 44.6541 168.264 45.2852V46.9881H167.843ZM166.561 46.2218C166.561 46.4973 166.766 46.6776 167.092 46.6776C167.518 46.6776 167.783 46.4121 167.783 46.0064V45.791C167.588 45.766 167.447 45.761 167.317 45.761C166.811 45.761 166.561 45.9112 166.561 46.2218Z" fill="#E91639"/>
<defs>
<linearGradient id="paint0_linear_7870_961" x1="113" y1="2.42017" x2="113" y2="30.7046" gradientUnits="userSpaceOnUse">
<stop stop-color="#FFB726"/>
<stop offset="1" stop-color="#F9C151"/>
</linearGradient>
<linearGradient id="paint1_linear_7870_961" x1="113" y1="2.42017" x2="113" y2="30.7046" gradientUnits="userSpaceOnUse">
<stop stop-color="#FFB726"/>
<stop offset="1" stop-color="#F9C151"/>
</linearGradient>
<linearGradient id="paint2_linear_7870_961" x1="113" y1="2.42017" x2="113" y2="30.7046" gradientUnits="userSpaceOnUse">
<stop stop-color="#FFB726"/>
<stop offset="1" stop-color="#F9C151"/>
</linearGradient>
<linearGradient id="paint3_linear_7870_961" x1="113" y1="2.42017" x2="113" y2="30.7046" gradientUnits="userSpaceOnUse">
<stop stop-color="#FFB726"/>
<stop offset="1" stop-color="#F9C151"/>
</linearGradient>
<linearGradient id="paint4_linear_7870_961" x1="113" y1="2.42017" x2="113" y2="30.7046" gradientUnits="userSpaceOnUse">
<stop stop-color="#FFB726"/>
<stop offset="1" stop-color="#F9C151"/>
</linearGradient>
<linearGradient id="paint5_linear_7870_961" x1="113" y1="2.42017" x2="113" y2="30.7046" gradientUnits="userSpaceOnUse">
<stop stop-color="#FFB726"/>
<stop offset="1" stop-color="#F9C151"/>
</linearGradient>
<linearGradient id="paint6_linear_7870_961" x1="113" y1="2.42017" x2="113" y2="30.7046" gradientUnits="userSpaceOnUse">
<stop stop-color="#FFB726"/>
<stop offset="1" stop-color="#F9C151"/>
</linearGradient>
<linearGradient id="paint7_linear_7870_961" x1="113" y1="2.42017" x2="113" y2="30.7046" gradientUnits="userSpaceOnUse">
<stop stop-color="#FFB726"/>
<stop offset="1" stop-color="#F9C151"/>
</linearGradient>
</defs>
</svg>
