<svg width="16" height="16" viewBox="0 0 16 16" fill="none" xmlns="http://www.w3.org/2000/svg">
<path d="M8.33323 14.6668H2.7199C1.94657 14.6668 1.31323 14.0468 1.31323 13.2868V3.39342C1.31323 1.64676 2.61323 0.853424 4.20657 1.63342L7.16657 3.08676C7.80657 3.40009 8.33323 4.23342 8.33323 4.94009V14.6668Z" stroke="#616C82" stroke-width="1.5" stroke-linecap="round" stroke-linejoin="round"/>
<path d="M14.6466 10.04V12.56C14.6466 14 13.9799 14.6667 12.5399 14.6667H8.33325V6.94672L8.64659 7.01338L11.6466 7.68672L12.9999 7.98672C13.8799 8.18005 14.5999 8.63338 14.6399 9.91338C14.6466 9.95338 14.6466 9.99338 14.6466 10.04Z" stroke="#616C82" stroke-width="1.5" stroke-linecap="round" stroke-linejoin="round"/>
<path d="M3.66675 6.00006H5.98008" stroke="#616C82" stroke-width="1.5" stroke-linecap="round" stroke-linejoin="round"/>
<path d="M3.66675 8.66675H5.98008" stroke="#616C82" stroke-width="1.5" stroke-linecap="round" stroke-linejoin="round"/>
<path d="M11.6467 7.68676V9.83343C11.6467 10.6601 10.9734 11.3334 10.1467 11.3334C9.32006 11.3334 8.64673 10.6601 8.64673 9.83343V7.01343L11.6467 7.68676Z" stroke="#616C82" stroke-width="1.5" stroke-linecap="round" stroke-linejoin="round"/>
<path d="M14.6401 9.91337C14.6001 10.7 13.9467 11.3334 13.1467 11.3334C12.3201 11.3334 11.6467 10.66 11.6467 9.83337V7.68671L13.0001 7.98671C13.8801 8.18004 14.6001 8.63337 14.6401 9.91337Z" stroke="#616C82" stroke-width="1.5" stroke-linecap="round" stroke-linejoin="round"/>
</svg>
