<svg width="18" height="18" viewBox="0 0 18 18" fill="none" xmlns="http://www.w3.org/2000/svg">
<g id="vuesax/linear/brifecase-tick">
<g id="brifecase-tick">
<path id="Vector" d="M9 13.6499C10.6569 13.6499 12 12.3068 12 10.6499C12 8.99305 10.6569 7.6499 9 7.6499C7.34315 7.6499 6 8.99305 6 10.6499C6 12.3068 7.34315 13.6499 9 13.6499Z" stroke="#FBFCFF" stroke-width="1.5" stroke-miterlimit="10" stroke-linecap="round" stroke-linejoin="round"/>
<path id="Vector_2" d="M7.83008 10.725L8.31758 11.2125C8.46008 11.355 8.69258 11.355 8.83508 11.22L10.1701 9.98999" stroke="#FBFCFF" stroke-width="1.5" stroke-linecap="round" stroke-linejoin="round"/>
<path id="Vector_3" d="M6.00011 16.5H12.0001C15.0151 16.5 15.5551 15.2925 15.7126 13.8225L16.2751 7.8225C16.4776 5.9925 15.9526 4.5 12.7501 4.5H5.25011C2.04761 4.5 1.52261 5.9925 1.72511 7.8225L2.28761 13.8225C2.44511 15.2925 2.98511 16.5 6.00011 16.5Z" stroke="#FBFCFF" stroke-width="1.5" stroke-miterlimit="10" stroke-linecap="round" stroke-linejoin="round"/>
<path id="Vector_4" d="M6 4.5V3.9C6 2.5725 6 1.5 8.4 1.5H9.6C12 1.5 12 2.5725 12 3.9V4.5" stroke="#FBFCFF" stroke-width="1.5" stroke-miterlimit="10" stroke-linecap="round" stroke-linejoin="round"/>
<path id="Vector_5" d="M16.2376 8.25C14.9401 9.195 13.5001 9.855 12.0076 10.23" stroke="#FBFCFF" stroke-width="1.5" stroke-miterlimit="10" stroke-linecap="round" stroke-linejoin="round"/>
<path id="Vector_6" d="M1.96509 8.45239C3.21759 9.30739 4.58259 9.91489 6.00009 10.2599" stroke="#FBFCFF" stroke-width="1.5" stroke-miterlimit="10" stroke-linecap="round" stroke-linejoin="round"/>
</g>
</g>
</svg>
