<svg width="280" height="50" viewBox="0 0 280 50" fill="none" xmlns="http://www.w3.org/2000/svg">
<path d="M47 22.1875V29.5C47 31.75 45.6575 32.5 44 32.5H38C36.3425 32.5 35 31.75 35 29.5V22.1875C35 19.75 36.3425 19.1875 38 19.1875C38 19.6525 38.1875 20.0725 38.495 20.38C38.8025 20.6875 39.2225 20.875 39.6875 20.875H42.3125C43.2425 20.875 44 20.1175 44 19.1875C45.6575 19.1875 47 19.75 47 22.1875Z" stroke="#CCD0E5" stroke-width="1.5" stroke-linecap="round" stroke-linejoin="round"/>
<path d="M44 19.1875C44 20.1175 43.2425 20.875 42.3125 20.875H39.6875C39.2225 20.875 38.8025 20.6875 38.495 20.38C38.1875 20.0725 38 19.6525 38 19.1875C38 18.2575 38.7575 17.5 39.6875 17.5H42.3125C42.7775 17.5 43.1975 17.6875 43.505 17.995C43.8125 18.3025 44 18.7225 44 19.1875Z" stroke="#CCD0E5" stroke-width="1.5" stroke-linecap="round" stroke-linejoin="round"/>
<path d="M38 25.75H41" stroke="#CCD0E5" stroke-width="1.5" stroke-linecap="round" stroke-linejoin="round"/>
<path d="M38 28.75H44" stroke="#CCD0E5" stroke-width="1.5" stroke-linecap="round" stroke-linejoin="round"/>
<path d="M64.632 30.5H63.092V20.448H66.844C69.154 20.448 70.54 21.582 70.54 23.584C70.54 25.026 69.63 26.132 68.104 26.496L70.834 30.5H68.986L66.48 26.72H64.632V30.5ZM64.632 21.736V25.432H66.746C68.174 25.432 68.986 24.802 68.986 23.584C68.986 22.38 68.174 21.736 66.746 21.736H64.632ZM75.045 30.64C72.903 30.64 71.461 29.086 71.461 26.748C71.461 24.55 72.959 22.94 75.003 22.94C77.215 22.94 78.685 24.732 78.433 27.14H72.903C73.015 28.652 73.771 29.534 75.017 29.534C76.067 29.534 76.795 28.96 77.033 27.994H78.433C78.069 29.646 76.795 30.64 75.045 30.64ZM74.975 24.004C73.841 24.004 73.071 24.816 72.917 26.202H76.935C76.865 24.83 76.123 24.004 74.975 24.004ZM87.1604 26.79C87.1604 29.03 85.8724 30.64 83.8844 30.64C82.8764 30.64 82.0224 30.136 81.4904 29.24V33.202H80.0764V23.08H81.3924V24.438C81.9244 23.486 82.8344 22.94 83.8844 22.94C85.8584 22.94 87.1604 24.55 87.1604 26.79ZM85.6904 26.79C85.6904 25.124 84.8084 24.186 83.5904 24.186C82.4144 24.186 81.4904 25.124 81.4904 26.79C81.4904 28.428 82.4004 29.38 83.5904 29.38C84.8084 29.38 85.6904 28.456 85.6904 26.79ZM91.842 30.64C89.742 30.64 88.202 28.988 88.202 26.79C88.202 24.592 89.742 22.94 91.842 22.94C93.942 22.94 95.482 24.592 95.482 26.79C95.482 28.988 93.942 30.64 91.842 30.64ZM91.842 29.394C93.06 29.394 94.026 28.414 94.026 26.79C94.026 25.166 93.06 24.2 91.842 24.2C90.624 24.2 89.672 25.166 89.672 26.79C89.672 28.414 90.624 29.394 91.842 29.394ZM98.4774 26.706V30.5H97.0634V23.08H98.3794V24.648C98.8974 23.626 100.017 22.982 101.235 22.982V24.452C99.6394 24.368 98.4774 25.068 98.4774 26.706ZM107.132 29.128V30.374C106.698 30.57 106.32 30.64 105.872 30.64C104.5 30.64 103.548 29.898 103.548 28.26V24.284H101.91V23.08H103.548V20.882H104.962V23.08H107.202V24.284H104.962V27.938C104.962 28.96 105.452 29.324 106.208 29.324C106.544 29.324 106.838 29.268 107.132 29.128Z" fill="#CCD0E5"/>
</svg>
