<svg width="18" height="18" viewBox="0 0 18 18" fill="none" xmlns="http://www.w3.org/2000/svg">
<path d="M9 16.5C13.125 16.5 16.5 13.125 16.5 9C16.5 4.875 13.125 1.5 9 1.5C4.875 1.5 1.5 4.875 1.5 9C1.5 13.125 4.875 16.5 9 16.5Z" stroke="#CCD0E5" stroke-width="1.5" stroke-linecap="round" stroke-linejoin="round"/>
<path d="M11.6531 11.636V13H6.46111V12.131L8.71611 9.821C9.57411 8.941 9.93711 8.479 9.93711 7.83C9.93711 7.225 9.53011 6.818 8.88111 6.818C8.16611 6.818 7.72611 7.269 7.72611 7.995H6.24111C6.24111 6.51 7.36311 5.454 8.95811 5.454C10.4431 5.454 11.5321 6.389 11.5321 7.643C11.5321 8.545 11.2021 9.117 9.90411 10.426L8.78211 11.636H11.6531Z" fill="#CCD0E5"/>
</svg>
