<svg width="24" height="24" viewBox="0 0 24 24" fill="none" xmlns="http://www.w3.org/2000/svg">
<path d="M12 22C17.5 22 22 17.5 22 12C22 6.5 17.5 2 12 2C6.5 2 2 6.5 2 12C2 17.5 6.5 22 12 22Z" fill="#00137E"/>
<path d="M14.8943 14.512V16H9.2303V15.052L11.6903 12.532C12.6263 11.572 13.0223 11.068 13.0223 10.36C13.0223 9.7 12.5783 9.256 11.8703 9.256C11.0903 9.256 10.6103 9.748 10.6103 10.54H8.9903C8.9903 8.92 10.2143 7.768 11.9543 7.768C13.5743 7.768 14.7623 8.788 14.7623 10.156C14.7623 11.14 14.4023 11.764 12.9863 13.192L11.7623 14.512H14.8943Z" fill="white"/>
</svg>
