<svg width="18" height="18" viewBox="0 0 18 18" fill="none" xmlns="http://www.w3.org/2000/svg">
<g id="dollar-circle">
<path id="path76" d="M6.76853 5.19985H8.53684C9.65905 5.19985 10.5772 6.1546 10.5772 7.32153C10.5772 8.48845 9.65902 9.4432 8.53684 9.4432H6.42847L9.99912 13.9341" stroke="#000833" stroke-width="1.5" stroke-miterlimit="22.926" stroke-linecap="round" stroke-linejoin="round"/>
<path id="path80" d="M6.3999 5.2002H11.5999" stroke="#000833" stroke-width="1.5" stroke-miterlimit="22.926" stroke-linecap="round" stroke-linejoin="round"/>
<path id="path84" d="M6.3999 7.38379H11.5999" stroke="#000833" stroke-width="1.5" stroke-miterlimit="22.926" stroke-linecap="round" stroke-linejoin="round"/>
<path id="Vector" d="M17 9C17 13.416 13.416 17 9 17C4.584 17 1.888 12.552 1.888 12.552M1.888 12.552H4.89M1.888 12.552V15.552M1 9C1 4.584 4.552 1 9 1C14.336 1 17 5.448 17 5.448M17 5.448V2.45M17 5.448H14" stroke="#000833" stroke-width="1.5" stroke-linecap="round" stroke-linejoin="round"/>
</g>
</svg>
