<svg width="18" height="18" viewBox="0 0 18 18" fill="none" xmlns="http://www.w3.org/2000/svg">
<g id="vuesax/linear/building">
<g id="building">
<path id="Vector" d="M9.37504 16.5H3.06004C2.19004 16.5 1.47754 15.8025 1.47754 14.9475V3.81752C1.47754 1.85252 2.94004 0.960018 4.73254 1.83752L8.06254 3.47252C8.78254 3.82502 9.37504 4.76252 9.37504 5.55752V16.5Z" stroke="#000833" stroke-width="1.5" stroke-linecap="round" stroke-linejoin="round"/>
<path id="Vector_2" d="M16.4775 11.2952V14.1302C16.4775 15.7502 15.7275 16.5002 14.1075 16.5002H9.375V7.81519L9.7275 7.89019L13.1025 8.64769L14.625 8.98519C15.615 9.20269 16.425 9.71269 16.47 11.1527C16.4775 11.1977 16.4775 11.2427 16.4775 11.2952Z" stroke="#000833" stroke-width="1.5" stroke-linecap="round" stroke-linejoin="round"/>
<path id="Vector_3" d="M4.125 6.75H6.7275" stroke="#000833" stroke-width="1.5" stroke-linecap="round" stroke-linejoin="round"/>
<path id="Vector_4" d="M4.125 9.75H6.7275" stroke="#000833" stroke-width="1.5" stroke-linecap="round" stroke-linejoin="round"/>
<path id="Vector_5" d="M13.1025 8.64764V11.0626C13.1025 11.9926 12.345 12.7501 11.415 12.7501C10.485 12.7501 9.72754 11.9926 9.72754 11.0626V7.89014L13.1025 8.64764Z" stroke="#000833" stroke-width="1.5" stroke-linecap="round" stroke-linejoin="round"/>
<path id="Vector_6" d="M16.47 11.1525C16.425 12.0375 15.69 12.75 14.79 12.75C13.86 12.75 13.1025 11.9925 13.1025 11.0625V8.64746L14.625 8.98496C15.615 9.20246 16.425 9.71246 16.47 11.1525Z" stroke="#000833" stroke-width="1.5" stroke-linecap="round" stroke-linejoin="round"/>
</g>
</g>
</svg>
