<svg width="18" height="18" viewBox="0 0 18 18" fill="none" xmlns="http://www.w3.org/2000/svg">
<path d="M16.4998 8.73764H12.1498C11.0023 8.73764 10.2148 7.86763 10.2148 6.80263V4.3876C10.2148 3.3226 11.0023 2.45264 12.1498 2.45264H14.5648C15.6298 2.45264 16.4998 3.3226 16.4998 4.3876V8.73764Z" stroke="#000833" stroke-width="1.5" stroke-linecap="round" stroke-linejoin="round"/>
<path d="M16.4998 8.73779C16.4998 13.2753 15.6523 14.0253 13.1023 15.5403" stroke="#000833" stroke-width="1.5" stroke-linecap="round" stroke-linejoin="round"/>
<path d="M7.77743 8.73764H3.42743C2.27993 8.73764 1.49243 7.86763 1.49243 6.80263V4.3876C1.49243 3.3226 2.27993 2.45264 3.42743 2.45264H5.84993C6.91493 2.45264 7.78493 3.3226 7.78493 4.3876V8.73764" stroke="#000833" stroke-width="1.5" stroke-linecap="round" stroke-linejoin="round"/>
<path d="M7.77738 8.73779C7.77738 13.2753 6.92988 14.0253 4.37988 15.5403" stroke="#000833" stroke-width="1.5" stroke-linecap="round" stroke-linejoin="round"/>
</svg>
