<svg width="18" height="18" viewBox="0 0 18 18" fill="none" xmlns="http://www.w3.org/2000/svg">
<path d="M16.5001 8.73764H12.1501C11.0026 8.73764 10.2151 7.86763 10.2151 6.80263V4.3876C10.2151 3.3226 11.0026 2.45264 12.1501 2.45264H14.5651C15.6301 2.45264 16.5001 3.3226 16.5001 4.3876V8.73764Z" stroke="#CCD0E5" stroke-width="1.5" stroke-linecap="round" stroke-linejoin="round"/>
<path d="M16.5 8.73779C16.5 13.2753 15.6525 14.0253 13.1025 15.5403" stroke="#CCD0E5" stroke-width="1.5" stroke-linecap="round" stroke-linejoin="round"/>
<path d="M7.77755 8.73764H3.42755C2.28005 8.73764 1.49255 7.86763 1.49255 6.80263V4.3876C1.49255 3.3226 2.28005 2.45264 3.42755 2.45264H5.85005C6.91505 2.45264 7.78505 3.3226 7.78505 4.3876V8.73764" stroke="#CCD0E5" stroke-width="1.5" stroke-linecap="round" stroke-linejoin="round"/>
<path d="M7.7775 8.73779C7.7775 13.2753 6.93001 14.0253 4.38 15.5403" stroke="#CCD0E5" stroke-width="1.5" stroke-linecap="round" stroke-linejoin="round"/>
</svg>
